<?xml version="1.0" encoding="UTF-8" standalone="no"?>
<svg
   id="Layer_1"
   data-name="Layer 1"
   viewBox="0 0 611.8291 181.48157"
   version="1.1"
   sodipodi:docname="clic_color.svg"
   width="611.8291"
   height="181.48157"
   inkscape:version="1.3.2 (091e20ef0f, 2023-11-25)"
   xmlns:inkscape="http://www.inkscape.org/namespaces/inkscape"
   xmlns:sodipodi="http://sodipodi.sourceforge.net/DTD/sodipodi-0.dtd"
   xmlns="http://www.w3.org/2000/svg"
   xmlns:svg="http://www.w3.org/2000/svg"
   xmlns:rdf="http://www.w3.org/1999/02/22-rdf-syntax-ns#"
   xmlns:cc="http://creativecommons.org/ns#"
   xmlns:dc="http://purl.org/dc/elements/1.1/">
  <metadata
     id="metadata33">
    <rdf:RDF>
      <cc:Work
         rdf:about="">
        <dc:format>image/svg+xml</dc:format>
        <dc:type
           rdf:resource="http://purl.org/dc/dcmitype/StillImage" />
        <dc:title>clic_color</dc:title>
      </cc:Work>
    </rdf:RDF>
  </metadata>
  <sodipodi:namedview
     pagecolor="#ffffff"
     bordercolor="#666666"
     borderopacity="1"
     objecttolerance="10"
     gridtolerance="10"
     guidetolerance="10"
     inkscape:pageopacity="0"
     inkscape:pageshadow="2"
     inkscape:window-width="1844"
     inkscape:window-height="1016"
     id="namedview31"
     showgrid="false"
     inkscape:zoom="0.68040391"
     inkscape:cx="461.49059"
     inkscape:cy="437.97514"
     inkscape:window-x="76"
     inkscape:window-y="27"
     inkscape:window-maximized="1"
     inkscape:current-layer="Layer_1"
     inkscape:showpageshadow="2"
     inkscape:pagecheckerboard="0"
     inkscape:deskcolor="#d1d1d1" />
  <defs
     id="defs4">
    <style
       id="style2">.cls-1{fill:#273184;}.cls-2{fill:#c7371b;}</style>
  </defs>
  <title
     id="title6">clic_color</title>
  <path
     class="cls-1"
     d="m 351.19781,32.79156 a 32.78,32.78 0 1 0 -41.88,31.48 v 106.67 a 9.11,9.11 0 1 0 18.21,0 v -106.67 a 32.82,32.82 0 0 0 23.67,-31.48 z m -32.78,16.22 a 16.22,16.22 0 1 1 16.22,-16.22 16.23,16.23 0 0 1 -16.22,16.22 z"
     id="path8"
     inkscape:connector-curvature="0"
     style="fill:#f9f9f9" />
  <path
     class="cls-1"
     d="m 84.727815,181.46156 a 84.74,84.74 0 1 1 55.999995,-148.35 9.193238,9.193238 0 0 1 -12.15,13.8 66.36,66.36 0 1 0 0.13,99.51 9.2,9.2 0 1 1 12.2,13.77 84.64,84.64 0 0 1 -56.179995,21.27 z"
     id="path10"
     inkscape:connector-curvature="0"
     style="fill:#f9f9f9" />
  <path
     class="cls-1"
     d="m 467.02781,181.46156 a 84.74,84.74 0 1 1 56,-148.35 9.19,9.19 0 0 1 -12.12,13.8 66.36,66.36 0 1 0 0.13,99.51 9.2,9.2 0 0 1 12.19,13.77 84.64,84.64 0 0 1 -56.2,21.27 z"
     id="path12"
     inkscape:connector-curvature="0"
     style="fill:#f9f9f9" />
  <path
     class="cls-1"
     d="m 263.15781,181.46156 c -57,0 -84.74,-27.71 -84.74,-84.74 v -74.19 a 9.2,9.2 0 0 1 18.39,0 v 74.21 c 0,47.13 19.22,66.36 66.35,66.36 a 9.19,9.19 0 0 1 0,18.38 z"
     id="path14"
     inkscape:connector-curvature="0"
     style="fill:#f9f9f9" />
  <path
     class="cls-2"
     d="m 582.36781,83.94156 a 1.68,1.68 0 0 0 -1.1,0.14 l -44.21,22.48 a 1.66,1.66 0 0 0 -0.88,1.76 1.57,1.57 0 0 0 0.16,0.46 1.64,1.64 0 0 0 1.28,0.89 l 16.51,1.95 a 139.86,139.86 0 0 1 -19.22,20.32 6.4120901,6.4120901 0 0 0 8.2,9.86 149.73,149.73 0 0 0 21,-22.14 l 6.39,12.55 a 1.65,1.65 0 0 0 2.22,0.72 1.63,1.63 0 0 0 0.86,-1.12 l 10.05,-45.91 a 1.65,1.65 0 0 0 -1.26,-1.96 z"
     id="path16"
     inkscape:connector-curvature="0"
     style="fill:#f9f9f9" />
  <path
     class="cls-2"
     d="m 607.19781,67.25156 a 2,2 0 0 0 -2.81,-0.55 l -10.05,6.76 a 2.0218865,2.0218865 0 0 0 2.25,3.36 l 10.06,-6.77 a 2,2 0 0 0 0.55,-2.8 z"
     id="path18"
     inkscape:connector-curvature="0"
     style="fill:#f9f9f9" />
  <path
     class="cls-2"
     d="m 574.70781,69.63156 -6.8,-10.06 a 2.0205259,2.0205259 0 1 0 -3.35,2.26 l 6.76,10 a 2.0177339,2.0177339 0 1 0 3.35,-2.25 z"
     id="path20"
     inkscape:connector-curvature="0"
     style="fill:#f9f9f9" />
  <path
     class="cls-2"
     d="m 599.51781,106.49156 -6.76,-10.05 a 2.0218865,2.0218865 0 0 0 -3.36,2.25 l 6.77,10.05 a 2.0205259,2.0205259 0 1 0 3.35,-2.26 z"
     id="path22"
     inkscape:connector-curvature="0"
     style="fill:#f9f9f9" />
  <path
     class="cls-2"
     d="m 587.13781,68.74156 2.33,-11.9 a 2.0367192,2.0367192 0 0 0 -4,-0.77 l -2.32,11.89 a 2,2 0 0 0 0.31,1.52 2,2 0 0 0 1.28,0.85 2,2 0 0 0 2.4,-1.59 z"
     id="path24"
     inkscape:connector-curvature="0"
     style="fill:#f9f9f9" />
  <path
     class="cls-2"
     d="m 568.17781,81.45156 a 2,2 0 0 0 -1.6,-2.37 l -11.89,-2.34 a 2,2 0 0 0 -2.06,3.11 2,2 0 0 0 1.28,0.89 l 11.89,2.33 a 2,2 0 0 0 2.38,-1.62 z"
     id="path26"
     inkscape:connector-curvature="0"
     style="fill:#f9f9f9" />
  <path
     class="cls-2"
     d="m 611.78781,89.98156 a 2,2 0 0 0 -1.59,-2.37 l -11.9,-2.33 a 2,2 0 0 0 -2.37,1.59 2.05,2.05 0 0 0 0.31,1.52 2,2 0 0 0 1.29,0.85 l 11.89,2.33 a 2,2 0 0 0 2.37,-1.59 z"
     id="path28"
     inkscape:connector-curvature="0"
     style="fill:#f9f9f9" />
</svg>
