<?xml version="1.0" encoding="UTF-8" standalone="no"?>
<!-- Created with Inkscape (http://www.inkscape.org/) -->

<svg
   width="190.48611mm"
   height="122.07692mm"
   viewBox="0 0 190.48611 122.07692"
   version="1.1"
   id="svg1"
   inkscape:version="1.3.2 (091e20ef0f, 2023-11-25)"
   sodipodi:docname="crab-fit.svg"
   inkscape:export-filename="crab.fit/frontend/public/logo512.png"
   inkscape:export-xdpi="96"
   inkscape:export-ydpi="96"
   xml:space="preserve"
   xmlns:inkscape="http://www.inkscape.org/namespaces/inkscape"
   xmlns:sodipodi="http://sodipodi.sourceforge.net/DTD/sodipodi-0.dtd"
   xmlns:xlink="http://www.w3.org/1999/xlink"
   xmlns="http://www.w3.org/2000/svg"
   xmlns:svg="http://www.w3.org/2000/svg"><sodipodi:namedview
     id="namedview1"
     pagecolor="#ffffff"
     bordercolor="#000000"
     borderopacity="0.25"
     inkscape:showpageshadow="2"
     inkscape:pageopacity="0.0"
     inkscape:pagecheckerboard="0"
     inkscape:deskcolor="#d1d1d1"
     inkscape:document-units="mm"
     inkscape:zoom="0.28756221"
     inkscape:cx="1923.0621"
     inkscape:cy="1563.14"
     inkscape:window-width="1920"
     inkscape:window-height="1134"
     inkscape:window-x="0"
     inkscape:window-y="0"
     inkscape:window-maximized="1"
     inkscape:current-layer="layer1" /><defs
     id="defs1"><linearGradient
       id="linearGradient111"
       inkscape:collect="always"><stop
         style="stop-color:#4a0065;stop-opacity:1;"
         offset="0"
         id="stop111" /><stop
         style="stop-color:#4a0065;stop-opacity:0;"
         offset="1"
         id="stop112" /></linearGradient><linearGradient
       id="linearGradient109"
       inkscape:collect="always"><stop
         style="stop-color:#f1f1f1;stop-opacity:0.55260698;"
         offset="0"
         id="stop109" /><stop
         style="stop-color:#f1f1f1;stop-opacity:0;"
         offset="1"
         id="stop110" /></linearGradient><linearGradient
       id="linearGradient102"
       inkscape:collect="always"><stop
         style="stop-color:#e4e4e4;stop-opacity:0.25542372;"
         offset="0"
         id="stop102" /><stop
         style="stop-color:#e4e4e4;stop-opacity:0;"
         offset="1"
         id="stop103" /></linearGradient><linearGradient
       id="linearGradient98"
       inkscape:collect="always"><stop
         style="stop-color:#ff0266;stop-opacity:1;"
         offset="0"
         id="stop97" /><stop
         style="stop-color:#7b00a8;stop-opacity:1;"
         offset="1"
         id="stop98" /></linearGradient><linearGradient
       id="linearGradient96"
       inkscape:collect="always"><stop
         style="stop-color:#2580ff;stop-opacity:1;"
         offset="0"
         id="stop95" /><stop
         style="stop-color:#42005a;stop-opacity:1;"
         offset="1"
         id="stop96" /></linearGradient><linearGradient
       id="linearGradient80"
       inkscape:collect="always"><stop
         style="stop-color:#ff0266;stop-opacity:1;"
         offset="0"
         id="stop79" /><stop
         style="stop-color:#4a0065;stop-opacity:1;"
         offset="1"
         id="stop80" /></linearGradient><linearGradient
       id="linearGradient62"
       inkscape:collect="always"><stop
         style="stop-color:#0271ff;stop-opacity:1;"
         offset="0"
         id="stop62" /><stop
         style="stop-color:#4a0065;stop-opacity:1;"
         offset="1"
         id="stop63" /></linearGradient><linearGradient
       inkscape:collect="always"
       xlink:href="#linearGradient96"
       id="linearGradient63"
       x1="325.27628"
       y1="350.28302"
       x2="352.35342"
       y2="408.98123"
       gradientUnits="userSpaceOnUse" /><linearGradient
       inkscape:collect="always"
       xlink:href="#linearGradient80"
       id="linearGradient77"
       x1="280.74484"
       y1="365.45627"
       x2="351.91565"
       y2="392.06018"
       gradientUnits="userSpaceOnUse" /><linearGradient
       inkscape:collect="always"
       xlink:href="#linearGradient98"
       id="linearGradient81"
       gradientUnits="userSpaceOnUse"
       x1="460.06769"
       y1="-303.78564"
       x2="527.16388"
       y2="-303.78564" /><linearGradient
       inkscape:collect="always"
       xlink:href="#linearGradient62"
       id="linearGradient88"
       gradientUnits="userSpaceOnUse"
       x1="325.27628"
       y1="350.28302"
       x2="352.35342"
       y2="408.98123"
       gradientTransform="matrix(-0.97494269,-0.56376629,0.74805213,-0.84188104,418.48205,938.44646)" /><linearGradient
       inkscape:collect="always"
       xlink:href="#linearGradient80"
       id="linearGradient92"
       x1="320.35925"
       y1="350.28302"
       x2="330.19327"
       y2="371.67395"
       gradientUnits="userSpaceOnUse" /><linearGradient
       inkscape:collect="always"
       xlink:href="#linearGradient80"
       id="linearGradient93"
       x1="361.67664"
       y1="350.28302"
       x2="371.51065"
       y2="371.67395"
       gradientUnits="userSpaceOnUse" /><linearGradient
       inkscape:collect="always"
       xlink:href="#linearGradient80"
       id="linearGradient94"
       gradientUnits="userSpaceOnUse"
       x1="350.72211"
       y1="131.533"
       x2="387.35519"
       y2="169.14374"
       gradientTransform="translate(4.917037,181.13927)" /><linearGradient
       inkscape:collect="always"
       xlink:href="#linearGradient80"
       id="linearGradient95"
       gradientUnits="userSpaceOnUse"
       x1="299.96722"
       y1="140.65829"
       x2="315.44223"
       y2="169.14375"
       gradientTransform="translate(4.917037,181.13927)" /><linearGradient
       inkscape:collect="always"
       xlink:href="#linearGradient102"
       id="linearGradient103"
       x1="320.35925"
       y1="362.88068"
       x2="389.91711"
       y2="372.39511"
       gradientUnits="userSpaceOnUse" /><linearGradient
       inkscape:collect="always"
       xlink:href="#linearGradient109"
       id="linearGradient110"
       x1="327.36298"
       y1="312.6777"
       x2="295.16748"
       y2="346.01083"
       gradientUnits="userSpaceOnUse" /><linearGradient
       inkscape:collect="always"
       xlink:href="#linearGradient111"
       id="linearGradient112"
       x1="401.80505"
       y1="347.88232"
       x2="371.13425"
       y2="316.33286"
       gradientUnits="userSpaceOnUse" /></defs><g
     inkscape:label="Calque 1"
     inkscape:groupmode="layer"
     id="layer1"
     transform="translate(-251.18204,-312.67226)"><path
       id="path54"
       style="fill:url(#linearGradient63);fill-opacity:1;stroke-width:6.95201;stroke-linecap:round"
       d="m 325.27627,350.28301 c -2.72404,0 -4.91701,2.19298 -4.91701,4.91701 v 7.68067 c -14.38712,6.41779 -27.07122,16.0012 -27.07122,22.52989 0,10.61188 25.62159,37.55314 53.93573,45.13988 27.18379,-7.28387 52.82985,-34.528 52.82985,-45.13988 0,-6.997 -12.9564,-17.51425 -28.54296,-23.86934 v -6.34122 c 0,-2.72403 -2.19298,-4.91701 -4.91702,-4.91701 -2.72403,0 -4.91701,2.19298 -4.91701,4.91701 v 3.02928 c -5.05626,-1.34665 -10.16185,-2.14561 -15.0058,-2.14561 -4.90162,0 -10.62931,1.1399 -16.47755,3.01119 v -3.89486 c 0,-2.72403 -2.19297,-4.91701 -4.91701,-4.91701 z" /><path
       id="rect54"
       style="fill:url(#linearGradient77);fill-opacity:1;stroke:none;stroke-width:6.6521;stroke-linecap:round;stroke-dasharray:none;paint-order:markers stroke fill"
       d="m 280.96517,341.25174 c 0.6207,-2.004 2.48379,-3.45151 4.69707,-3.45151 2.72403,0 4.9168,2.19286 4.9168,4.9169 l -5e-5,28.07271 c 0,2.72404 -2.19299,4.91731 -4.91702,4.91731 -2.72404,0 -4.91681,-2.19286 -4.91681,-4.9169 l -3.1e-4,-28.07334 c 0,-0.51076 0.0771,-1.0027 0.22032,-1.46517 z m 17.8193,32.22253 c 0.10718,-0.47213 0.2864,-0.9367 0.54178,-1.37903 l 14.03631,-24.31171 c 1.36202,-2.35908 4.35744,-3.16177 6.71653,-1.79975 2.35908,1.36202 3.16177,4.35744 1.79975,6.71652 l -14.03632,24.31171 c -1.36201,2.35909 -4.35757,3.16227 -6.71666,1.80025 -1.91675,-1.10664 -2.80585,-3.29212 -2.34139,-5.33799 z m 12.23541,13.57068 c 0.40564,-1.69579 1.70368,-3.11672 3.51264,-3.60143 l 27.11617,-7.26574 c 2.63121,-0.70504 5.31728,0.8453 6.02231,3.47652 0.70504,2.63122 -0.8458,5.31715 -3.47702,6.02218 l -27.11617,7.26575 c -2.63121,0.70503 -5.31728,-0.84531 -6.02232,-3.47652 -0.22032,-0.82226 -0.21999,-1.64995 -0.0356,-2.42076 z"
       transform="matrix(-0.25881905,0.96592582,0.96592582,0.25881905,0,0)" /><path
       id="rect57"
       style="fill:url(#linearGradient81);fill-opacity:1;stroke:none;stroke-width:6.6521;stroke-linecap:round;stroke-dasharray:none;paint-order:markers stroke fill"
       d="m 460.288,-327.99017 c -0.14324,0.46246 -0.22032,0.95441 -0.22032,1.46516 l 4.5e-4,28.07285 c 0,2.72404 2.19264,4.91739 4.91667,4.91739 2.72404,0 4.91703,-2.19326 4.91703,-4.9173 l 5e-5,-28.07272 c 0,-2.72403 -2.19277,-4.91689 -4.91681,-4.91689 -2.21327,0 -4.07636,1.44751 -4.69707,3.45151 z m 17.81931,32.22253 c -0.46446,2.04587 0.42477,4.23085 2.34153,5.33749 2.35908,1.36202 5.3545,0.55933 6.71652,-1.79975 l 14.03632,-24.31171 c 1.36201,-2.35908 0.55933,-5.35451 -1.79975,-6.71652 -2.35909,-1.36202 -5.35451,-0.55934 -6.71653,1.79975 l -14.03632,24.31171 c -0.25537,0.44233 -0.43459,0.9069 -0.54177,1.37903 z m 12.23541,13.57067 c -0.18439,0.77081 -0.18471,1.59851 0.0356,2.42076 0.70503,2.63122 3.3911,4.18156 6.02232,3.47653 l 27.11617,-7.26575 c 2.63121,-0.70503 4.18205,-3.39096 3.47702,-6.02218 -0.70503,-2.63122 -3.3911,-4.18156 -6.02232,-3.47652 l -27.11617,7.26574 c -1.80896,0.48471 -3.10699,1.90564 -3.51263,3.60142 z"
       transform="rotate(74.999999)" /><path
       id="path61"
       style="fill:url(#linearGradient95);stroke:none;stroke-width:6.5992;stroke-linecap:round;stroke-dasharray:none;paint-order:markers stroke fill"
       d="m 327.36299,312.6777 c -6.71048,-0.14554 -14.8607,2.62698 -22.47873,9.11986 -13.54319,11.5429 -15.61842,26.38637 -11.36985,31.83165 4.24857,5.44544 28.81928,-7.09362 35.0852,-11.51351 6.2659,-4.41988 11.11638,-7.10887 7.42952,-13.67462 -0.26708,0.16456 -0.51912,0.30928 -0.76016,0.43925 l -11.39569,6.57893 c -2.35908,1.36202 -5.35488,0.55919 -6.7169,-1.79989 -1.36202,-2.35908 -0.55919,-5.35437 1.79989,-6.71639 l 18.74666,-10.82414 c -2.58273,-2.13862 -6.18366,-3.35099 -10.33994,-3.44114 z" /><path
       id="path62"
       style="fill:url(#linearGradient94);stroke:none;stroke-width:6.5992;stroke-linecap:round;stroke-dasharray:none;paint-order:markers stroke fill"
       d="m 365.97908,312.67771 c 6.71048,-0.14554 14.8607,2.62698 22.47873,9.11986 13.54319,11.5429 15.61842,26.38637 11.36985,31.83165 -4.24857,5.44544 -28.81928,-7.09362 -35.0852,-11.51351 -6.2659,-4.41988 -11.11638,-7.10887 -7.42952,-13.67462 0.26708,0.16456 0.51912,0.30928 0.76016,0.43925 l 11.39569,6.57892 c 2.35908,1.36202 5.35488,0.55919 6.7169,-1.79989 1.36202,-2.35908 0.55919,-5.35437 -1.79989,-6.71639 l -18.74666,-10.82413 c 2.58273,-2.13862 6.18366,-3.35099 10.33994,-3.44114 z" /><path
       id="path90"
       style="fill:url(#linearGradient88);fill-opacity:1;stroke-width:7.74927;stroke-linecap:round"
       d="m 323.31153,419.59454 c 7.33476,4.73421 15.50119,8.70219 23.91224,10.95592 15.92915,-4.2682 31.12797,-15.25212 41.09924,-25.75753 16.86296,-36.41272 -62.11473,-26.98647 -71.56302,-16.35307 -4.62108,5.20071 -1.44102,18.40396 6.55154,31.15468 z"
       sodipodi:nodetypes="cccsc" /><path
       id="path101"
       style="fill:url(#linearGradient103);fill-opacity:1;stroke-width:6.95201;stroke-linecap:round"
       d="m 325.27627,350.283 c -2.72404,0 -4.91702,2.19299 -4.91702,4.91702 v 7.68066 c -14.3871,6.41779 -27.07121,16.00121 -27.07121,22.5299 0,6.84149 10.65678,20.46575 25.81134,31.31953 -11.9615,-9.88656 -19.94193,-20.88147 -19.94193,-26.79991 0,-6.52869 12.68411,-16.11211 27.07121,-22.52989 5.15066,-2.36534 5.19904,-2.20438 9.83403,-3.78582 5.84823,-1.87129 11.57593,-3.01119 16.47755,-3.01119 4.84394,0 9.94954,0.79896 15.0058,2.14561 5.65543,1.25693 5.29443,1.15889 9.83402,3.31194 5.65164,2.30434 10.94579,5.15869 15.41353,8.19123 -5.25627,-4.64408 -12.87582,-9.28303 -21.28294,-12.71085 v -6.34121 c 0,-2.72403 -2.19297,-4.91702 -4.91701,-4.91702 -2.72403,0 -4.91701,2.19299 -4.91701,4.91702 v 3.02927 c -5.05626,-1.34665 -10.16186,-2.14561 -15.0058,-2.14561 -4.90162,0 -10.62932,1.1399 -16.47755,3.01119 v -3.89485 c 0,-2.72403 -2.19298,-4.91702 -4.91701,-4.91702 z" /><rect
       style="fill:url(#linearGradient92);fill-opacity:1;stroke:none;stroke-width:10.6023;stroke-linecap:round;stroke-dasharray:none;paint-order:markers stroke fill"
       id="rect90"
       width="9.8340015"
       height="21.39093"
       x="320.35925"
       y="350.28302"
       ry="4.9170008" /><rect
       style="fill:url(#linearGradient93);fill-opacity:1;stroke:none;stroke-width:10.6023;stroke-linecap:round;stroke-dasharray:none;paint-order:markers stroke fill"
       id="rect91"
       width="9.8340015"
       height="21.39093"
       x="361.67664"
       y="350.28302"
       ry="4.9170008" /><path
       id="path103"
       style="fill:url(#linearGradient110);fill-opacity:1;stroke:none;stroke-width:6.5992;stroke-linecap:round;stroke-dasharray:none;paint-order:markers stroke fill"
       d="m 327.363,312.6777 c -6.71048,-0.14554 -14.86071,2.62698 -22.47874,9.11986 -13.54317,11.54288 -15.61841,26.38637 -11.36984,31.83164 0.56694,0.72666 1.50427,1.12461 2.70319,1.27279 -3.23139,-6.15481 -0.6182,-19.88591 12.08557,-30.71337 7.61802,-6.49287 15.76826,-9.26539 22.47873,-9.11985 2.40599,0.0522 4.61683,0.49151 6.56084,1.2578 l 0.36018,-0.20774 c -2.58272,-2.13862 -6.18366,-3.35098 -10.33993,-3.44113 z m 8.66613,15.76338 c -0.26708,0.16456 -0.51912,0.30928 -0.76016,0.43925 l -11.39568,6.57892 c -1.04054,0.60076 -2.20507,0.7795 -3.29851,0.59015 1.9e-4,3.4e-4 3.2e-4,6.9e-4 5.2e-4,0.001 3.98099,5.98781 12.45082,-1.51041 16.70544,-3.96668 -0.0922,-1.0807 -0.48473,-2.27697 -1.25161,-3.64267 z"
       sodipodi:nodetypes="ssscssccsscccccss" /><path
       id="path109"
       style="fill:url(#linearGradient112);fill-opacity:1;stroke:none;stroke-width:6.5992;stroke-linecap:round;stroke-dasharray:none;paint-order:markers stroke fill"
       d="m 365.97907,312.67771 c 6.71048,-0.14554 14.86071,2.62698 22.47874,9.11986 13.54317,11.54288 15.61841,26.38637 11.36984,31.83164 -0.56694,0.72666 -1.50427,1.12461 -2.70319,1.27279 3.23139,-6.15481 0.6182,-19.88591 -12.08557,-30.71337 -7.61802,-6.49287 -15.76826,-9.26539 -22.47873,-9.11985 -2.40599,0.0522 -4.61683,0.49151 -6.56084,1.2578 l -0.36018,-0.20774 c 2.58272,-2.13862 6.18366,-3.35098 10.33993,-3.44113 z m -8.66613,15.76338 c 0.26708,0.16456 0.51912,0.30928 0.76016,0.43925 l 11.39568,6.57892 c 1.04054,0.60076 2.20507,0.7795 3.29851,0.59015 -1.9e-4,3.4e-4 -3.2e-4,6.9e-4 -5.2e-4,10e-4 -3.98099,5.98781 -12.45082,-1.51041 -16.70544,-3.96668 0.0922,-1.0807 0.48473,-2.27697 1.25161,-3.64267 z"
       sodipodi:nodetypes="ssscssccsscccccss" /><ellipse
       style="opacity:0.450214;fill:#ffffff;fill-opacity:1;stroke:none;stroke-width:10;stroke-linecap:round;stroke-dasharray:none;paint-order:markers stroke fill"
       id="path113"
       cx="364.69501"
       cy="353.32162"
       rx="1.528059"
       ry="1.6172547" /><ellipse
       style="opacity:0.450214;fill:#ffffff;fill-opacity:1;stroke:none;stroke-width:10;stroke-linecap:round;stroke-dasharray:none;paint-order:markers stroke fill"
       id="ellipse113"
       cx="323.39966"
       cy="353.32162"
       rx="1.528059"
       ry="1.6172547" /></g></svg>
