<?xml version="1.0" encoding="UTF-8" standalone="no"?>
<!-- Created with Inkscape (http://www.inkscape.org/) -->

<svg
   width="1092.884mm"
   height="1322.7787mm"
   viewBox="0 0 1092.884 1322.7787"
   version="1.1"
   id="svg5"
   xml:space="preserve"
   inkscape:version="1.2.1 (9c6d41e410, 2022-07-14)"
   sodipodi:docname="post djs.svg"
   xmlns:inkscape="http://www.inkscape.org/namespaces/inkscape"
   xmlns:sodipodi="http://sodipodi.sourceforge.net/DTD/sodipodi-0.dtd"
   xmlns="http://www.w3.org/2000/svg"
   xmlns:svg="http://www.w3.org/2000/svg"><sodipodi:namedview
     id="namedview7"
     pagecolor="#ffffff"
     bordercolor="#000000"
     borderopacity="0.25"
     inkscape:showpageshadow="2"
     inkscape:pageopacity="0.0"
     inkscape:pagecheckerboard="0"
     inkscape:deskcolor="#d1d1d1"
     inkscape:document-units="mm"
     showgrid="false"
     inkscape:zoom="0.16110414"
     inkscape:cx="4363.6372"
     inkscape:cy="-10213.89"
     inkscape:window-width="1920"
     inkscape:window-height="991"
     inkscape:window-x="-9"
     inkscape:window-y="-9"
     inkscape:window-maximized="1"
     inkscape:current-layer="layer5" /><defs
     id="defs2"><style
       id="style2">.cls-1{fill:#273184;}.cls-2{fill:#c7371b;}</style><style
       id="style2-8">.cls-1{fill:#273184;}.cls-2{fill:#c7371b;}</style></defs><g
     inkscape:groupmode="layer"
     id="layer3"
     inkscape:label=":: Lina ::"
     transform="translate(-83.536048,-60.954333)"><g
       id="g7999"
       inkscape:label=":: lina ::"
       style="display:inline"
       transform="matrix(1.0747228,0,0,1.0747228,-6.2420378,-244.47497)"
       inkscape:export-filename=".\lina_perso"
       inkscape:export-xdpi="96"
       inkscape:export-ydpi="96"><path
         style="fill:#ffffff;fill-opacity:1;stroke-width:5.08634;stroke-linecap:square;stroke-miterlimit:6.1;paint-order:markers fill stroke"
         d="m 503.09881,1500.1224 327.36543,10.6288 221.07796,4.2515 34.0121,-140.2995 -31.8863,-42.5151 46.7665,-85.0299 -40.3892,-48.8923 25.509,-82.9042 -31.8863,-27.6347 40.3891,-44.6408 -19.1316,-140.29947 -36.1377,-8.50297 23.3833,-47.82937 -29.7607,-39.32639 2.1258,-70.14973 -46.76649,-36.13776 14.88029,-48.89223 -46.76653,-25.50899 11.69162,-57.39522 -26.57187,-31.88625 4.2515,-59.521 -48.89224,-31.88624 -27.63475,-44.64074 -63.7725,-21.25752 -19.13174,-40.38923 H 730.554 l -19.13173,-40.38923 -57.39524,6.37723 -40.38927,-21.25749 -61.64671,36.13775 -68.02401,-36.13775 -68.02398,63.77249 -59.521,-8.503 -27.63472,65.89823 -89.2815,23.38326 -80.77849,74.40121 6.13878,65.83776 -42.27652,76.58747 -17.00599,99.91024 -19.955851,180.64514 21.942141,72.30865 -24.033865,42.25405 40.222695,78.9695 -24.960853,118.8824 25.118713,123.4746 -26.835984,91.3404 c 11.852244,3.4699 447.691404,58.6729 406.018194,46.7664 z"
         id="path7915"
         sodipodi:nodetypes="ccccccccccccccccccccccccccccccccccccccccccccccc"
         inkscape:label="lina fond" /><g
         transform="matrix(0.14282822,0,0,-0.14282822,88.435093,1779.1934)"
         fill="#000000"
         stroke="none"
         id="g3044"
         inkscape:label=":: lina ::"
         style="display:inline"><path
           d="m 3510,10228 c -76,-43 -126,-85 -167,-138 l -35,-45 -100,-17 -101,-16 -96,68 c -124,90 -192,123 -261,128 -66,5 -102,-18 -131,-82 -23,-50 -24,-102 -4,-197 11,-51 12,-76 5,-83 -20,-20 -151,-19 -272,3 -204,37 -270,23 -319,-63 -21,-36 -24,-54 -24,-148 v -107 l -33,-15 c -24,-12 -64,-16 -151,-16 -78,0 -135,-5 -172,-16 -141,-42 -287,-141 -330,-225 -24,-49 -24,-104 1,-151 11,-20 16,-39 12,-41 -4,-3 -39,-10 -78,-16 -169,-26 -296,-86 -366,-175 -55,-69 -78,-121 -78,-181 0,-98 46,-157 163,-209 31,-14 57,-29 57,-34 0,-16 -64,-67 -113,-91 -25,-12 -93,-33 -150,-46 -214,-48 -317,-137 -317,-274 0,-87 49,-154 172,-239 92,-63 84,-98 -37,-163 -138,-75 -200,-152 -230,-283 -25,-107 -4,-182 70,-265 19,-21 35,-45 35,-53 0,-9 -33,-51 -74,-96 -86,-93 -118,-144 -141,-226 -21,-71 -16,-175 9,-223 25,-49 80,-98 146,-129 38,-18 60,-35 60,-45 0,-21 -35,-71 -94,-134 -26,-27 -59,-75 -74,-105 -23,-47 -27,-67 -26,-140 0,-74 4,-95 31,-150 16,-36 55,-93 86,-127 55,-61 55,-63 45,-100 -5,-21 -35,-82 -65,-135 -78,-139 -96,-190 -96,-273 -1,-94 24,-143 119,-236 115,-114 131,-186 63,-293 -65,-100 -107,-194 -119,-265 -12,-62 -11,-79 4,-132 21,-77 48,-119 125,-195 37,-38 61,-70 61,-83 0,-32 -23,-72 -101,-174 -85,-112 -114,-193 -107,-291 9,-101 50,-160 175,-250 29,-20 55,-46 58,-56 4,-13 -9,-48 -39,-102 -67,-124 -97,-222 -97,-321 0,-129 35,-212 125,-295 89,-82 168,-99 304,-66 89,22 232,90 311,147 35,26 103,69 150,94 47,26 133,77 191,114 149,95 594,395 660,444 125,95 331,235 345,235 17,0 19,8 16,65 -4,71 -103,625 -117,646 -1,3 4,28 12,55 19,64 13,93 -8,34 l -15,-45 -16,50 c -9,28 -30,90 -46,139 -17,49 -29,91 -27,93 2,2 38,-36 81,-84 43,-48 112,-126 154,-172 42,-47 105,-117 140,-155 167,-186 491,-469 491,-430 0,5 -96,105 -213,223 -117,119 -265,272 -327,341 -132,145 -182,199 -266,289 -34,36 -84,93 -110,126 -172,214 -177,218 -191,199 -26,-36 -16,-62 37,-95 75,-46 108,-116 80,-168 -12,-23 -79,-51 -120,-51 -40,0 -92,-69 -88,-115 3,-26 13,-35 88,-75 96,-52 120,-82 120,-150 0,-60 -33,-128 -107,-220 -33,-41 -68,-91 -78,-110 -20,-39 -26,-31 70,-93 93,-60 132,-192 86,-292 -10,-22 -48,-78 -85,-124 -80,-100 -104,-145 -113,-206 -4,-34 -13,-50 -32,-64 -56,-39 -54,-40 -49,42 6,94 42,173 124,267 70,82 94,128 94,182 0,66 -28,108 -100,150 -64,36 -89,66 -90,103 0,24 65,132 138,228 92,121 90,173 -11,223 -82,42 -106,62 -118,103 -9,29 -9,47 1,76 16,49 111,141 161,156 21,7 39,15 39,19 0,7 -7,14 -87,88 -33,31 -43,47 -43,71 0,42 25,90 54,101 l 23,8 -30,94 c -46,147 -141,412 -195,543 -27,66 -59,149 -71,185 l -23,65 36,53 c 60,90 61,159 2,336 -33,101 -36,115 -30,195 5,79 19,141 32,141 3,0 44,-15 91,-34 178,-71 301,-109 456,-142 229,-50 239,-51 231,-28 -8,27 93,94 141,94 44,0 40,19 -10,43 -27,14 -63,19 -129,20 -101,2 -208,-10 -208,-22 0,-5 23,-11 51,-15 l 50,-7 -23,-19 c -13,-10 -20,-21 -17,-25 4,-3 20,6 37,20 16,14 38,25 47,25 12,0 3,-11 -24,-30 -39,-29 -44,-30 -84,-20 -73,19 -77,21 -71,32 4,7 9,6 14,-1 5,-9 10,-8 18,2 9,11 8,13 -8,12 -11,-1 -25,-6 -31,-12 -8,-8 -27,-6 -67,4 -65,17 -293,101 -305,113 -5,4 1,29 12,55 12,27 19,50 16,53 -3,3 -15,-18 -27,-47 -15,-35 -27,-51 -38,-48 -16,3 -17,15 -7,57 5,17 2,15 -8,-7 -16,-34 -29,-40 -55,-23 -12,9 -7,18 30,51 59,52 120,89 159,94 17,2 31,2 31,-1 0,-2 -14,-35 -30,-71 -17,-37 -29,-76 -28,-87 2,-10 19,20 42,73 33,79 41,91 62,91 h 24 l -23,-47 c -28,-56 -61,-152 -54,-159 2,-2 26,46 52,108 26,62 51,116 54,120 7,8 182,-23 282,-50 41,-11 118,-41 172,-66 54,-25 103,-46 109,-46 24,0 -38,50 -103,85 -38,20 -69,38 -69,41 0,9 78,-29 139,-69 35,-23 71,-42 79,-43 8,-2 25,-12 38,-25 l 23,-22 -3,57 c -2,45 -9,64 -33,94 -55,68 -185,144 -167,98 5,-14 2,-15 -20,-6 -14,5 -36,16 -49,24 -12,9 -42,22 -67,31 l -44,16 29,-31 c 30,-31 28,-38 -7,-19 -11,6 -45,14 -77,19 -31,4 -74,13 -97,19 l -40,11 6,52 c 5,40 21,79 68,158 33,58 71,130 82,161 l 22,56 91,17 c 199,38 238,87 186,237 l -21,61 37,79 c 21,44 35,82 32,85 -3,3 -22,-29 -43,-71 l -38,-78 -19,40 c -38,77 -11,107 152,167 l 92,34 -35,-62 c -58,-103 -118,-227 -114,-232 3,-2 17,20 33,48 120,225 160,287 187,288 4,0 -9,-26 -29,-57 -54,-85 -104,-175 -99,-180 2,-2 16,17 31,43 15,26 74,117 130,203 117,180 127,197 90,156 -24,-27 -26,-28 -22,-8 3,12 1,41 -4,63 -8,37 -7,44 13,61 61,51 227,108 316,109 46,0 130,-18 137,-29 2,-4 -3,-34 -11,-67 -9,-32 -14,-77 -11,-100 4,-43 41,-106 67,-114 8,-3 67,-6 130,-8 67,-2 120,-8 128,-15 12,-9 13,-39 7,-162 -8,-168 0,-215 41,-265 52,-61 70,-65 276,-65 182,0 188,-1 210,-23 20,-20 23,-32 22,-100 0,-44 -9,-103 -19,-137 -19,-63 -21,-158 -3,-205 5,-14 20,-37 34,-51 35,-37 23,-55 -44,-68 -31,-6 -68,-14 -82,-17 -15,-3 -6,5 23,21 26,14 47,27 47,30 0,10 -230,-69 -290,-100 -33,-17 -44,-19 -36,-6 4,5 71,35 151,67 80,31 144,59 142,61 -6,5 -135,-23 -183,-40 -58,-21 -151,-69 -212,-110 -81,-55 -52,-26 36,36 132,93 136,116 7,41 -44,-26 -87,-46 -97,-46 -9,0 -34,-15 -57,-34 -47,-41 -52,-37 -16,10 14,18 25,36 25,40 0,11 -52,-28 -116,-87 -32,-29 -52,-42 -46,-30 18,33 15,37 -17,16 -37,-23 -88,-86 -112,-138 -20,-43 -25,-105 -9,-105 6,0 8,-11 4,-25 -8,-34 10,-32 33,4 10,16 21,29 24,28 3,-1 30,26 60,59 30,34 92,92 139,129 l 85,66 -70,-62 c -131,-118 -203,-199 -177,-199 4,0 51,36 103,79 132,110 379,241 479,255 l 45,6 -58,-21 c -32,-12 -56,-23 -53,-26 2,-3 55,7 116,21 60,14 115,26 120,26 5,0 -11,-34 -36,-76 -25,-42 -43,-78 -40,-81 2,-2 28,34 57,81 29,47 57,86 63,86 6,0 36,11 67,23 52,22 58,23 108,9 35,-10 69,-30 102,-60 44,-39 86,-98 77,-107 -2,-2 -32,-15 -67,-29 l -63,-25 6,27 c 5,23 3,22 -14,-9 -16,-30 -33,-42 -103,-72 -80,-35 -243,-97 -253,-97 -2,0 3,12 13,26 17,27 17,27 -5,15 -12,-6 -22,-20 -22,-30 0,-12 -16,-22 -57,-35 -32,-10 -64,-21 -72,-24 -10,-4 -13,-1 -9,9 21,51 21,54 1,29 -11,-14 -22,-32 -25,-40 -3,-9 -37,-26 -74,-39 -38,-13 -82,-30 -97,-38 -16,-8 -31,-12 -34,-10 -9,10 71,102 99,114 l 30,13 -31,-35 c -17,-20 -31,-40 -31,-46 0,-22 26,-1 55,43 25,38 43,51 103,78 40,18 71,35 68,37 -8,9 -175,-37 -281,-77 -162,-60 -295,-140 -295,-176 0,-11 4,-12 19,-4 32,17 33,12 6,-41 -15,-28 -25,-58 -23,-67 2,-10 21,17 45,63 37,72 76,115 90,101 3,-2 -9,-25 -27,-51 -17,-25 -40,-65 -51,-89 -10,-24 -26,-49 -35,-56 -17,-15 -48,-70 -39,-70 36,0 185,130 185,162 0,22 -3,22 -42,2 l -32,-17 19,29 c 10,16 30,48 43,72 13,23 37,49 53,58 31,15 39,5 13,-17 -19,-16 -47,-69 -40,-76 3,-3 22,22 43,55 21,33 48,65 61,71 l 24,11 -20,-27 c -24,-36 -34,-63 -22,-63 6,0 10,-9 10,-20 0,-15 7,-20 28,-20 38,0 397,108 560,169 46,17 88,29 92,26 5,-3 12,1 17,9 4,7 33,26 63,41 30,15 69,38 87,51 17,13 34,24 37,24 13,0 4,-53 -25,-146 -40,-132 -41,-169 -6,-200 16,-13 45,-27 66,-30 93,-15 171,-92 191,-191 14,-67 8,-141 -24,-261 -31,-118 -30,-116 -38,-122 -14,-11 -173,-399 -166,-406 5,-4 117,249 143,324 l 22,62 6,-77 c 5,-82 -10,-149 -84,-358 -15,-44 -35,-105 -44,-136 -14,-50 -21,-60 -82,-105 -145,-106 -534,-465 -744,-685 -95,-101 -262,-273 -369,-381 -107,-109 -196,-204 -198,-213 -14,-63 147,76 508,440 235,237 344,342 538,520 l 34,30 -25,-55 c -14,-30 -68,-143 -120,-250 -96,-196 -139,-297 -183,-424 -40,-116 -20,-85 36,56 29,73 84,198 122,278 67,140 137,292 172,376 10,23 55,77 107,130 50,49 106,111 126,137 19,26 37,46 40,43 7,-6 -44,-148 -77,-213 -16,-32 -30,-63 -30,-69 0,-7 15,-15 34,-18 69,-13 121,-114 96,-184 -7,-20 -20,-48 -30,-62 -25,-37 -43,-98 -36,-125 4,-15 27,-38 61,-59 102,-66 137,-162 86,-237 -13,-19 -61,-63 -107,-98 -103,-78 -164,-143 -164,-174 0,-30 37,-64 127,-116 82,-47 126,-87 153,-142 31,-60 26,-123 -22,-272 -46,-144 -53,-218 -31,-332 6,-33 9,-62 6,-65 -3,-3 -22,14 -43,38 -75,84 -76,168 -4,387 64,193 52,228 -107,326 -126,78 -149,104 -149,173 0,77 32,118 182,232 65,50 100,83 104,100 10,39 -19,88 -73,125 -26,17 -56,41 -65,53 -23,28 -23,99 0,151 10,22 26,65 36,96 17,49 17,59 5,84 -8,15 -28,39 -46,52 l -31,24 -32,-98 c -18,-54 -81,-233 -140,-398 -119,-330 -256,-747 -294,-895 -30,-117 -59,-260 -53,-266 5,-6 110,226 138,306 29,83 33,88 49,48 14,-34 43,-80 212,-338 124,-188 494,-674 645,-845 l 72,-82 58,-2 c 32,-1 137,8 233,20 141,17 255,23 585,28 226,4 418,10 427,15 30,14 48,54 54,118 3,35 19,106 36,158 27,83 31,114 36,241 3,103 1,158 -8,185 -7,22 -46,96 -87,165 -86,147 -105,211 -85,287 18,64 79,170 161,273 86,109 106,150 105,215 0,77 -42,153 -136,246 -43,43 -81,90 -84,105 -11,41 10,106 76,238 80,160 84,192 36,289 -26,53 -56,94 -106,143 -39,37 -70,76 -70,86 0,19 79,101 193,200 86,75 101,116 69,183 -49,101 -138,165 -250,180 -34,4 -52,11 -52,20 0,8 35,41 78,75 144,113 162,130 184,172 63,121 2,246 -201,417 l -54,46 15,46 c 9,26 41,84 72,130 31,46 58,97 62,114 13,66 -42,175 -117,235 -22,17 -73,44 -112,58 -99,37 -98,46 7,149 112,109 125,153 75,267 -51,117 -193,220 -351,254 -56,12 -118,45 -125,68 -2,6 26,51 64,100 150,196 143,243 -52,323 -128,52 -141,66 -124,136 7,27 33,92 59,144 67,134 69,148 30,226 -47,95 -119,170 -186,191 -30,9 -54,22 -54,29 0,6 25,47 57,90 76,107 97,155 89,209 -11,72 -62,126 -181,188 -59,32 -61,32 -205,32 -175,0 -176,1 -101,111 61,90 71,130 44,176 -24,41 -98,91 -178,119 -48,17 -89,23 -205,26 -80,2 -160,6 -178,9 l -34,5 7,104 c 7,95 6,106 -15,143 -35,63 -69,77 -180,76 -59,0 -131,-8 -192,-22 -153,-34 -145,-38 -144,66 1,70 -3,95 -20,127 -56,107 -139,111 -334,16 -69,-33 -144,-64 -166,-67 l -42,-6 -3,92 c -4,86 -6,93 -32,116 -41,35 -97,32 -167,-8 z m -360,-503 c 33,-13 31,-13 -50,-12 -65,0 -96,-5 -132,-21 -50,-22 -64,-41 -92,-129 -22,-66 -76,-116 -147,-137 -29,-9 -60,-16 -70,-16 -44,0 -255,-62 -309,-91 -105,-56 -138,-109 -170,-273 -10,-48 -14,-56 -22,-42 -11,20 -4,85 17,162 17,60 83,139 148,177 58,34 151,63 281,88 181,35 213,54 246,155 26,78 52,111 104,135 48,22 144,24 196,4 z M 1677,9315 c -80,-30 -127,-82 -127,-143 0,-34 43,-104 95,-152 123,-117 69,-223 -145,-286 -212,-62 -227,-70 -267,-147 -20,-40 -26,-68 -27,-118 -1,-59 2,-71 35,-120 99,-149 103,-207 21,-292 -44,-46 -98,-75 -212,-112 -102,-34 -133,-62 -148,-131 -14,-62 -3,-113 42,-202 80,-159 75,-188 -67,-333 -113,-115 -150,-175 -168,-273 -17,-95 -1,-134 94,-231 106,-107 140,-177 140,-284 -1,-96 -23,-154 -97,-260 -116,-164 -114,-174 63,-350 151,-151 176,-192 176,-296 0,-63 -3,-75 -33,-117 -40,-59 -97,-93 -192,-116 -86,-21 -115,-49 -114,-111 2,-50 17,-76 94,-161 132,-147 211,-283 214,-370 2,-86 -68,-150 -218,-196 -70,-22 -86,-46 -65,-96 18,-44 126,-152 224,-222 44,-32 95,-75 112,-94 132,-144 90,-330 -92,-416 -71,-34 -95,-58 -95,-96 0,-51 27,-90 141,-200 123,-119 159,-180 159,-265 0,-63 -25,-116 -85,-180 -63,-68 -85,-104 -85,-143 0,-33 36,-82 60,-82 6,0 35,14 65,31 30,17 55,28 55,25 0,-19 -43,-87 -66,-105 -78,-62 -194,17 -194,131 1,59 28,113 92,183 67,73 78,93 78,140 0,59 -37,114 -146,219 -112,107 -154,172 -154,239 0,77 40,126 140,173 54,25 103,78 120,129 26,79 -27,159 -170,260 -100,71 -212,189 -235,248 -20,53 -15,102 15,140 12,15 56,39 114,61 52,21 106,46 120,57 68,53 7,181 -191,408 -100,113 -114,205 -48,301 29,41 51,53 134,70 112,22 171,75 171,154 0,70 -35,123 -171,256 -113,112 -129,131 -143,180 -15,49 -15,59 -1,105 8,27 38,82 65,120 80,111 100,159 100,240 0,94 -24,142 -116,236 -91,94 -118,149 -117,239 1,72 30,170 68,230 13,20 69,85 124,143 56,59 101,114 101,123 0,9 -20,60 -44,113 -71,155 -76,242 -21,337 31,53 69,77 190,119 196,69 232,125 155,243 -21,34 -47,76 -57,94 -24,47 -22,157 6,228 43,114 105,158 286,205 113,29 188,69 193,102 2,16 -15,41 -56,86 -33,36 -68,79 -77,96 -18,37 -30,121 -18,136 8,11 157,99 183,108 8,3 24,5 35,6 11,0 3,-6 -18,-14 z m 2903,-23 c 49,-24 62,-58 61,-160 -2,-134 17,-149 162,-126 171,28 261,7 302,-72 29,-57 20,-123 -40,-269 -80,-194 -79,-194 66,-206 57,-5 118,-14 135,-19 91,-30 182,-212 208,-415 9,-72 -6,-42 -54,106 -43,134 -88,220 -131,251 -33,25 -89,37 -167,38 -111,0 -162,40 -146,114 3,17 28,83 54,146 27,63 51,131 55,151 9,48 -15,103 -57,129 -29,19 -43,21 -123,16 -49,-3 -113,-9 -142,-12 -29,-4 -67,-4 -86,0 -54,10 -66,38 -69,160 -3,94 -5,108 -26,128 -34,34 -117,30 -203,-10 -36,-17 -78,-36 -94,-42 -25,-9 -26,-9 -15,5 14,17 111,75 155,92 45,17 115,15 155,-5 z M 2932,9070 c 20,-6 47,-20 60,-31 20,-18 21,-20 3,-14 -104,37 -236,19 -383,-51 -200,-96 -237,-173 -178,-365 35,-117 34,-159 -5,-203 -37,-43 -103,-69 -230,-90 -151,-26 -245,-55 -305,-95 -71,-47 -76,-67 -30,-128 20,-27 49,-73 64,-103 24,-49 27,-66 27,-155 0,-84 -4,-107 -23,-146 -27,-56 -99,-130 -184,-190 -82,-58 -156,-127 -174,-161 -8,-15 -14,-45 -14,-67 0,-34 7,-48 53,-98 63,-68 77,-92 77,-130 0,-38 -21,-67 -141,-195 -57,-61 -121,-134 -143,-162 -58,-76 -106,-182 -106,-233 0,-38 6,-50 56,-104 120,-131 124,-218 17,-397 -25,-43 -52,-95 -59,-117 -27,-73 -20,-83 194,-290 125,-120 169,-223 142,-334 -11,-48 -51,-113 -185,-304 -30,-43 -55,-86 -55,-96 0,-11 24,-43 54,-72 128,-129 133,-230 20,-463 -78,-159 -73,-189 49,-324 123,-137 186,-253 186,-342 1,-49 -41,-160 -90,-244 -105,-176 -119,-225 -78,-262 32,-28 59,-93 59,-142 0,-56 -14,-46 -35,23 -15,54 -74,136 -75,105 0,-13 -1,-13 -10,0 -15,23 -12,106 5,146 8,20 38,74 66,120 69,115 102,198 102,260 0,71 -55,172 -158,287 -148,165 -156,216 -67,399 59,122 72,164 72,239 0,65 -16,94 -98,175 -69,68 -71,105 -9,193 213,309 218,318 198,406 -17,74 -56,126 -200,265 -180,174 -186,201 -78,388 102,178 102,231 -3,346 -66,73 -75,94 -68,167 10,98 96,230 272,417 84,90 116,130 116,148 0,16 -17,44 -48,77 -72,77 -82,96 -82,150 0,91 32,134 185,249 182,136 221,198 213,335 -5,85 -18,117 -79,199 -75,99 -62,147 58,220 56,34 143,60 278,84 162,28 219,52 246,103 7,12 1,49 -21,127 -46,168 -39,230 37,311 64,68 221,144 358,173 39,8 110,6 147,-4 z M 1855,8710 c -49,-24 -85,-64 -85,-93 0,-12 6,-44 13,-72 13,-49 12,-85 -1,-85 -4,0 -15,33 -25,74 -18,73 -16,116 7,145 20,26 71,51 101,51 l 30,-1 z m 2621,-164 c 94,-44 128,-134 100,-261 -49,-214 -55,-253 -50,-285 12,-67 48,-100 124,-114 20,-3 108,5 204,19 93,14 185,25 204,25 91,0 175,-56 188,-127 11,-61 -10,-132 -90,-300 -101,-211 -116,-286 -63,-315 14,-7 74,-10 167,-9 170,2 229,-11 277,-61 36,-37 63,-94 63,-132 0,-48 -32,-122 -111,-252 -43,-73 -79,-141 -79,-153 0,-28 19,-36 140,-56 162,-27 244,-63 296,-131 25,-32 29,-47 29,-98 0,-76 -27,-135 -125,-266 -89,-120 -115,-172 -115,-230 0,-61 20,-88 122,-168 169,-131 188,-148 220,-196 88,-130 63,-229 -119,-470 -108,-143 -127,-182 -128,-257 0,-86 38,-134 191,-242 209,-147 218,-254 49,-587 -142,-281 -135,-341 60,-545 135,-141 164,-195 158,-292 -5,-94 -36,-152 -127,-244 -101,-100 -312,-239 -364,-239 -22,0 61,75 191,172 178,134 242,219 242,325 0,71 -30,119 -152,249 -204,217 -213,297 -67,588 142,281 153,374 53,467 -22,20 -70,58 -109,85 -144,100 -192,175 -183,282 7,76 37,132 143,272 48,63 103,146 121,185 75,153 42,212 -226,415 -95,72 -130,125 -130,199 0,73 27,128 125,261 43,58 86,123 96,145 23,49 24,116 4,155 -23,45 -119,86 -260,111 -132,23 -171,38 -187,74 -14,32 -7,56 48,150 77,130 131,238 137,271 9,48 -28,114 -78,139 -35,18 -57,20 -194,18 -174,-3 -208,6 -241,59 -40,67 -27,124 83,353 73,152 81,176 82,228 0,53 -3,61 -30,83 -43,34 -100,39 -233,19 -175,-27 -294,-31 -348,-10 -107,41 -129,142 -75,349 48,185 38,257 -44,304 -54,31 -157,27 -230,-8 -98,-46 -105,-49 -105,-39 0,5 20,24 45,42 99,70 210,86 301,43 z M 2776,8285 c 18,-14 18,-14 -11,-15 -42,0 -132,-54 -155,-93 -13,-21 -20,-50 -20,-85 0,-99 -36,-143 -153,-188 -58,-23 -137,-88 -137,-114 0,-10 11,-31 24,-47 53,-64 57,-94 22,-168 -25,-55 -127,-155 -197,-194 -64,-36 -45,-9 51,74 86,74 140,149 140,196 0,9 -16,36 -35,60 -71,89 -38,148 128,229 106,52 127,79 127,168 0,29 7,66 15,82 23,44 118,105 171,109 5,1 19,-6 30,-14 z m 1125,-17 c 7,-14 10,-51 6,-105 -4,-75 -3,-85 15,-97 11,-8 30,-12 42,-10 59,12 123,8 149,-9 63,-41 77,-101 68,-292 -6,-111 -7,-118 -21,-95 -11,19 -13,55 -11,152 3,133 -4,163 -46,200 -16,15 -35,17 -106,15 -124,-3 -129,5 -112,160 6,54 5,77 -5,88 -8,10 -9,15 -2,15 6,0 17,-10 23,-22 z M 2374,7178 c -15,-29 -52,-95 -83,-147 l -56,-95 -9,32 c -7,27 -4,44 22,100 47,104 47,126 0,37 l -43,-80 -3,50 c -3,48 -2,52 39,88 36,32 106,64 147,66 8,1 3,-17 -14,-51 z m 2086,-323 25,-14 -37,-1 c -36,0 -47,8 -31,23 9,9 14,8 43,-8 z m -2175,-96 c 7,-7 1,-8 -20,-3 -46,11 -67,26 -25,19 19,-3 39,-10 45,-16 z m -60,-29 20,-9 -20,1 c -11,0 -31,4 -45,8 l -25,8 h 25 c 14,0 34,-3 45,-8 z m -110,-40 c -3,-5 -15,-10 -26,-10 -11,0 -17,5 -14,10 3,6 15,10 26,10 11,0 17,-4 14,-10 z m 418,-346 c -38,-38 -20,-41 35,-5 27,17 55,31 63,31 8,0 -9,-13 -37,-30 -28,-16 -54,-35 -57,-43 -5,-13 -12,-13 -51,1 l -45,16 42,28 c 56,37 86,38 50,2 z m 2641,-965 c 52,-45 64,-66 76,-127 14,-78 -2,-138 -79,-302 -86,-180 -106,-240 -106,-312 v -57 l 82,-84 c 57,-58 92,-104 113,-148 42,-89 40,-146 -11,-345 -38,-151 -40,-165 -36,-279 3,-104 7,-129 31,-188 16,-37 26,-71 22,-74 -12,-13 -94,85 -110,133 -39,111 -31,232 25,437 42,152 44,233 5,305 -16,28 -60,82 -99,118 -77,74 -97,111 -97,182 0,77 26,155 107,326 65,135 78,170 81,222 6,94 -16,126 -130,193 -56,33 -63,40 -61,66 4,55 9,56 80,10 37,-23 85,-58 107,-76 z m 276,-2097 c -16,-16 -32,-45 -35,-64 -7,-36 -3,-47 55,-148 22,-38 26,-103 10,-146 -12,-31 -137,-201 -165,-224 -17,-14 -17,-14 0,20 9,19 44,72 77,118 90,125 94,164 27,271 -41,63 -40,118 2,166 17,19 37,35 44,35 8,0 1,-13 -15,-28 z"
           id="path2886" /><path
           d="m 3238,8108 c -12,-18 -55,-74 -94,-125 -62,-78 -144,-205 -183,-280 -25,-50 -1,-18 53,67 31,49 98,144 147,212 90,121 114,158 105,158 -3,0 -15,-15 -28,-32 z"
           id="path2888" /><path
           d="m 3288,8038 c -100,-128 -241,-338 -226,-338 3,0 27,33 54,73 47,70 217,309 237,335 5,6 7,12 5,12 -3,0 -34,-37 -70,-82 z"
           id="path2890" /><path
           d="m 3394,7983 c -103,-129 -191,-253 -180,-253 5,0 125,159 194,258 32,44 22,41 -14,-5 z"
           id="path2892" /><path
           d="m 3488,7863 c -25,-32 -77,-97 -116,-145 -70,-86 -122,-166 -70,-107 48,55 202,249 220,278 31,48 16,37 -34,-26 z"
           id="path2894" /><path
           d="m 3402,7848 c -74,-101 -121,-174 -106,-165 13,7 157,217 150,217 -3,0 -23,-24 -44,-52 z"
           id="path2896" /><path
           d="m 3533,7743 c -62,-96 -100,-161 -86,-148 18,17 144,217 140,221 -2,3 -27,-30 -54,-73 z"
           id="path2898" /><path
           d="m 3658,7733 c -19,-32 -42,-76 -52,-98 -10,-22 -21,-44 -24,-49 -3,-5 0,-6 7,-2 12,8 115,206 107,206 -3,0 -20,-26 -38,-57 z"
           id="path2900" /><path
           d="m 3565,7711 c -42,-65 -70,-121 -60,-121 2,0 23,33 46,73 23,39 49,82 57,95 8,12 11,22 8,22 -4,0 -27,-31 -51,-69 z"
           id="path2902" /><path
           d="m 3712,7686 c -40,-80 -57,-133 -29,-91 21,32 80,166 75,171 -3,2 -23,-34 -46,-80 z"
           id="path2904" /><path
           d="m 4214,7358 c -42,-66 -96,-187 -91,-206 2,-10 31,40 65,112 64,133 74,171 26,94 z"
           id="path2906" /><path
           d="m 4022,7323 c -28,-78 -37,-121 -22,-107 14,14 60,164 50,164 -4,0 -17,-26 -28,-57 z"
           id="path2908" /><path
           d="m 4267,7294 c -49,-75 -85,-151 -92,-194 -5,-27 5,-13 40,55 26,50 60,114 76,143 39,69 23,67 -24,-4 z"
           id="path2910" /><path
           d="m 4317,7210 c -24,-52 -47,-108 -51,-125 -3,-16 19,21 49,84 31,63 54,120 51,125 -2,6 -24,-32 -49,-84 z"
           id="path2912" /><path
           d="m 2461,7136 c -69,-113 -146,-256 -137,-256 3,0 17,21 32,48 15,26 53,90 84,142 62,103 103,180 96,180 -2,0 -36,-51 -75,-114 z"
           id="path2914" /><path
           d="m 2538,7123 c -30,-45 -60,-103 -54,-103 2,0 17,21 32,48 15,26 34,57 42,70 8,12 12,22 9,22 -2,0 -16,-17 -29,-37 z"
           id="path2916" /><path
           d="m 4291,7021 c -17,-33 -31,-66 -31,-73 1,-7 17,18 36,56 19,37 33,70 30,73 -2,3 -18,-22 -35,-56 z"
           id="path2918" /><path
           d="m 4436,6709 c -26,-50 -46,-93 -43,-95 5,-6 49,69 78,135 32,73 17,55 -35,-40 z"
           id="path2920" /><path
           d="m 4542,6702 c -30,-65 -50,-122 -39,-112 8,8 77,173 74,177 -2,1 -17,-28 -35,-65 z"
           id="path2922" /><path
           d="m 4056,6438 c -27,-37 -18,-57 9,-23 14,17 25,33 25,38 0,15 -19,6 -34,-15 z"
           id="path2924" /><path
           d="m 4679,6395 c -17,-36 -29,-70 -27,-77 2,-6 18,23 35,65 18,42 29,77 27,77 -3,0 -19,-29 -35,-65 z"
           id="path2926" /><path
           d="m 4568,6363 c -15,-16 -42,-54 -60,-85 -18,-32 -72,-116 -120,-187 -86,-126 -102,-161 -74,-161 13,0 73,86 216,310 84,132 102,190 38,123 z"
           id="path2928" /><path
           d="m 2662,6324 c -12,-8 -27,-24 -33,-35 -10,-20 -10,-20 16,-3 14,9 30,25 36,35 12,23 10,23 -19,3 z"
           id="path2930" /><path
           d="m 2630,6241 c 0,-37 176,-179 196,-158 18,18 -85,127 -154,163 -36,18 -42,18 -42,-5 z"
           id="path2932" /><path
           d="m 1865,6220 c 16,-31 48,-76 161,-224 33,-44 74,-84 74,-72 0,31 -157,244 -225,306 l -28,25 z"
           id="path2934" /><path
           d="m 4692,6122 c -22,-50 -41,-143 -27,-130 8,8 56,171 51,176 -2,1 -13,-19 -24,-46 z"
           id="path2936" /><path
           d="m 4791,6069 c -39,-84 -64,-160 -42,-129 20,28 93,202 87,207 -3,4 -24,-32 -45,-78 z"
           id="path2938" /><path
           d="m 4839,5903 c -62,-131 -93,-212 -85,-220 3,-3 15,17 27,44 69,151 83,184 105,241 13,34 21,62 19,62 -3,0 -33,-57 -66,-127 z"
           id="path2940" /><path
           d="m 4045,5811 c -110,-38 -154,-58 -189,-85 -24,-20 -11,-38 22,-30 50,11 207,66 267,93 149,68 76,84 -100,22 z"
           id="path2942" /><path
           d="m 4891,5798 c -31,-72 -92,-211 -112,-255 -45,-99 -48,-123 -6,-49 43,77 153,346 142,346 -3,0 -14,-19 -24,-42 z"
           id="path2944" /><path
           d="m 2200,5809 c 0,-38 341,-100 388,-70 11,6 11,10 0,18 -21,17 -45,22 -213,43 -189,23 -175,23 -175,9 z"
           id="path2946" /><path
           d="m 4481,5586 c -23,-42 -46,-88 -51,-103 l -10,-28 21,25 c 26,30 94,169 86,176 -2,3 -23,-29 -46,-70 z"
           id="path2948" /><path
           d="m 4395,5587 c -73,-114 -101,-167 -89,-167 6,0 107,159 122,194 21,49 8,38 -33,-27 z"
           id="path2950" /><path
           d="m 4263,5508 c -50,-79 -76,-129 -70,-134 4,-4 79,112 107,164 25,50 0,30 -37,-30 z"
           id="path2952" /><path
           d="m 4196,5503 c -59,-97 -96,-166 -92,-171 5,-5 82,111 110,166 27,53 14,57 -18,5 z"
           id="path2954" /><path
           d="m 2088,5473 c -40,-43 -64,-83 -49,-83 10,0 42,39 76,93 24,37 16,34 -27,-10 z"
           id="path2956" /><path
           d="m 2015,5463 c -27,-40 -34,-71 -9,-38 20,26 46,75 40,75 -3,0 -17,-17 -31,-37 z"
           id="path2958" /><path
           d="m 4102,5463 c -21,-31 -62,-108 -62,-119 0,-16 30,21 51,64 44,88 47,106 11,55 z"
           id="path2960" /><path
           d="m 2268,5448 c -44,-58 -62,-102 -32,-78 19,17 68,99 62,106 -3,2 -16,-10 -30,-28 z"
           id="path2962" /><path
           d="m 2183,5432 c -29,-36 -63,-94 -63,-108 0,-3 7,-1 15,6 18,15 88,131 82,136 -2,2 -17,-13 -34,-34 z"
           id="path2964" /><path
           d="m 2969,5411 c -72,-53 -88,-71 -66,-71 13,0 149,119 137,119 -3,1 -35,-21 -71,-48 z"
           id="path2966" /><path
           d="m 3128,5435 c -37,-25 -56,-45 -41,-45 10,0 93,59 93,66 0,9 -16,2 -52,-21 z"
           id="path2968" /><path
           d="m 2096,5409 c -36,-42 -44,-59 -28,-59 11,0 76,90 69,96 -2,3 -21,-14 -41,-37 z"
           id="path2970" /><path
           d="m 2894,5406 c -21,-19 -36,-37 -32,-41 4,-4 26,11 50,34 52,49 37,55 -18,7 z"
           id="path2972" /><path
           d="m 3026,5400 c -26,-22 -54,-40 -62,-40 -7,0 -26,-11 -41,-25 l -28,-25 28,10 c 16,5 71,10 123,10 107,0 117,12 25,31 l -59,13 39,28 c 21,15 39,30 39,33 0,12 -19,2 -64,-35 z"
           id="path2974" /><path
           d="m 3167,5414 c -38,-26 -46,-45 -10,-26 18,10 60,52 52,52 -2,0 -22,-12 -42,-26 z"
           id="path2976" /><path
           d="m 3244,5419 c -19,-22 -19,-22 3,-10 24,12 39,31 25,31 -5,0 -17,-10 -28,-21 z"
           id="path2978" /><path
           d="m 2860,5193 c 0,-19 40,-72 60,-78 38,-12 44,10 13,43 -27,30 -73,52 -73,35 z"
           id="path2980" /><path
           d="m 3167,5162 c -33,-36 -12,-64 28,-38 30,20 34,56 7,56 -11,0 -26,-8 -35,-18 z"
           id="path2982" /><path
           d="m 4571,4713 c -1,-6 -4,-20 -7,-30 -5,-17 -5,-17 6,0 6,10 9,23 6,30 -3,9 -5,9 -5,0 z"
           id="path2984" /><path
           d="m 4511,4539 c -68,-201 -97,-277 -232,-617 -123,-308 -157,-401 -103,-282 41,89 242,583 281,688 48,133 104,314 100,326 -2,5 -22,-46 -46,-115 z"
           id="path2986" /><path
           d="m 2730,4627 c 0,-11 21,-23 66,-37 78,-24 114,-26 114,-6 0,18 -70,46 -132,53 -40,5 -48,3 -48,-10 z"
           id="path2988" /><path
           d="m 3473,4608 c -21,-10 -33,-48 -15,-48 16,0 52,32 52,46 0,16 -7,17 -37,2 z"
           id="path2990" /><path
           d="m 3020,4593 c -25,-3 -49,-9 -55,-14 -14,-14 21,-39 54,-39 51,0 57,-17 14,-38 -40,-21 -70,-49 -61,-57 2,-3 34,16 71,41 36,25 73,44 82,42 12,-2 -2,-16 -41,-43 -32,-22 -60,-47 -62,-55 -6,-18 31,5 100,62 31,26 55,38 70,36 20,-3 15,-8 -31,-41 -29,-21 -51,-41 -48,-44 3,-2 30,14 61,36 73,54 103,55 45,0 -48,-44 -26,-38 46,12 22,15 59,33 83,39 144,37 -94,83 -328,63 z"
           id="path2992" /><path
           d="m 3467,4532 c -30,-31 -35,-44 -14,-36 17,6 61,64 49,64 -4,0 -20,-13 -35,-28 z"
           id="path2994" /><path
           d="m 2904,4529 c -19,-22 -19,-22 3,-10 24,12 39,31 25,31 -5,0 -17,-10 -28,-21 z"
           id="path2996" /><path
           d="m 4571,4543 c -1,-6 -4,-20 -7,-30 -5,-17 -5,-17 6,0 6,10 9,23 6,30 -3,9 -5,9 -5,0 z"
           id="path2998" /><path
           d="m 3345,4494 c -33,-24 -63,-51 -68,-59 -6,-12 -32,-15 -127,-15 -119,0 -156,-11 -105,-30 14,-6 55,-10 90,-10 73,0 177,21 150,30 -12,4 -4,14 38,43 55,38 108,88 91,86 -5,0 -36,-20 -69,-45 z"
           id="path3000" /><path
           d="m 2954,4506 c -16,-13 -26,-27 -23,-31 4,-3 20,5 35,19 16,13 26,27 23,31 -4,3 -20,-5 -35,-19 z"
           id="path3002" /><path
           d="m 4476,4257 c -89,-262 -94,-278 -68,-222 24,51 156,444 151,450 -2,2 -40,-101 -83,-228 z"
           id="path3004" /><path
           d="m 4205,4346 c -92,-169 -246,-510 -270,-596 -12,-47 13,1 61,115 26,61 69,157 97,215 27,58 65,139 84,180 20,41 46,96 59,123 40,79 18,53 -31,-37 z"
           id="path3006" /><path
           d="m 2461,4183 c -13,-45 -26,-153 -19,-153 8,0 42,180 35,186 -3,3 -10,-11 -16,-33 z"
           id="path3008" /><path
           d="m 4040,4143 c -31,-76 -55,-131 -158,-358 -46,-104 -65,-155 -56,-155 2,0 13,21 25,48 12,26 52,113 90,194 71,154 143,337 136,345 -3,2 -19,-31 -37,-74 z"
           id="path3010" /><path
           d="m 2492,4053 c -27,-61 -58,-171 -32,-118 21,45 70,178 67,182 -2,2 -18,-27 -35,-64 z"
           id="path3012" /><path
           d="m 2571,4079 c -5,-13 -20,-51 -34,-84 -31,-75 -60,-172 -55,-187 2,-6 28,55 56,137 29,81 50,150 47,153 -2,3 -9,-6 -14,-19 z"
           id="path3014" /><path
           d="m 3876,3997 c -47,-76 -122,-229 -137,-280 -4,-16 -7,-28 -5,-26 7,7 193,379 190,379 -1,0 -23,-33 -48,-73 z"
           id="path3016" /><path
           d="m 4381,3983 c -1,-6 -4,-20 -7,-30 -5,-17 -5,-17 6,0 6,10 9,23 6,30 -3,9 -5,9 -5,0 z"
           id="path3018" /><path
           d="m 2595,3931 c -31,-63 -85,-221 -85,-252 0,-34 10,-17 26,45 8,30 32,99 54,153 43,107 46,133 5,54 z"
           id="path3020" /><path
           d="m 2666,3927 c -39,-51 -95,-179 -117,-268 -31,-122 -17,-115 24,12 20,63 56,153 80,202 23,48 42,87 40,87 -1,0 -13,-15 -27,-33 z"
           id="path3022" /><path
           d="m 3742,3898 c -58,-95 -140,-283 -129,-295 2,-1 18,34 36,80 18,45 53,119 77,165 44,82 53,110 16,50 z"
           id="path3024" /><path
           d="m 2722,3838 c -31,-40 -79,-165 -97,-258 -12,-59 2,-30 40,85 20,60 46,126 56,147 20,38 20,49 1,26 z"
           id="path3026" /><path
           d="m 2767,3681 c -32,-70 -61,-161 -53,-168 1,-2 23,52 49,119 25,68 45,124 43,125 -2,2 -19,-32 -39,-76 z"
           id="path3028" /><path
           d="m 2843,3653 c -44,-113 -84,-247 -69,-232 9,8 107,302 102,306 -2,2 -17,-32 -33,-74 z"
           id="path3030" /><path
           d="m 3491,3638 c -21,-48 -36,-96 -28,-88 8,8 55,130 50,130 -2,0 -12,-19 -22,-42 z"
           id="path3032" /><path
           d="m 2917,3583 c -22,-55 -47,-144 -46,-162 0,-9 16,31 34,89 34,105 40,143 12,73 z"
           id="path3034" /><path
           d="m 3690,3363 c -67,-131 -135,-269 -152,-307 -31,-70 -67,-173 -68,-191 0,-15 63,82 108,165 196,367 283,570 243,570 -5,0 -64,-107 -131,-237 z"
           id="path3036" /><path
           d="m 3033,3550 c -6,-19 -8,-39 -5,-45 7,-12 25,53 19,68 -3,7 -9,-4 -14,-23 z"
           id="path3038" /><path
           d="m 3172,3495 c 0,-16 2,-22 5,-12 2,9 2,23 0,30 -3,6 -5,-1 -5,-18 z"
           id="path3040" /><path
           d="m 2975,3182 c 5,-70 29,-151 41,-139 7,6 -24,161 -37,192 -6,13 -8,-5 -4,-53 z"
           id="path3042" /></g></g></g></svg>
