<?xml version="1.0" encoding="UTF-8" standalone="no"?>
<!-- Created with Inkscape (http://www.inkscape.org/) -->

<svg
   width="196.37538mm"
   height="29.311096mm"
   viewBox="0 0 196.37538 29.311096"
   version="1.1"
   id="svg5"
   xml:space="preserve"
   inkscape:version="1.2.1 (9c6d41e410, 2022-07-14)"
   sodipodi:docname="Affiche_Subsonic.svg"
   inkscape:export-filename="Affiche_Subsonic_yeuxblanc.png"
   inkscape:export-xdpi="96"
   inkscape:export-ydpi="96"
   xmlns:inkscape="http://www.inkscape.org/namespaces/inkscape"
   xmlns:sodipodi="http://sodipodi.sourceforge.net/DTD/sodipodi-0.dtd"
   xmlns="http://www.w3.org/2000/svg"
   xmlns:svg="http://www.w3.org/2000/svg"><sodipodi:namedview
     id="namedview7"
     pagecolor="#ffffff"
     bordercolor="#000000"
     borderopacity="0.25"
     inkscape:showpageshadow="2"
     inkscape:pageopacity="0.0"
     inkscape:pagecheckerboard="0"
     inkscape:deskcolor="#d1d1d1"
     inkscape:document-units="mm"
     showgrid="false"
     inkscape:zoom="0.69041106"
     inkscape:cx="346.17059"
     inkscape:cy="636.57729"
     inkscape:window-width="1920"
     inkscape:window-height="991"
     inkscape:window-x="-9"
     inkscape:window-y="-9"
     inkscape:window-maximized="1"
     inkscape:current-layer="g26225-7"
     showguides="true" /><defs
     id="defs2"><style
       id="style2">.cls-1{fill:#273184;}.cls-2{fill:#c7371b;}</style></defs><g
     inkscape:groupmode="layer"
     id="layer2"
     inkscape:label="Calque 2"
     transform="translate(-14.67078,-391.91622)"><g
       id="g16459-7-5-7"
       inkscape:label="subsonic"
       transform="matrix(3.3073283,0,0,3.3073283,-642.90615,111.66701)"
       style="display:inline"
       inkscape:export-filename="subsonic typo.svg"
       inkscape:export-xdpi="96"
       inkscape:export-ydpi="96"><path
         style="display:inline;opacity:1;fill:#ffffff;fill-opacity:1;stroke:#ffffff;stroke-width:0.174993;stroke-linecap:square;stroke-linejoin:miter;stroke-miterlimit:6.1;stroke-dasharray:none;stroke-opacity:1"
         d="m 207.70452,86.944286 -3.7215,0.438099 -2.10981,0.647688 -0.86562,0.555391 0.64602,0.253511 -0.25295,0.325227 1.03017,0.327447 -0.11888,0.06005 2.80085,0.869486 -3.68591,0.578199 -2.29884,0.725519 0.53871,0.154 0.006,0.229601 4.03781,-0.689945 -0.62766,0.435309 4.3686,-0.826156 -0.71103,-0.304098 0.73326,-0.313001 -1.17636,-0.521469 -0.14342,0.08116 -2.96655,-1.110767 0.32133,-0.320226 3.0755,-0.691606 0.26295,-0.461992 z"
         id="path16266-4-2-6"
         inkscape:label="s" /><path
         style="opacity:1;fill:#ffffff;fill-opacity:1;stroke:#ffffff;stroke-width:0.141172;stroke-linecap:square;stroke-linejoin:miter;stroke-miterlimit:6.1;stroke-dasharray:none;stroke-opacity:1"
         d="m 209.468,88.088974 -1.0625,0.680982 0.0832,2.243309 0.22727,-0.597601 -0.0174,0.469207 1.21917,0.67644 3.09057,-0.06209 0.74741,-0.449273 0.65122,-1.310684 -0.15742,0.102817 1.07888,-2.414872 -0.28928,0.258031 -0.60055,0.08559 -0.87743,1.790956 -0.1278,-0.274994 -0.82243,1.491601 -2.11369,0.16258 -0.70668,-1.101856 -0.10785,0.377085 z"
         id="path16352-8-4-5"
         inkscape:label="u" /><path
         style="opacity:1;fill:#ffffff;fill-opacity:1;stroke:#ffffff;stroke-width:0.174993;stroke-linecap:square;stroke-linejoin:miter;stroke-miterlimit:6.1;stroke-dasharray:none;stroke-opacity:1"
         d="m 215.33602,86.354014 4.73357,0.406222 4.85253,0.672168 -0.16274,0.283909 0.84659,0.421629 -3.22663,0.569471 4.26477,0.949848 -0.61426,0.240434 0.40356,0.13372 -0.44703,0.317836 -8.37763,0.305785 -0.54575,0.514229 -0.2918,-2.638849 0.28693,-1.213544 0.47901,0.85123 0.10843,1.395065 0.13827,-0.04217 -0.0126,0.850148 5.45794,-0.389226 1.17218,-0.244542 -4.82043,-0.76509 -1.102,-0.26809 3.12293,-0.537814 -0.48403,-0.163878 0.87497,-0.01593 0.56356,-0.134252 -5.62797,-0.835934 -0.28187,0.116292 z"
         id="path16354-0-2-5"
         sodipodi:nodetypes="ccccccccccccccccccccccccccccc"
         inkscape:label="b" /><path
         style="fill:#ffffff;fill-opacity:1;stroke:#ffffff;stroke-width:0.196156;stroke-linecap:square;stroke-linejoin:miter;stroke-miterlimit:6.1;stroke-dasharray:none;stroke-opacity:1"
         d="m 233.92603,86.139739 -3.29004,0.825725 -2.37759,0.6835 -0.98128,0.605062 0.71891,0.297095 -0.29002,0.35942 1.14799,0.387683 -0.13457,0.06485 3.12158,1.030767 -4.14261,0.573851 -2.59099,0.766941 0.60068,0.183421 0.002,0.257445 4.53929,-0.69208 -0.7122,0.475271 4.91272,-0.838251 -0.7908,-0.355093 0.82812,-0.336074 -1.30796,-0.608053 -0.16238,0.08807 -3.30241,-1.30451 0.36657,-0.35243 2.57111,-1.122817 0.30398,-0.512497 z"
         id="path16266-2-2-0-3"
         inkscape:label="s"
         sodipodi:nodetypes="ccccccccccccccccccccccccc" /><g
         id="g16388-1-4-0"
         inkscape:label="o"
         transform="matrix(0.36439488,-0.13328148,0.13328148,0.36439488,184.66573,47.489809)"><path
           style="opacity:1;fill:none;fill-opacity:1;stroke:#ffffff;stroke-width:2;stroke-linecap:square;stroke-linejoin:miter;stroke-miterlimit:6.1;stroke-dasharray:none;stroke-opacity:1"
           d="m 92.017191,138.10239 -3.324627,2.49347 -3.232277,6.69543 -0.646456,5.07929 0.784981,3.3708 1.708489,0.41558 3.463155,-3.97108 2.49347,-7.01866 0.669683,-5.57418 z"
           id="path16379-7-2-9"
           sodipodi:nodetypes="cccccccccc" /><path
           style="opacity:1;fill:none;fill-opacity:1;stroke:#ffffff;stroke-width:2;stroke-linecap:square;stroke-linejoin:miter;stroke-miterlimit:6.1;stroke-dasharray:none;stroke-opacity:1"
           d="m 86.291444,154.9564 1.246736,0.2771 2.539645,-3.60168 2.401119,-6.51072 0.855405,-3.65529 -1.178633,0.83859 0.277052,-2.40112 -0.554106,-0.96968 -2.493469,2.35494 -3.09375,6.41837 -0.877331,4.52519 z"
           id="path16381-9-9-3"
           sodipodi:nodetypes="cccccccccccc" /></g><path
         style="opacity:1;fill:#ffffff;fill-opacity:1;stroke:#ffffff;stroke-width:0.298954;stroke-linecap:square;stroke-linejoin:miter;stroke-miterlimit:6.1;stroke-dasharray:none;stroke-opacity:1"
         d="m 239.53379,91.757123 0.34943,-2.317196 0.73913,-3.089084 1.59998,4.171623 0.54246,-2.089001 1.06679,-2.440738 -0.008,0.591907 0.90435,-1.084571 -0.65089,1.756434 -0.80591,2.717287 -0.0724,2.851625 0.24798,0.557911 -0.39263,-0.09299 -2.2937,-4.101773 -0.3616,0.831691 -0.093,0.99707 z"
         id="path16390-6-7-4"
         sodipodi:nodetypes="ccccccccccccccccc"
         inkscape:label="n" /><path
         style="opacity:1;fill:#ffffff;fill-opacity:1;stroke:#ffffff;stroke-width:0.277077;stroke-linecap:square;stroke-linejoin:miter;stroke-miterlimit:6.1;stroke-dasharray:none;stroke-opacity:1"
         d="m 247.74963,86.412914 -0.1187,0.874846 0.0264,4.645957 -1.43388,-0.03119 0.15204,-2.640684 -0.0814,-1.167202 0.24093,0.425781 -0.0202,-0.807765 -0.24897,-1.161665 z"
         id="path16392-7-3-7"
         sodipodi:nodetypes="cccccccccc"
         inkscape:label="path16392i" /><path
         style="opacity:1;fill:#ffffff;fill-opacity:1;stroke:#ffffff;stroke-width:0.277179;stroke-linecap:square;stroke-linejoin:miter;stroke-miterlimit:6.1;stroke-dasharray:none;stroke-opacity:1"
         d="m 254.49183,86.475814 -1.58474,-0.03072 -1.5274,0.882405 -1.66918,2.551524 -0.40302,0.681162 0.44973,-0.349834 -0.35192,0.733208 0.58194,0.359413 5.50041,0.582923 1.68809,-0.944953 -0.44691,0.04019 0.97588,-0.873293 -2.22494,0.51659 -2.32724,0.04241 -2.0188,-0.221536 -0.43965,-0.548425 1.40149,-2.07726 0.92282,-0.719025 z"
         id="path16394-9-1-4"
         sodipodi:nodetypes="ccccccccccccccccccc"
         inkscape:label="c" /></g></g></svg>
