<?xml version="1.0" encoding="UTF-8" standalone="no"?>
<!-- Created with Inkscape (http://www.inkscape.org/) -->

<svg
   width="1003.7602mm"
   height="1290.549mm"
   viewBox="0 0 1003.7602 1290.549"
   version="1.1"
   id="svg5"
   xml:space="preserve"
   inkscape:version="1.2.1 (9c6d41e410, 2022-07-14)"
   sodipodi:docname="post djs.svg"
   xmlns:inkscape="http://www.inkscape.org/namespaces/inkscape"
   xmlns:sodipodi="http://sodipodi.sourceforge.net/DTD/sodipodi-0.dtd"
   xmlns="http://www.w3.org/2000/svg"
   xmlns:svg="http://www.w3.org/2000/svg"><sodipodi:namedview
     id="namedview7"
     pagecolor="#ffffff"
     bordercolor="#000000"
     borderopacity="0.25"
     inkscape:showpageshadow="2"
     inkscape:pageopacity="0.0"
     inkscape:pagecheckerboard="0"
     inkscape:deskcolor="#d1d1d1"
     inkscape:document-units="mm"
     showgrid="false"
     inkscape:zoom="0.16110414"
     inkscape:cx="4363.6372"
     inkscape:cy="-10213.89"
     inkscape:window-width="1920"
     inkscape:window-height="991"
     inkscape:window-x="-9"
     inkscape:window-y="-9"
     inkscape:window-maximized="1"
     inkscape:current-layer="layer5" /><defs
     id="defs2"><style
       id="style2">.cls-1{fill:#273184;}.cls-2{fill:#c7371b;}</style><style
       id="style2-8">.cls-1{fill:#273184;}.cls-2{fill:#c7371b;}</style></defs><g
     inkscape:label="Frénezie"
     inkscape:groupmode="layer"
     id="layer1"
     transform="translate(-83.993073,-68.893133)"><g
       id="g2829"
       inkscape:label="frénesie"
       transform="matrix(1.0574884,0,0,1.0574884,1227.6502,1833.3428)"><path
         style="fill:#ffffff;fill-opacity:1;stroke-width:9.98299;stroke-linecap:square;stroke-miterlimit:6.1;paint-order:markers fill stroke"
         d="m -1059.9869,-458.05987 211.66662,-138.90624 -119.06249,-44.64844 -54.57033,-132.29166 -44.6484,-57.87761 36.3802,-105.83333 -49.6094,4.96094 -1.6536,-82.68229 41.3411,-39.6875 v -244.7396 l 47.95576,-198.4375 203.39841,-152.1354 256.31511,-18.1901 148.82811,52.9167 100.87241,137.2525 38.03385,185.2084 76.0677,61.1849 -54.57031,52.9167 21.4974,117.4088 24.80468,-6.6146 24.80469,62.8386 -46.30208,69.4531 59.53125,-1.65365 6.61458,56.22396 -76.06771,82.68229 42.99479,34.72656 -89.29687,26.45833 -21.4974,69.45313 -66.14583,62.83854 188.51563,157.09635 z"
         id="path1731"
         transform="translate(-2.5431315e-5,-2.5431315e-5)"
         sodipodi:nodetypes="ccccccccccccccccccccccccccccccc" /><g
         transform="matrix(0.15957172,0,0,-0.15957172,-1147.6788,-118.60714)"
         fill="#000000"
         stroke="none"
         id="g1474"><path
           d="m 3075,9540 c -233,-21 -423,-69 -693,-176 -288,-114 -461,-212 -726,-408 -246,-183 -415,-382 -552,-653 -107,-210 -190,-541 -239,-948 -20,-160 -31,-470 -20,-550 8,-58 8,-59 16,-25 4,19 20,157 34,305 27,286 78,625 120,799 79,326 219,588 446,831 34,36 64,64 66,62 2,-2 -38,-76 -88,-163 -97,-170 -223,-414 -216,-420 2,-2 29,44 60,103 141,267 267,495 285,517 25,27 188,148 332,245 264,178 726,366 1020,414 139,23 346,40 439,36 45,-2 81,-3 81,-1 0,2 -17,10 -37,19 -46,19 -192,25 -328,13 z"
           id="path1194" /><path
           d="m 4256,9381 c -5,-7 5,-16 24,-23 121,-42 253,-140 435,-323 193,-194 332,-396 438,-638 68,-156 151,-414 191,-595 20,-89 52,-235 72,-324 61,-278 117,-409 215,-509 58,-61 100,-77 159,-65 29,5 114,55 107,63 -2,2 -33,-1 -68,-6 -39,-5 -74,-5 -89,1 -36,13 -97,76 -130,133 -67,117 -92,205 -201,705 -36,166 -119,431 -185,588 -138,331 -399,668 -677,873 -127,95 -271,154 -291,120 z"
           id="path1196" /><path
           d="m 3524,9278 c -57,-65 -57,-80 0,-18 20,22 33,40 28,40 -5,0 -17,-10 -28,-22 z"
           id="path1198" /><path
           d="m 2367,9254 c -10,-20 -67,-114 -126,-208 -59,-94 -118,-189 -130,-211 l -23,-40 27,30 c 83,94 283,426 273,455 -2,6 -12,-5 -21,-26 z"
           id="path1200" /><path
           d="m 3692,9247 c -45,-50 -142,-179 -162,-217 -27,-52 20,2 88,99 37,53 80,111 95,128 43,49 26,40 -21,-10 z"
           id="path1202" /><path
           d="m 3828,9201 c -58,-72 -116,-161 -105,-161 2,0 24,28 47,63 24,34 63,88 87,120 65,85 44,69 -29,-22 z"
           id="path1204" /><path
           d="m 2075,9127 c -65,-68 -406,-527 -391,-527 9,0 149,178 283,359 64,86 132,173 152,194 19,20 31,37 26,37 -5,0 -36,-28 -70,-63 z"
           id="path1206" /><path
           d="m 4156,9118 c -51,-81 -99,-168 -94,-173 2,-3 28,37 58,88 29,50 60,102 68,115 8,12 11,22 8,22 -3,0 -21,-24 -40,-52 z"
           id="path1208" /><path
           d="m 2165,9103 c -10,-15 -53,-71 -95,-123 -100,-125 -218,-283 -259,-345 l -32,-50 39,43 c 92,98 380,487 369,498 -2,3 -12,-8 -22,-23 z"
           id="path1210" /><path
           d="m 3868,9018 c -20,-29 -55,-80 -79,-113 -24,-34 -33,-51 -20,-40 33,28 151,205 138,205 -2,0 -20,-24 -39,-52 z"
           id="path1212" /><path
           d="m 4522,8948 c -16,-21 -102,-184 -102,-194 1,-13 45,58 86,139 33,64 38,81 16,55 z"
           id="path1214" /><path
           d="m 4322,8873 c -57,-90 -113,-199 -143,-279 -42,-111 -10,-60 92,146 58,115 104,210 103,210 -1,0 -24,-35 -52,-77 z"
           id="path1216" /><path
           d="m 1567,8698 c -102,-144 -111,-158 -103,-158 2,0 24,28 48,63 122,172 159,227 154,227 -3,0 -47,-60 -99,-132 z"
           id="path1218" /><path
           d="m 4132,8780 c -41,-63 -122,-229 -122,-249 0,-9 36,54 80,138 44,85 78,156 77,158 -2,1 -17,-20 -35,-47 z"
           id="path1220" /><path
           d="m 4597,8685 c -24,-50 -20,-58 4,-12 11,22 19,41 17,43 -3,2 -12,-12 -21,-31 z"
           id="path1222" /><path
           d="m 4562,8601 c -6,-17 -9,-31 -6,-31 7,0 25,52 20,57 -2,2 -8,-10 -14,-26 z"
           id="path1224" /><path
           d="m 3835,8509 c -4,-6 -5,-12 -2,-15 2,-3 7,2 10,11 7,17 1,20 -8,4 z"
           id="path1226" /><path
           d="m 3816,8463 c -6,-14 -5,-15 5,-6 7,7 10,15 7,18 -3,3 -9,-2 -12,-12 z"
           id="path1228" /><path
           d="m 1424,8314 c -101,-157 -312,-584 -299,-604 3,-6 1,-10 -5,-10 -6,0 -9,-4 -6,-8 2,-4 -18,-70 -45,-146 -27,-76 -48,-143 -46,-149 1,-5 29,59 61,144 113,299 206,502 345,757 22,39 38,72 36,72 -3,0 -21,-25 -41,-56 z"
           id="path1230" /><path
           d="m 3373,7678 c 19,-37 22,-60 21,-158 0,-113 -1,-118 -53,-265 -54,-153 -132,-318 -219,-460 -26,-44 -62,-107 -80,-140 l -33,-60 56,60 c 70,75 180,239 234,347 89,181 151,385 151,497 0,103 -40,211 -82,219 -14,3 -13,-3 5,-40 z"
           id="path1232" /><path
           d="m 4425,7689 c -6,-16 67,-283 103,-377 12,-30 18,-61 15,-70 -4,-10 -2,-14 2,-10 5,5 27,-32 51,-81 51,-109 119,-215 176,-277 31,-34 37,-45 23,-41 -11,3 -54,13 -96,21 -91,20 -177,68 -248,140 l -51,51 14,85 c 8,47 17,99 21,115 6,29 6,29 -10,-4 -9,-19 -21,-63 -28,-98 -6,-35 -14,-63 -17,-63 -3,0 -18,19 -34,42 l -30,41 35,100 c 19,55 36,105 38,111 2,7 0,8 -7,1 -5,-5 -25,-49 -45,-98 l -34,-87 -38,62 c -42,72 -44,59 26,222 21,50 37,91 35,93 -2,2 -28,-47 -58,-109 l -55,-113 -46,95 c -25,52 -57,120 -71,151 -28,63 -56,94 -56,63 0,-11 11,-48 23,-84 l 23,-65 -82,-200 c -45,-110 -87,-201 -93,-203 -6,-2 -13,7 -16,20 -4,15 10,60 40,133 60,144 59,141 51,134 -4,-4 -31,-59 -60,-123 -59,-128 -55,-126 -99,-40 -15,30 -15,36 8,110 13,43 23,80 21,82 -5,4 -46,-104 -46,-118 0,-28 -21,-3 -39,45 -16,42 -18,61 -11,81 14,36 12,43 -4,15 -13,-24 -14,-23 -29,30 -8,30 -18,70 -22,89 -8,38 -23,62 -35,55 -10,-6 6,-106 31,-188 l 20,-68 -44,-117 c -61,-160 -104,-305 -78,-262 8,14 102,270 116,318 10,33 19,27 43,-29 l 21,-51 -39,-124 c -40,-125 -50,-175 -30,-144 6,8 26,66 46,129 19,62 39,110 43,105 5,-5 19,-28 31,-51 20,-36 22,-46 12,-68 -7,-14 -12,-34 -11,-43 0,-9 9,0 18,21 17,36 18,36 35,19 14,-17 15,-23 2,-53 -7,-19 -17,-50 -20,-69 -5,-30 -3,-28 19,19 14,30 27,57 30,59 2,2 21,-10 42,-26 21,-17 56,-39 77,-51 34,-17 37,-21 20,-27 -76,-28 -126,-50 -174,-76 l -55,-31 40,43 40,42 -35,-17 c -19,-10 -59,-34 -88,-53 -52,-35 -78,-37 -50,-5 43,51 32,56 -19,9 -45,-39 -121,-60 -109,-29 6,15 4,15 -16,-3 -13,-12 -35,-25 -50,-30 -27,-9 -118,-127 -236,-303 -53,-80 -59,-85 -138,-123 -95,-46 -190,-59 -287,-38 -50,10 -61,16 -80,48 -164,267 -177,282 -228,282 -18,0 -30,6 -33,18 -8,24 -86,100 -86,84 0,-7 7,-27 16,-45 l 17,-32 -37,33 c -20,17 -49,35 -64,39 -15,3 -45,14 -67,24 -46,21 -69,24 -59,8 4,-7 -1,-7 -16,1 -21,11 -18,15 62,98 46,48 101,114 123,147 119,181 184,407 169,585 -7,75 -23,131 -24,80 -1,-90 -24,-267 -42,-330 -49,-175 -141,-330 -282,-477 -68,-72 -82,-82 -105,-77 -24,5 -25,4 -8,-9 28,-23 8,-27 -53,-11 -87,23 -106,12 -36,-20 32,-15 57,-29 55,-31 -3,-2 -31,5 -63,16 -33,10 -67,19 -78,19 -10,0 -18,2 -18,4 0,2 27,56 61,120 33,64 76,152 94,197 18,44 35,75 38,67 3,-7 6,-3 6,9 1,12 8,47 16,78 23,89 37,246 26,294 -17,79 -30,70 -37,-25 -7,-101 -31,-213 -65,-312 -38,-106 -138,-309 -215,-434 -129,-208 -324,-432 -428,-493 -48,-28 -49,-28 -81,-11 -18,10 -42,35 -54,56 -11,20 -28,43 -36,50 -13,11 -15,8 -15,-14 0,-55 72,-146 133,-169 10,-4 17,-17 17,-32 0,-80 71,-278 173,-480 83,-165 120,-220 157,-235 24,-10 35,-32 90,-183 34,-95 73,-192 88,-217 l 27,-45 3,34 c 2,19 -4,64 -13,101 -16,64 -16,69 5,129 23,71 21,105 -3,51 -16,-35 -16,-35 -12,-5 5,28 4,27 -16,-10 l -20,-40 4,40 c 3,22 8,49 12,60 3,11 -2,5 -13,-14 l -19,-34 -16,48 -17,47 33,-6 c 17,-4 55,-9 82,-12 28,-2 66,-7 85,-10 102,-18 371,2 475,35 123,39 127,42 181,140 51,90 172,433 193,544 10,58 45,97 115,132 65,32 90,31 154,-6 58,-33 64,-44 81,-139 26,-142 136,-423 213,-541 34,-52 65,-74 151,-103 69,-23 215,-46 344,-53 209,-11 556,41 673,102 28,14 30,14 31,-2 0,-10 10,2 22,27 12,25 49,86 83,135 68,100 165,257 195,317 12,23 24,36 31,32 6,-4 8,-3 4,4 -3,6 5,34 18,64 22,48 24,50 20,18 -3,-19 -9,-93 -13,-165 -8,-121 -11,-136 -48,-220 -42,-95 -56,-138 -43,-130 5,3 25,49 47,102 43,109 58,102 20,-9 -30,-87 -77,-293 -77,-337 0,-17 4,-31 9,-31 23,0 91,201 91,268 0,37 8,23 25,-42 33,-125 109,-262 189,-339 41,-41 126,-92 191,-117 35,-13 37,-16 -78,79 -98,81 -138,130 -196,241 -68,129 -85,216 -85,420 1,186 13,333 45,521 20,124 23,171 12,183 -4,4 -12,-10 -18,-31 l -10,-37 -28,56 c -27,56 -160,231 -210,276 -29,28 -70,38 -187,49 l -85,8 130,6 130,6 55,-48 c 131,-113 372,-246 475,-263 l 40,-7 -25,20 c -14,11 -63,41 -110,67 -167,92 -313,196 -401,283 -147,146 -235,307 -340,621 -62,185 -82,229 -94,199 z m -340,-444 c -47,-135 -76,-239 -61,-225 3,3 32,84 64,180 l 59,175 23,-44 22,-45 -21,-50 c -27,-69 -71,-223 -70,-250 0,-11 20,38 44,111 24,72 47,138 52,147 7,13 17,2 46,-49 l 38,-66 -26,-101 c -14,-56 -26,-102 -28,-102 -1,-1 -33,-9 -70,-19 -38,-9 -107,-35 -154,-57 -103,-48 -117,-51 -43,-8 30,17 69,42 87,55 18,14 38,22 45,18 7,-4 -26,31 -74,77 l -86,83 72,185 c 40,102 76,194 80,205 7,17 11,14 31,-25 l 23,-46 z m 259,-208 c 20,-26 36,-52 36,-57 0,-6 3,-9 8,-8 4,1 23,-13 42,-31 19,-18 53,-45 74,-59 l 40,-27 -80,-13 c -103,-16 -264,-29 -258,-20 2,3 47,21 100,38 52,18 93,34 91,37 -11,10 -138,-21 -214,-53 -63,-27 -92,-34 -130,-32 l -48,3 120,48 c 130,51 161,67 135,67 -13,0 -12,12 10,80 14,44 28,79 31,77 4,-1 23,-23 43,-50 z m 216,-308 c 208,-15 226,-18 238,-43 9,-20 4,-24 -77,-56 -47,-19 -142,-58 -211,-88 -69,-30 -243,-94 -387,-142 -273,-92 -303,-104 -303,-120 0,-48 416,58 731,186 184,74 249,105 268,128 8,9 19,16 25,16 11,0 103,-119 158,-206 l 26,-41 -23,-79 c -31,-106 -54,-162 -121,-295 -104,-208 -254,-432 -302,-450 -107,-41 -461,-99 -600,-99 -163,1 -365,37 -453,81 -31,16 -42,32 -91,141 -78,174 -73,161 -122,351 -25,96 -50,186 -56,201 -10,28 6,57 144,246 89,123 106,140 131,130 20,-8 27,-2 66,56 51,75 72,85 33,17 l -27,-48 34,35 c 19,19 45,44 59,55 l 25,20 -21,-25 c -39,-47 -36,-52 11,-16 25,20 52,37 58,37 7,1 23,3 37,5 14,2 106,7 205,9 98,3 180,7 182,9 5,4 219,-4 363,-15 z m -2436,-81 c -9,-14 -32,-9 -68,16 -20,13 -56,32 -81,42 -25,11 -45,22 -45,25 0,4 45,-12 99,-34 55,-22 98,-44 95,-49 z m 137,50 c 35,-22 59,-43 53,-45 -7,-2 -40,14 -75,37 -74,48 -77,50 -57,50 8,0 44,-19 79,-42 z m -91,-13 c 28,-14 50,-28 50,-30 0,-5 -99,42 -109,51 -12,11 15,1 59,-21 z m -151,-40 c 2,-3 -5,-5 -17,-5 -28,0 -113,41 -106,51 4,7 109,-33 123,-46 z m 351,30 c 13,-14 21,-25 18,-25 -2,0 -15,11 -28,25 -13,14 -21,25 -18,25 2,0 15,-11 28,-25 z m -470,-35 c 12,-8 9,-10 -13,-10 -16,0 -26,4 -22,10 8,12 16,12 35,0 z m 545,-61 c 39,-5 81,-10 95,-10 59,1 66,-6 138,-136 88,-160 152,-302 152,-337 0,-44 -127,-413 -172,-499 -29,-55 -49,-82 -67,-88 -110,-42 -401,-76 -550,-65 -118,9 -224,27 -238,40 -14,13 -180,524 -250,766 -2,8 15,34 40,58 l 43,42 95,-97 c 51,-54 130,-136 173,-183 58,-62 80,-80 83,-68 11,43 -198,304 -295,368 l -22,15 40,47 40,47 88,-44 c 136,-67 371,-136 570,-166 63,-10 85,-10 94,-1 24,24 -17,41 -223,96 -216,58 -326,95 -421,142 -61,30 -63,31 -49,52 11,18 315,29 326,13 10,-17 25,-13 19,4 -5,13 10,15 107,14 63,0 146,-4 184,-10 z m -901,-486 c 21,-71 66,-220 101,-333 71,-230 65,-236 -39,-42 -61,114 -96,206 -141,366 l -28,98 24,19 c 13,10 29,19 35,19 6,0 28,-57 48,-127 z"
           id="path1234" /><path
           d="m 4804,6509 c -75,-36 -145,-118 -251,-290 -104,-170 -125,-208 -138,-247 -6,-21 -4,-23 16,-20 17,2 56,51 149,186 70,101 154,211 188,245 55,57 92,111 92,137 0,14 -8,12 -56,-11 z"
           id="path1236" /><path
           d="m 3690,6320 c -46,-16 -102,-42 -125,-58 -33,-23 -40,-34 -41,-63 -1,-19 -7,-45 -13,-58 -7,-12 -10,-25 -7,-28 3,-3 18,21 33,52 15,32 34,60 40,63 7,2 -7,-34 -32,-80 -46,-86 -51,-98 -36,-98 4,0 30,45 57,99 l 48,99 63,26 c 35,14 67,26 72,26 5,0 29,11 52,25 l 44,25 h -35 c -19,0 -73,-14 -120,-30 z"
           id="path1238" /><path
           d="m 3711,6239 c -43,-50 -63,-60 -41,-20 20,39 3,21 -34,-34 -20,-30 -38,-55 -41,-55 -3,0 9,28 25,63 23,45 25,55 10,37 -11,-14 -35,-54 -52,-90 -18,-36 -46,-86 -62,-113 -16,-26 -26,-50 -22,-54 8,-9 266,249 266,266 0,8 -6,11 -16,7 -15,-6 -15,-4 0,19 25,37 16,31 -33,-26 z"
           id="path1240" /><path
           d="m 4270,5893 c -14,-3 -63,-23 -110,-45 -47,-23 -137,-62 -200,-88 -67,-28 -115,-53 -115,-61 0,-9 10,-13 27,-11 88,9 383,137 427,186 25,27 23,28 -29,19 z"
           id="path1242" /><path
           d="m 2530,6386 c -30,-7 -68,-20 -85,-30 l -30,-17 68,5 c 66,5 78,1 56,-21 -6,-6 -9,-17 -7,-25 3,-7 12,4 21,25 13,30 22,38 39,37 28,-2 68,10 68,20 0,22 -49,24 -130,6 z"
           id="path1244" /><path
           d="m 2616,6300 c -15,-27 -23,-50 -17,-50 10,0 54,90 48,97 -2,2 -16,-19 -31,-47 z"
           id="path1246" /><path
           d="m 2586,6315 c -10,-15 -15,-32 -13,-38 2,-7 12,3 21,21 21,41 15,53 -8,17 z"
           id="path1248" /><path
           d="m 2660,6288 c -13,-24 -28,-46 -33,-49 -5,-4 -6,-15 -3,-25 8,-25 129,-154 144,-154 20,0 13,31 -14,63 -18,22 -24,37 -20,56 5,22 5,23 -5,8 -10,-17 -12,-17 -29,-2 -17,15 -17,20 -4,50 20,49 17,55 -7,18 -32,-50 -42,-29 -14,28 31,60 18,66 -15,7 z"
           id="path1250" /><path
           d="m 2180,5851 c 0,-46 152,-105 305,-118 72,-6 77,-5 73,13 -2,14 -19,22 -68,32 -36,8 -113,29 -171,48 -110,35 -139,40 -139,25 z"
           id="path1252" /><path
           d="m 2927,7663 c -4,-3 -3,-13 2,-22 16,-32 22,-142 11,-223 -19,-140 -68,-270 -234,-621 -25,-54 -42,-96 -38,-93 16,10 122,164 162,236 23,41 38,64 35,51 -4,-12 -16,-53 -26,-89 -21,-74 -24,-95 -9,-72 9,14 148,426 189,560 10,36 22,74 26,85 l 7,20 -13,-20 c -7,-11 -22,-45 -34,-76 l -20,-56 3,111 c 4,122 -8,190 -37,205 -10,6 -21,8 -24,4 z"
           id="path1254" /><path
           d="m 3152,7479 c -12,-41 -67,-211 -122,-378 -92,-279 -123,-390 -84,-301 29,66 165,475 200,603 38,136 43,201 6,76 z"
           id="path1256" /><path
           d="m 2757,7443 c -113,-352 -181,-593 -168,-593 13,0 198,627 188,637 -3,2 -12,-17 -20,-44 z"
           id="path1258" /><path
           d="m 2861,7415 c -75,-179 -231,-612 -231,-640 1,-27 22,27 214,554 60,164 70,210 17,86 z"
           id="path1260" /><path
           d="m 5321,7470 c -1,-14 -8,-77 -15,-140 -12,-107 -12,-130 -2,-119 10,10 27,178 23,229 -2,30 -4,44 -6,30 z"
           id="path1262" /><path
           d="m 2643,7339 c -74,-208 -131,-388 -137,-434 -3,-22 39,95 94,260 104,313 131,424 43,174 z"
           id="path1264" /><path
           d="m 3192,7298 c -63,-184 -79,-252 -41,-168 26,57 111,330 107,342 -2,5 -32,-73 -66,-174 z"
           id="path1266" /><path
           d="m 3471,7388 c -52,-161 -127,-455 -117,-465 2,-2 26,79 54,179 62,221 92,341 88,346 -2,2 -13,-25 -25,-60 z"
           id="path1268" /><path
           d="m 3286,7405 c -9,-26 -7,-32 5,-12 6,10 9,21 6,23 -2,3 -7,-2 -11,-11 z"
           id="path1270" /><path
           d="m 3580,7258 c -28,-89 -56,-175 -62,-190 -5,-15 -8,-32 -6,-39 2,-7 32,77 66,187 34,109 60,200 57,202 -2,2 -27,-70 -55,-160 z"
           id="path1272" /><path
           d="m 2307,7283 c -60,-193 -89,-302 -85,-314 2,-7 32,86 66,206 67,233 79,302 19,108 z"
           id="path1274" /><path
           d="m 2376,7189 c -36,-105 -66,-196 -65,-202 0,-7 5,-1 11,13 22,52 128,374 124,377 -2,2 -33,-82 -70,-188 z"
           id="path1276" /><path
           d="m 3252,7318 c -11,-29 -47,-123 -80,-208 -56,-148 -80,-222 -68,-209 10,10 177,461 172,466 -2,2 -13,-20 -24,-49 z"
           id="path1278" /><path
           d="m 5352,7198 c -23,-147 -26,-175 -17,-167 14,14 55,309 43,309 -2,0 -14,-64 -26,-142 z"
           id="path1280" /><path
           d="m 2191,7148 c -45,-177 -60,-248 -52,-248 8,0 95,360 88,366 -2,2 -18,-51 -36,-118 z"
           id="path1282" /><path
           d="m 4511,7140 c -12,-44 -21,-95 -19,-113 2,-22 10,1 26,77 13,59 21,110 19,113 -3,2 -14,-32 -26,-77 z"
           id="path1284" /><path
           d="m 2121,7104 c 0,-11 3,-14 6,-6 3,7 2,16 -1,19 -3,4 -6,-2 -5,-13 z"
           id="path1286" /><path
           d="m 5409,7063 c 0,-32 -2,-77 -5,-100 -4,-28 -2,-43 5,-43 7,0 11,34 11,100 0,55 -2,100 -5,100 -3,0 -5,-26 -6,-57 z"
           id="path1288" /><path
           d="m 2101,7014 c 0,-11 3,-14 6,-6 3,7 2,16 -1,19 -3,4 -6,-2 -5,-13 z"
           id="path1290" /><path
           d="m 5522,6995 c 0,-16 2,-22 5,-12 2,9 2,23 0,30 -3,6 -5,-1 -5,-18 z"
           id="path1292" /><path
           d="m 2091,6964 c 0,-11 3,-14 6,-6 3,7 2,16 -1,19 -3,4 -6,-2 -5,-13 z"
           id="path1294" /><path
           d="m 5486,6797 c -29,-181 -30,-191 -17,-183 14,9 63,346 51,346 -4,0 -19,-73 -34,-163 z"
           id="path1296" /><path
           d="m 2081,6924 c 0,-11 3,-14 6,-6 3,7 2,16 -1,19 -3,4 -6,-2 -5,-13 z"
           id="path1298" /><path
           d="m 5576,6693 c -4,-16 -9,-136 -12,-268 -7,-257 5,-404 46,-568 37,-147 116,-274 194,-311 134,-63 278,65 251,224 -4,22 -11,40 -16,40 -5,0 -8,-3 -7,-7 5,-23 -16,-114 -35,-148 -26,-46 -79,-85 -115,-85 -74,0 -164,101 -209,234 -51,150 -64,267 -70,604 -5,290 -11,354 -27,285 z"
           id="path1300" /><path
           d="m 872,6423 c -9,-16 -9,-60 -1,-180 11,-180 5,-308 -22,-471 -40,-240 -133,-482 -185,-482 -20,0 -27,37 -26,140 l 1,95 -16,-40 c -9,-22 -16,-74 -17,-116 -1,-63 3,-81 18,-98 29,-32 70,-27 99,12 72,95 150,344 176,562 12,98 7,493 -7,560 -7,38 -9,39 -20,18 z"
           id="path1302" /><path
           d="m 1098,6013 c -23,-29 -50,-74 -45,-79 2,-2 18,18 35,46 32,52 36,63 10,33 z"
           id="path1304" /><path
           d="m 1150,5928 c -22,-40 -40,-79 -40,-87 0,-8 2,-12 4,-10 9,10 86,169 81,169 -2,0 -22,-33 -45,-72 z"
           id="path1306" /><path
           d="m 4917,5862 c -25,-53 -64,-128 -85,-167 -22,-38 -43,-81 -47,-95 -9,-36 58,69 107,168 23,45 43,80 45,78 2,-2 -13,-48 -32,-102 -76,-208 -86,-237 -81,-241 6,-6 105,203 111,232 2,11 4,20 5,20 1,0 3,9 5,20 1,11 7,40 14,65 13,56 13,63 1,55 -5,-3 -5,7 2,25 22,64 0,36 -45,-58 z"
           id="path1308" /><path
           d="m 4921,5671 c -12,-29 -20,-55 -18,-58 7,-6 48,88 44,100 -2,6 -13,-13 -26,-42 z"
           id="path1310" /><path
           d="m 4792,5679 c -33,-53 -73,-141 -69,-152 3,-6 24,28 47,76 39,83 50,122 22,76 z"
           id="path1312" /><path
           d="m 3005,5668 c -30,-85 -54,-172 -49,-177 18,-18 74,107 74,166 0,24 -18,32 -25,11 z"
           id="path1314" /><path
           d="m 5515,5669 c -4,-6 -5,-12 -2,-15 2,-3 7,2 10,11 7,17 1,20 -8,4 z"
           id="path1316" /><path
           d="m 5482,5599 c -26,-60 -72,-195 -72,-210 0,-25 12,1 55,122 43,122 53,173 17,88 z"
           id="path1318" /><path
           d="m 5635,5539 c -4,-6 -5,-12 -2,-15 2,-3 7,2 10,11 7,17 1,20 -8,4 z"
           id="path1320" /><path
           d="m 5449,5416 c -34,-69 -60,-128 -57,-131 3,-3 33,51 67,121 34,70 59,129 57,131 -2,3 -33,-52 -67,-121 z"
           id="path1322" /><path
           d="m 2995,5463 c -44,-50 -78,-103 -72,-109 2,-3 26,1 53,7 41,9 56,8 94,-6 57,-21 100,-30 100,-19 0,4 -9,18 -21,30 l -21,23 26,28 c 27,29 33,43 17,43 -5,0 -19,-16 -31,-35 -19,-30 -24,-33 -46,-25 -14,6 -39,10 -57,10 h -31 l 25,28 c 13,15 33,38 44,51 l 20,25 -32,-22 c -17,-12 -41,-38 -52,-56 -12,-19 -29,-37 -38,-40 -11,-4 -7,4 11,26 24,31 60,88 54,88 -2,0 -21,-21 -43,-47 z"
           id="path1324" /><path
           d="m 5591,5446 c -16,-36 -32,-80 -35,-98 l -6,-33 16,34 c 25,55 64,161 59,161 -3,0 -18,-29 -34,-64 z"
           id="path1326" /><path
           d="m 2906,5424 c -35,-45 -46,-72 -26,-59 15,10 72,96 67,101 -3,3 -21,-16 -41,-42 z"
           id="path1328" /><path
           d="m 3100,5445 c -13,-14 -21,-27 -18,-31 3,-3 16,9 28,25 26,37 22,40 -10,6 z"
           id="path1330" /><path
           d="m 3226,5443 c -6,-14 -5,-15 5,-6 7,7 10,15 7,18 -3,3 -9,-2 -12,-12 z"
           id="path1332" /><path
           d="m 5677,5387 c -24,-49 -46,-118 -35,-107 9,8 68,153 64,157 -1,2 -14,-21 -29,-50 z"
           id="path1334" /><path
           d="m 930,5329 c 0,-53 7,-194 16,-315 17,-240 13,-422 -12,-558 -18,-93 -47,-166 -66,-166 -8,0 -31,23 -52,51 -21,28 -40,49 -42,46 -3,-2 3,-28 13,-57 22,-67 60,-98 100,-84 101,35 139,378 94,854 -23,243 -29,287 -42,310 -5,9 -9,-24 -9,-81 z"
           id="path1336" /><path
           d="m 1657,5311 c 18,-134 -104,-403 -208,-456 -68,-36 -118,-12 -238,113 l -83,87 32,-60 c 46,-84 76,-122 123,-156 119,-86 216,-49 319,123 21,35 38,56 38,48 1,-27 15,8 60,142 42,128 52,205 12,93 l -22,-60 5,45 c 4,48 -12,111 -32,117 -8,3 -10,-8 -6,-36 z"
           id="path1338" /><path
           d="m 1962,5257 c -18,-43 -32,-88 -30,-100 2,-15 14,5 36,62 43,107 37,141 -6,38 z"
           id="path1340" /><path
           d="m 2186,5285 c -9,-26 -7,-32 5,-12 6,10 9,21 6,23 -2,3 -7,-2 -11,-11 z"
           id="path1342" /><path
           d="m 2008,5218 c -14,-29 -28,-63 -32,-75 -3,-13 -9,-32 -12,-43 -3,-11 -1,-20 4,-20 10,0 75,180 68,187 -2,2 -15,-20 -28,-49 z"
           id="path1344" /><path
           d="m 5576,5228 c -20,-59 -8,-219 24,-343 56,-212 165,-345 281,-345 140,0 279,192 282,389 0,36 -4,75 -10,85 -9,17 -13,11 -22,-40 -43,-218 -117,-344 -220,-374 -147,-42 -296,242 -305,580 0,33 -6,55 -13,58 -7,2 -15,-2 -17,-10 z"
           id="path1346" /><path
           d="m 1722,5127 c -58,-130 -93,-228 -89,-241 2,-6 13,11 25,37 37,84 113,289 109,294 -3,2 -23,-38 -45,-90 z"
           id="path1348" /><path
           d="m 2065,5140 c -30,-60 -45,-103 -30,-89 8,9 75,159 70,159 -3,0 -21,-31 -40,-70 z"
           id="path1350" /><path
           d="m 2860,5176 c 0,-7 7,-19 15,-26 8,-7 15,-25 15,-40 0,-41 20,-89 39,-95 31,-9 52,5 49,33 -3,24 -12,32 -53,48 -18,7 -17,8 8,12 35,4 34,24 -4,56 -33,28 -69,34 -69,12 z"
           id="path1352" /><path
           d="m 3195,5178 c -45,-24 -62,-78 -25,-78 33,0 26,-38 -7,-42 -24,-3 -28,-8 -28,-33 0,-23 5,-31 21,-33 33,-5 64,45 64,101 0,25 5,49 10,52 14,9 12,45 -2,45 -7,0 -22,-6 -33,-12 z"
           id="path1354" /><path
           d="m 4833,5088 c -6,-7 -27,-47 -47,-88 -108,-218 -411,-514 -731,-717 -44,-27 -172,-103 -285,-168 -254,-147 -319,-186 -387,-237 -61,-45 -64,-57 -8,-34 21,9 41,16 45,16 3,0 -8,-51 -26,-112 -18,-62 -33,-122 -33,-133 1,-35 25,32 54,146 l 26,105 97,48 c 96,48 339,184 460,258 34,21 64,38 67,38 2,0 -13,-37 -34,-82 -71,-155 -179,-444 -169,-453 5,-5 72,156 159,380 34,88 65,165 70,170 4,6 21,18 38,28 l 31,18 -26,-58 c -38,-84 -98,-246 -125,-333 -12,-41 -28,-84 -35,-95 -7,-11 -28,-60 -47,-110 -19,-49 -60,-151 -92,-225 -60,-142 -108,-280 -101,-288 17,-17 238,495 264,613 10,42 87,263 149,423 20,52 43,97 54,102 10,6 60,43 112,84 l 95,74 -24,-54 c -57,-130 -195,-596 -181,-611 3,-3 20,42 37,99 18,56 65,209 106,338 72,228 75,236 121,282 26,26 48,46 50,44 2,-2 -14,-72 -36,-157 -138,-538 -168,-665 -140,-599 36,85 189,687 189,743 0,20 22,51 86,119 131,141 229,300 251,410 4,21 2,28 -10,28 -8,0 -19,-6 -24,-12 z"
           id="path1356" /><path
           d="m 1738,4983 c -90,-196 -99,-216 -95,-226 4,-14 73,128 128,266 31,78 10,53 -33,-40 z"
           id="path1358" /><path
           d="m 5060,5031 c -53,-76 -198,-386 -186,-398 3,-4 33,52 67,123 33,71 81,168 105,217 46,91 50,107 14,58 z"
           id="path1360" /><path
           d="m 1773,4913 c -75,-158 -125,-288 -92,-243 9,12 10,12 5,-4 -19,-56 -56,-220 -53,-229 2,-6 18,36 36,93 18,58 45,143 61,190 25,73 27,81 10,60 l -20,-25 19,45 c 10,25 37,87 60,139 22,52 39,96 38,98 -2,2 -31,-54 -64,-124 z"
           id="path1362" /><path
           d="m 5136,4873 c -75,-115 -146,-245 -176,-323 -32,-82 -11,-51 67,101 39,74 95,177 126,227 30,51 53,92 51,92 -3,0 -33,-44 -68,-97 z"
           id="path1364" /><path
           d="m 5175,4788 c -60,-95 -192,-365 -209,-428 -3,-14 45,79 108,205 63,127 124,245 136,263 12,17 20,32 17,32 -3,0 -26,-33 -52,-72 z"
           id="path1366" /><path
           d="m 2064,4815 c -10,-24 34,-138 85,-221 58,-94 206,-269 288,-340 155,-135 424,-326 522,-371 40,-18 75,-32 77,-30 9,9 -103,101 -265,217 -225,162 -342,260 -437,368 -105,120 -164,206 -210,307 -38,85 -50,98 -60,70 z"
           id="path1368" /><path
           d="m 1135,4748 c -19,-64 -20,-109 -1,-58 14,37 27,110 21,110 -2,0 -11,-23 -20,-52 z"
           id="path1370" /><path
           d="m 1470,4748 c -22,-35 -35,-76 -28,-83 3,-3 16,22 31,55 28,67 27,77 -3,28 z"
           id="path1372" /><path
           d="m 1257,4733 c -20,-38 -37,-103 -28,-103 9,0 53,122 46,128 -2,2 -10,-9 -18,-25 z"
           id="path1374" /><path
           d="m 1854,4724 c -9,-21 -36,-84 -60,-139 -59,-136 -156,-387 -151,-391 2,-2 12,15 22,39 10,23 31,71 47,107 40,88 135,320 153,372 18,54 10,63 -11,12 z"
           id="path1376" /><path
           d="m 1342,4708 c -14,-18 -53,-98 -48,-98 2,0 18,25 34,55 30,54 34,67 14,43 z"
           id="path1378" /><path
           d="m 1860,4523 c -61,-158 -121,-335 -117,-346 2,-6 18,28 36,74 48,119 133,371 127,376 -2,2 -23,-44 -46,-104 z"
           id="path1380" /><path
           d="m 2760,4619 c 0,-12 61,-39 107,-46 53,-9 39,13 -22,36 -62,23 -85,26 -85,10 z"
           id="path1382" /><path
           d="m 3538,4606 c -21,-8 -50,-22 -65,-32 -24,-15 -25,-19 -10,-22 25,-5 114,28 134,50 15,17 15,18 -3,18 -10,-1 -36,-7 -56,-14 z"
           id="path1384" /><path
           d="m 3062,4572 c -20,-2 -32,-8 -29,-15 2,-7 41,-15 99,-21 l 95,-8 -54,-51 c -29,-27 -56,-47 -60,-43 -4,4 10,21 30,39 20,18 37,36 37,41 0,5 -24,-12 -52,-36 -29,-24 -62,-48 -73,-52 -16,-6 -17,-9 -5,-16 18,-11 244,-11 280,0 l 25,7 -26,7 c -14,4 -58,8 -97,9 -40,1 -71,5 -69,8 8,21 102,89 123,89 13,0 24,-2 24,-4 0,-2 -18,-15 -40,-30 -40,-26 -58,-56 -22,-37 39,21 103,84 94,93 -9,9 -226,25 -280,20 z"
           id="path1386" /><path
           d="m 3332,4508 c -23,-18 -42,-36 -42,-41 0,-8 87,51 96,65 11,18 -15,6 -54,-24 z"
           id="path1388" /><path
           d="m 3105,4512 c -12,-9 -27,-26 -35,-36 -14,-18 -14,-18 5,-9 25,14 72,63 59,63 -5,0 -18,-8 -29,-18 z"
           id="path1390" /><path
           d="m 3394,4498 -19,-23 23,19 c 21,18 27,26 19,26 -2,0 -12,-10 -23,-22 z"
           id="path1392" /><path
           d="m 4599,4493 c -82,-208 -212,-692 -259,-963 -27,-156 -40,-516 -15,-420 8,30 22,104 31,163 l 17,108 28,-50 c 15,-27 77,-99 136,-161 59,-62 122,-135 139,-164 17,-28 85,-143 152,-256 135,-226 205,-324 129,-180 -24,47 -87,157 -140,245 -52,88 -93,162 -91,164 3,3 26,-15 52,-40 117,-112 315,-272 607,-491 255,-190 316,-233 385,-268 l 62,-31 -28,37 c -46,60 -183,175 -414,347 -394,294 -610,478 -853,725 l -158,161 11,63 c 42,238 103,493 189,793 34,115 61,217 61,227 0,28 -29,21 -41,-9 z"
           id="path1394" /><path
           d="m 5426,4481 c -9,-14 21,-125 50,-188 31,-64 108,-135 172,-158 54,-20 262,-34 262,-18 0,6 -35,16 -77,23 -221,35 -277,77 -353,260 -34,81 -44,97 -54,81 z"
           id="path1396" /><path
           d="m 1933,4403 c -37,-82 -57,-143 -50,-149 3,-3 24,43 46,102 23,59 40,108 38,111 -2,2 -18,-27 -34,-64 z"
           id="path1398" /><path
           d="m 4915,4409 c -4,-6 -5,-12 -2,-15 2,-3 7,2 10,11 7,17 1,20 -8,4 z"
           id="path1400" /><path
           d="m 4302,4298 c -116,-295 -182,-477 -182,-502 1,-22 21,24 89,205 87,233 123,340 118,345 -2,3 -13,-19 -25,-48 z"
           id="path1402" /><path
           d="m 2032,4097 c -45,-135 -82,-248 -82,-253 2,-35 84,189 141,385 53,183 24,118 -59,-132 z"
           id="path1404" /><path
           d="m 1960,4230 c -21,-91 -22,-133 -2,-68 14,43 33,150 28,155 -2,3 -14,-37 -26,-87 z"
           id="path1406" /><path
           d="m 2187,4258 c -54,-119 -128,-347 -141,-433 -5,-35 -4,-37 5,-15 6,14 37,108 69,210 32,102 68,207 80,234 28,67 17,71 -13,4 z"
           id="path1408" /><path
           d="m 4841,4235 c -43,-104 -89,-246 -101,-319 -6,-34 -14,-70 -17,-81 -3,-11 -2,-17 2,-13 3,3 20,58 35,121 16,64 49,171 74,239 25,67 43,124 42,126 -2,1 -17,-32 -35,-73 z"
           id="path1410" /><path
           d="m 4785,4200 c -9,-16 -13,-30 -11,-30 3,0 12,14 21,30 9,17 13,30 11,30 -3,0 -12,-13 -21,-30 z"
           id="path1412" /><path
           d="m 2295,4209 c -4,-6 -5,-12 -2,-15 2,-3 7,2 10,11 7,17 1,20 -8,4 z"
           id="path1414" /><path
           d="m 1288,4178 c 4,-18 7,-67 7,-108 -1,-61 -6,-87 -28,-135 -49,-105 -113,-153 -163,-120 -31,20 -48,58 -64,150 -19,106 -29,111 -30,15 0,-104 13,-155 50,-192 54,-53 147,-26 209,61 56,79 76,213 45,304 -19,56 -37,73 -26,25 z"
           id="path1416" /><path
           d="m 2380,4193 c 0,-11 7,-60 15,-108 9,-48 14,-89 12,-91 -2,-2 -11,21 -21,50 -20,59 -65,123 -66,94 0,-9 14,-74 30,-145 56,-238 98,-447 130,-643 77,-482 92,-527 86,-270 -4,189 -18,295 -71,545 -14,66 -32,172 -41,235 -20,155 -53,333 -65,345 -5,5 -9,1 -9,-12 z"
           id="path1418" /><path
           d="m 5056,4188 c -39,-145 68,-493 174,-565 68,-47 135,-19 161,65 14,50 5,100 -16,82 -7,-6 -17,-24 -20,-40 -9,-40 -42,-80 -67,-80 -72,0 -175,229 -198,441 -12,107 -23,138 -34,97 z"
           id="path1420" /><path
           d="m 2257,4102 c -28,-80 -57,-196 -56,-222 0,-8 7,5 15,30 27,83 75,263 71,266 -2,2 -16,-31 -30,-74 z"
           id="path1422" /><path
           d="m 4755,4149 c -4,-6 -5,-12 -2,-15 2,-3 7,2 10,11 7,17 1,20 -8,4 z"
           id="path1424" /><path
           d="m 2495,4065 c 18,-252 25,-338 30,-343 9,-10 5,201 -6,292 -15,121 -31,156 -24,51 z"
           id="path1426" /><path
           d="m 4704,4049 c -19,-39 -34,-73 -32,-75 2,-2 21,30 41,71 20,41 35,75 32,75 -3,0 -21,-32 -41,-71 z"
           id="path1428" /><path
           d="m 2586,3950 c 3,-74 9,-182 15,-239 5,-58 9,-110 9,-118 0,-7 5,-13 11,-13 6,0 8,28 4,83 -3,45 -10,148 -15,229 -13,195 -31,238 -24,58 z"
           id="path1430" /><path
           d="m 3904,4055 c -41,-63 -154,-353 -188,-485 -15,-57 27,35 99,218 40,103 82,211 94,240 23,57 21,66 -5,27 z"
           id="path1432" /><path
           d="m 4907,4016 c -29,-71 -69,-217 -63,-224 3,-2 14,29 26,70 12,40 33,104 46,142 31,88 25,97 -9,12 z"
           id="path1434" /><path
           d="m 2711,3945 c -1,-69 19,-448 24,-453 3,-3 7,-3 9,-1 8,8 -14,432 -23,464 -9,30 -9,30 -10,-10 z"
           id="path1436" /><path
           d="m 3729,3893 c -72,-164 -180,-506 -165,-521 2,-2 46,125 98,282 51,157 92,286 90,286 -1,0 -12,-21 -23,-47 z"
           id="path1438" /><path
           d="m 3606,3838 c -41,-90 -100,-258 -92,-265 6,-6 20,28 87,201 27,71 47,131 44,134 -3,3 -20,-29 -39,-70 z"
           id="path1440" /><path
           d="m 2807,3745 c 8,-222 22,-280 19,-80 -1,94 -7,181 -13,195 -8,19 -10,-10 -6,-115 z"
           id="path1442" /><path
           d="m 4582,3853 c -14,-34 -6,-206 12,-268 22,-74 85,-197 128,-249 94,-114 225,-128 272,-29 17,35 20,114 7,148 -7,17 -10,12 -20,-25 -24,-90 -33,-111 -56,-126 -39,-25 -82,-9 -145,55 -98,97 -155,241 -167,419 -6,88 -15,112 -31,75 z"
           id="path1444" /><path
           d="m 2185,3707 v -133 l -37,-75 c -69,-138 -121,-189 -316,-309 -29,-18 -51,-34 -49,-36 6,-6 120,32 162,54 106,54 188,144 248,270 46,98 51,290 9,342 -16,20 -17,15 -17,-113 z"
           id="path1446" /><path
           d="m 2905,3775 c 3,-38 8,-88 11,-110 l 5,-40 -26,38 c -14,20 -32,37 -40,37 -9,0 24,-84 98,-247 107,-239 174,-370 184,-360 9,10 -57,186 -123,327 -66,141 -68,148 -80,266 -13,136 -38,211 -29,89 z"
           id="path1448" /><path
           d="m 3017,3693 c -16,-69 -23,-142 -12,-131 8,8 37,178 32,191 -2,7 -11,-20 -20,-60 z"
           id="path1450" /><path
           d="m 3157,3663 c -8,-32 -18,-78 -22,-103 l -6,-45 16,33 c 16,36 40,160 33,168 -3,2 -12,-21 -21,-53 z"
           id="path1452" /><path
           d="m 1696,3634 c -16,-105 -75,-196 -160,-244 -88,-51 -161,-33 -214,55 -32,53 -42,56 -42,15 0,-85 70,-152 162,-154 135,-3 278,147 278,291 0,78 -15,100 -24,37 z"
           id="path1454" /><path
           d="m 3087,3625 c -22,-78 -33,-167 -18,-143 14,21 44,163 39,186 -2,9 -11,-10 -21,-43 z"
           id="path1456" /><path
           d="m 3290,3566 c -17,-53 -30,-101 -28,-108 3,-7 19,34 37,91 18,56 31,105 28,107 -3,3 -19,-38 -37,-90 z"
           id="path1458" /><path
           d="m 4400,3267 c 0,-35 314,-533 358,-569 23,-19 -30,73 -167,289 -125,197 -191,293 -191,280 z"
           id="path1460" /><path
           d="m 4370,3183 c 0,-41 233,-474 247,-459 8,8 -187,384 -233,451 -8,11 -14,14 -14,8 z"
           id="path1462" /><path
           d="m 2260,3046 c -141,-104 -338,-232 -655,-426 -419,-255 -652,-406 -641,-417 6,-7 240,107 381,184 103,57 273,158 372,219 l 28,18 -26,-30 c -14,-16 -51,-57 -82,-92 -49,-54 -199,-237 -231,-282 -34,-47 35,26 121,128 247,292 248,293 366,369 150,97 151,98 141,81 -4,-7 -40,-53 -79,-103 -78,-99 -248,-330 -284,-385 l -23,-35 32,35 c 17,19 89,112 159,205 242,319 252,331 336,392 141,101 206,167 191,192 -11,17 -15,15 -106,-53 z"
           id="path1464" /><path
           d="m 2428,3058 c -13,-18 -42,-62 -63,-98 -21,-36 -78,-126 -125,-200 -91,-142 -114,-180 -106,-180 6,0 234,342 285,428 46,76 51,106 9,50 z"
           id="path1466" /><path
           d="m 2484,2963 c -125,-195 -152,-241 -131,-224 31,25 189,281 173,281 -3,0 -22,-26 -42,-57 z"
           id="path1468" /><path
           d="m 2108,2723 c -90,-120 -179,-240 -197,-268 l -32,-50 31,35 c 39,43 136,172 260,345 51,72 97,136 103,143 5,6 7,12 4,12 -2,0 -79,-98 -169,-217 z"
           id="path1470" /><path
           d="m 4930,2735 c 37,-56 365,-441 396,-465 17,-13 18,-13 8,0 -98,136 -229,294 -348,421 -73,77 -83,85 -56,44 z"
           id="path1472" /></g></g></g></svg>
