<svg xmlns="http://www.w3.org/2000/svg" width="24" height="24" viewBox="0 0 24 24"><g fill="none" fill-rule="evenodd"><path d="m12.594 23.258l-.012.002l-.071.035l-.02.004l-.014-.004l-.071-.036q-.016-.004-.024.006l-.004.01l-.017.428l.005.02l.01.013l.104.074l.015.004l.012-.004l.104-.074l.012-.016l.004-.017l-.017-.427q-.004-.016-.016-.018m.264-.113l-.014.002l-.184.093l-.01.01l-.003.011l.018.43l.005.012l.008.008l.201.092q.019.005.029-.008l.004-.014l-.034-.614q-.005-.019-.02-.022m-.715.002a.02.02 0 0 0-.027.006l-.006.014l-.034.614q.001.018.017.024l.015-.002l.201-.093l.01-.008l.003-.011l.018-.43l-.003-.012l-.01-.01z"/><path fill="currentColor" d="M18.35 2c.781 0 1.557.47 1.825 1.305l.076.246l.079.28l.08.316l.077.346l.073.376l.034.198l.061.417c.23 1.79.157 4.23-1.122 6.705l-.159.297c-1.342 2.415-1.245 4.846-.942 6.425l.074.349l.038.162l.077.3l.077.262c.274.89-.318 1.922-1.327 2.01l-.14.006H5.65c-.78 0-1.557-.47-1.825-1.305l-.075-.246l-.08-.28l-.08-.316l-.077-.346l-.073-.376q-.036-.195-.066-.403l-.055-.43l-.042-.454c-.127-1.704.065-3.855 1.19-6.033l.159-.297C5.968 9.1 5.87 6.668 5.568 5.09l-.073-.349l-.039-.162l-.077-.3l-.077-.262c-.274-.89.318-1.922 1.327-2.01L6.77 2zM12 12H9a1 1 0 1 0 0 2h3a1 1 0 1 0 0-2m4-4h-6a1 1 0 0 0-.117 1.993L10 10h6a1 1 0 0 0 .117-1.993z"/></g></svg>