<?xml version="1.0" encoding="UTF-8" standalone="no"?>
<!-- Created with Inkscape (http://www.inkscape.org/) -->

<svg
   width="939.76147mm"
   height="1331.3285mm"
   viewBox="0 0 939.76147 1331.3285"
   version="1.1"
   id="svg5"
   xml:space="preserve"
   inkscape:version="1.2.1 (9c6d41e410, 2022-07-14)"
   sodipodi:docname="post djs.svg"
   xmlns:inkscape="http://www.inkscape.org/namespaces/inkscape"
   xmlns:sodipodi="http://sodipodi.sourceforge.net/DTD/sodipodi-0.dtd"
   xmlns="http://www.w3.org/2000/svg"
   xmlns:svg="http://www.w3.org/2000/svg"><sodipodi:namedview
     id="namedview7"
     pagecolor="#ffffff"
     bordercolor="#000000"
     borderopacity="0.25"
     inkscape:showpageshadow="2"
     inkscape:pageopacity="0.0"
     inkscape:pagecheckerboard="0"
     inkscape:deskcolor="#d1d1d1"
     inkscape:document-units="mm"
     showgrid="false"
     inkscape:zoom="0.16110414"
     inkscape:cx="4363.6372"
     inkscape:cy="-10213.89"
     inkscape:window-width="1920"
     inkscape:window-height="991"
     inkscape:window-x="-9"
     inkscape:window-y="-9"
     inkscape:window-maximized="1"
     inkscape:current-layer="layer5" /><defs
     id="defs2"><style
       id="style2">.cls-1{fill:#273184;}.cls-2{fill:#c7371b;}</style><style
       id="style2-8">.cls-1{fill:#273184;}.cls-2{fill:#c7371b;}</style></defs><g
     inkscape:groupmode="layer"
     id="layer4"
     inkscape:label="dialexo"
     transform="translate(-116.73125,-55.043933)"><g
       id="g8187"
       inkscape:label="dialexo"
       style="display:inline"
       transform="translate(0,-172.50827)"><path
         style="fill:#ffffff;fill-opacity:1;stroke-width:4.99999;stroke-linecap:square;stroke-miterlimit:6.1;paint-order:markers fill stroke"
         d="m 140.37313,1558.8806 914.64177,-7.3881 -271.88058,-208.3433 44.32837,-206.8657 41.37313,-57.6268 60.58208,-132.98508 127.0746,-106.38806 -17.7313,-200.95522 -33.9851,5.91045 -7.38804,-131.50745 -37.94041,-136.87907 -44.80588,-69.98661 -81.26865,-13.29849 -116.73133,-60.5821 -131.50747,-4.43283 -161.05971,22.16417 -178.79103,124.1194 -69.93811,137.21559 -58.61413,142.05306 31.02986,166.97016 54.67163,91.61192 45.80597,-14.77611 53.19403,203.91047 51.71641,63.5373 31.02986,195.0448 z"
         id="path8001"
         sodipodi:nodetypes="cccccccccccccccccccccccccc"
         inkscape:label="fond dialexo" /><g
         transform="matrix(0.17994209,0,0,-0.17994209,-18.900088,1950.0327)"
         fill="#000000"
         stroke="none"
         id="g2326"
         inkscape:label="dialexo"
         style="display:inline"><path
           d="m 3450,9411 -55,-6 55,-8 c 30,-4 104,-12 164,-17 60,-5 110,-11 112,-13 2,-2 -29,-16 -68,-31 l -72,-28 -95,21 c -145,32 -223,41 -371,41 -439,0 -822,-144 -1175,-443 -308,-260 -590,-637 -760,-1017 -73,-163 -291,-748 -282,-756 2,-2 18,26 34,63 331,725 374,813 500,1007 109,168 227,317 365,460 309,323 604,497 978,578 144,31 507,33 640,4 192,-41 373,-114 501,-200 114,-77 255,-235 287,-323 18,-48 38,-65 53,-42 26,42 -9,128 -100,242 -34,42 -90,101 -125,130 -45,36 -61,54 -51,59 7,4 90,30 184,57 95,28 176,53 182,56 9,6 99,-40 99,-50 0,-3 -26,-12 -57,-20 -95,-26 -238,-78 -225,-83 9,-3 236,70 283,92 11,5 32,-5 63,-28 25,-20 48,-36 51,-36 3,0 5,11 5,24 0,33 -62,85 -169,140 -180,92 -355,126 -676,131 -121,2 -245,0 -275,-4 z m 470,-57 75,-7 -80,-18 c -44,-10 -105,-26 -135,-35 -100,-31 -34,-26 123,9 130,29 162,33 203,26 56,-11 203,-55 221,-67 8,-5 -35,-20 -112,-40 -68,-17 -155,-43 -192,-58 -66,-26 -68,-27 -98,-9 -75,43 -224,115 -262,126 -24,7 -43,15 -43,18 0,3 27,14 60,25 32,10 67,24 77,32 11,8 32,12 53,9 19,-2 69,-7 110,-11 z"
           id="path1964" /><path
           d="m 4050,9261 c -141,-47 -174,-60 -168,-67 5,-4 308,92 317,102 13,13 -47,-2 -149,-35 z"
           id="path1966" /><path
           d="m 4751,9109 c -66,-20 -147,-87 -128,-106 3,-3 35,10 72,27 132,63 222,41 356,-87 195,-187 327,-475 393,-863 8,-47 29,-184 46,-305 31,-222 74,-437 92,-465 15,-25 0,220 -28,438 -72,570 -138,794 -311,1062 -70,108 -202,238 -279,276 -64,31 -154,41 -213,23 z"
           id="path1968" /><path
           d="m 4415,9094 c -84,-25 -190,-67 -179,-71 10,-3 233,72 243,82 7,8 -11,5 -64,-11 z"
           id="path1970" /><path
           d="m 2890,9075 c -159,-39 -377,-150 -575,-293 -154,-111 -139,-106 80,28 143,88 353,190 450,220 39,11 117,28 174,36 58,8 107,17 110,19 10,11 -188,2 -239,-10 z"
           id="path1972" /><path
           d="m 4455,9035 c -107,-31 -187,-62 -211,-80 -18,-13 -17,-14 11,-6 17,5 83,27 148,50 173,60 203,81 52,36 z"
           id="path1974" /><path
           d="m 4400,8890 c -19,-11 -30,-19 -25,-19 6,0 26,8 45,19 19,11 31,19 25,19 -5,0 -26,-8 -45,-19 z"
           id="path1976" /><path
           d="m 3290,8890 c 41,-5 131,-13 200,-19 170,-14 301,-54 389,-117 36,-25 36,-25 -3,10 -98,89 -236,126 -486,131 -137,3 -159,2 -100,-5 z"
           id="path1978" /><path
           d="m 4805,8681 c -22,-10 -51,-31 -65,-46 l -25,-28 35,26 c 53,39 115,52 170,37 36,-9 62,-29 125,-94 44,-44 104,-118 134,-164 30,-45 55,-81 58,-79 6,7 -76,149 -111,192 -131,159 -220,203 -321,156 z"
           id="path1980" /><path
           d="m 3110,8680 c -357,-35 -724,-211 -1009,-485 -193,-185 -297,-342 -522,-787 -94,-188 -122,-254 -63,-150 107,184 356,591 402,656 70,98 222,259 316,335 271,220 579,351 898,382 152,15 256,4 388,-40 112,-38 164,-72 187,-122 22,-47 33,-49 33,-6 0,74 -63,126 -213,178 -130,44 -250,55 -417,39 z"
           id="path1982" /><path
           d="m 4006,8487 c 33,-35 60,-63 62,-61 9,7 -32,66 -65,93 -61,50 -59,36 3,-32 z"
           id="path1984" /><path
           d="m 1911,8344 c -39,-42 -81,-90 -93,-108 -21,-30 118,113 155,160 37,47 8,23 -62,-52 z"
           id="path1986" /><path
           d="m 4810,8343 c -21,-8 -50,-34 -50,-45 0,-5 9,-4 19,2 28,15 77,12 111,-5 67,-34 185,-210 265,-393 77,-178 225,-653 225,-724 0,-23 2,-39 5,-36 8,7 47,629 40,636 -3,3 -7,3 -9,1 -4,-4 -35,-399 -37,-465 0,-16 -10,18 -22,76 -17,89 -20,140 -20,340 1,161 -1,213 -7,165 -4,-38 -8,-124 -9,-190 l -2,-120 -38,115 c -95,285 -238,537 -349,614 -40,27 -94,40 -122,29 z"
           id="path1988" /><path
           d="m 2975,8303 c -91,-22 -352,-129 -341,-141 3,-2 58,16 124,41 154,59 261,87 336,87 43,0 57,3 46,10 -15,10 -128,12 -165,3 z"
           id="path1990" /><path
           d="m 3570,8237 c 0,-3 25,-19 56,-37 37,-21 60,-41 69,-63 14,-31 14,-31 15,-6 0,26 -23,53 -70,82 -28,16 -70,31 -70,24 z"
           id="path1992" /><path
           d="m 4503,8179 c 45,-11 90,-33 135,-67 36,-28 44,-16 10,15 -38,34 -105,63 -145,62 l -38,-1 z"
           id="path1994" /><path
           d="m 3285,8122 c 17,-10 50,-30 75,-45 137,-77 204,-225 151,-330 -21,-42 -15,-48 17,-14 114,122 -29,370 -233,402 l -40,6 z"
           id="path1996" /><path
           d="m 4891,7934 c 26,-28 63,-76 84,-107 42,-64 54,-74 29,-24 -29,57 -75,115 -118,148 l -41,33 z"
           id="path1998" /><path
           d="m 3346,7902 c -26,-78 -35,-122 -26,-122 9,0 53,156 48,170 -2,5 -12,-16 -22,-48 z"
           id="path2000" /><path
           d="m 3423,7890 c -28,-87 -33,-110 -22,-110 4,0 13,19 19,43 6,23 16,57 21,75 6,18 9,38 6,45 -2,6 -13,-17 -24,-53 z"
           id="path2002" /><path
           d="m 1605,7899 c -72,-46 -154,-134 -228,-246 -82,-122 -127,-218 -166,-354 -45,-155 -61,-264 -67,-469 -6,-179 -7,-188 -40,-277 -32,-87 -45,-173 -25,-173 21,0 156,361 149,398 -6,31 -32,18 -48,-25 -8,-23 -18,-44 -20,-47 -6,-5 21,201 39,304 l 10,55 -4,-55 c -3,-30 -7,-84 -10,-120 -3,-42 -2,-58 3,-45 13,29 35,250 29,283 -10,52 40,224 103,357 48,100 138,237 151,230 5,-4 9,1 9,11 0,9 41,59 92,110 50,52 87,94 82,94 -6,0 -32,-14 -59,-31 z m -388,-811 c -3,-7 -5,-2 -5,12 0,14 2,19 5,13 2,-7 2,-19 0,-25 z"
           id="path2004" /><path
           d="m 2680,7921 c -187,-27 -387,-135 -565,-303 -178,-168 -344,-486 -461,-879 -42,-141 -60,-173 -50,-89 15,141 14,147 -10,40 -27,-124 -34,-251 -22,-410 l 7,-95 -41,160 -40,160 16,194 c 9,107 15,196 13,198 -5,5 -26,-154 -34,-260 l -6,-80 -24,94 c -14,52 -34,114 -46,139 -20,44 -21,44 -25,17 -10,-78 141,-739 293,-1275 135,-479 155,-543 194,-617 l 26,-50 3,50 c 3,49 4,50 18,25 15,-25 15,-24 11,16 -3,22 -16,65 -31,95 -14,30 -53,151 -87,269 -33,118 -85,298 -115,399 -30,101 -54,185 -54,187 0,6 49,-37 116,-103 111,-109 306,-187 512,-205 141,-13 252,-3 344,32 62,23 219,152 243,200 28,56 45,131 51,228 6,81 10,102 21,98 7,-3 33,2 56,11 58,24 167,23 242,-2 33,-10 61,-20 62,-20 1,0 7,-41 13,-90 24,-194 57,-274 147,-355 130,-116 223,-161 370,-181 167,-22 377,2 551,62 160,56 230,96 319,185 93,92 125,148 153,266 29,117 47,379 32,458 -9,53 -8,67 9,117 24,70 24,78 -2,30 -18,-34 -21,-36 -42,-25 -16,9 -95,14 -272,17 -385,5 -740,-28 -1006,-95 -183,-45 -248,-88 -269,-175 -7,-27 -13,-49 -13,-49 -1,0 -20,7 -42,15 -24,8 -79,14 -136,15 -80,0 -103,-4 -140,-23 l -45,-22 -12,60 c -9,50 -18,66 -50,97 -103,96 -525,163 -985,156 -130,-1 -237,0 -237,5 0,4 5,15 10,25 6,9 33,69 60,132 39,92 53,116 70,118 35,6 39,-8 24,-82 -24,-113 -6,-91 26,32 6,23 15,40 19,37 16,-10 166,-35 208,-35 24,0 48,6 57,15 14,14 22,14 73,1 111,-27 131,-28 150,-8 17,17 22,16 138,-29 66,-25 128,-50 138,-54 12,-5 17,-3 17,9 0,62 -237,169 -484,220 -129,27 -142,21 -51,-25 44,-22 71,-37 60,-34 -11,4 -62,17 -114,30 -51,13 -95,26 -98,28 -2,3 19,66 47,142 52,141 103,306 96,312 -3,3 -28,-64 -128,-342 -22,-60 -41,-111 -42,-112 -2,-2 -12,0 -23,4 -19,8 -18,12 17,144 46,172 102,270 235,403 195,197 427,312 615,304 l 72,-3 -98,-129 c -96,-128 -204,-291 -204,-309 0,-11 234,307 286,388 21,34 42,55 53,55 42,0 200,-32 256,-51 61,-21 125,-64 158,-106 23,-29 37,-21 37,19 0,45 -78,118 -156,148 -130,49 -362,78 -484,61 z m -801,-823 c -23,-74 -33,-96 -44,-91 -8,3 -15,9 -15,14 0,11 83,179 87,176 1,-2 -11,-46 -28,-99 z m -62,-144 c -3,-3 -12,-4 -19,-1 -8,3 -5,6 6,6 11,1 17,-2 13,-5 z m 473,-64 c 8,-5 11,-10 5,-10 -5,0 -17,5 -25,10 -8,5 -10,10 -5,10 6,0 17,-5 25,-10 z m 2157,-396 86,-7 -119,-33 c -65,-17 -175,-50 -244,-73 -68,-22 -125,-39 -127,-38 -1,2 31,27 73,57 78,56 98,74 67,63 -30,-11 -116,-70 -156,-107 -21,-19 -63,-44 -93,-56 -31,-11 -70,-28 -87,-37 -18,-9 -54,-22 -81,-29 l -49,-13 99,102 c 55,56 113,110 129,119 l 30,17 h -45 c -83,1 -249,-48 -330,-97 -26,-17 -170,-194 -170,-210 0,-15 66,60 103,116 23,34 48,62 57,62 9,0 50,11 90,25 40,14 78,25 84,25 5,0 -26,-37 -70,-82 -44,-46 -100,-106 -124,-134 -25,-28 -64,-63 -87,-79 -48,-31 -58,-65 -20,-65 30,0 240,117 287,161 25,23 46,33 62,31 13,-2 95,20 183,47 88,27 239,72 335,100 96,27 214,66 262,85 79,32 92,34 150,28 l 63,-7 -3,-70 c -5,-109 -39,-286 -73,-391 -27,-80 -38,-100 -72,-129 -53,-46 -198,-120 -305,-156 -102,-34 -366,-89 -431,-89 -63,0 -182,35 -271,80 -77,39 -180,119 -191,149 -4,9 -12,57 -19,106 l -13,90 64,65 c 107,110 212,230 200,230 -12,0 -189,-177 -228,-227 -14,-18 -29,-33 -33,-33 -4,0 -13,55 -19,123 -7,67 -14,131 -17,142 -5,19 7,23 138,53 329,74 668,106 915,86 z m -2622,-48 c 138,-67 461,-162 687,-201 l 98,-17 31,-52 c 60,-99 109,-156 132,-156 21,0 22,-4 22,-68 v -68 l -53,-45 c -71,-60 -149,-98 -257,-125 -107,-28 -232,-31 -320,-9 -72,18 -267,113 -314,152 l -33,29 22,88 c 12,48 19,90 16,93 -2,3 -17,-34 -32,-81 -14,-47 -30,-86 -34,-86 -4,0 -13,7 -20,15 -10,12 -9,32 5,100 22,110 15,155 -8,50 -10,-44 -21,-93 -26,-110 l -8,-30 -8,38 c -5,27 -1,70 13,140 12,56 19,103 17,105 -4,4 -44,-126 -46,-149 -1,-8 -5,2 -10,21 -5,19 -7,64 -4,100 3,41 1,56 -4,40 -6,-19 -10,-2 -15,65 -3,50 -9,114 -11,143 l -5,52 h 47 c 34,0 68,-10 118,-34 z m 300,19 c 153,-10 357,-34 410,-49 l 50,-14 -56,-1 c -75,-1 -174,-22 -157,-32 7,-5 26,-9 42,-9 24,0 27,-2 16,-15 -7,-9 -20,-13 -29,-11 -183,50 -463,131 -486,141 -5,3 19,2 55,0 36,-2 106,-7 155,-10 z m 1735,-77 c -19,-17 -79,-73 -133,-125 -102,-99 -148,-121 -61,-30 92,96 125,138 118,150 -4,7 -4,9 0,6 4,-4 28,2 54,12 62,24 63,24 22,-13 z M 2788,6276 c 2,-54 -1,-71 -19,-95 -12,-16 -19,-35 -17,-43 3,-8 11,-2 21,17 l 16,30 1,-70 c 0,-64 -1,-68 -13,-45 -7,14 -25,44 -40,67 -15,24 -27,45 -27,49 0,3 13,26 30,50 23,35 26,42 10,34 -10,-5 -26,-23 -35,-38 l -17,-28 -39,40 -40,39 33,35 c 43,44 65,52 103,36 29,-12 30,-15 33,-78 z m -249,58 c -10,-13 -10,-17 2,-25 11,-8 10,-9 -6,-5 -11,2 -35,7 -52,11 -32,6 -40,15 -26,28 3,4 26,7 51,7 39,0 43,-2 31,-16 z m 61,12 c 0,-2 -7,-7 -16,-10 -8,-3 -12,-2 -9,4 6,10 25,14 25,6 z m 27,-29 c -18,-18 -38,-31 -45,-28 -18,5 36,61 59,61 13,0 10,-7 -14,-33 z"
           id="path2006" /><path
           d="m 4327,6464 c -16,-9 -27,-18 -24,-20 3,-3 20,4 38,15 39,24 28,28 -14,5 z"
           id="path2008" /><path
           d="m 4025,6423 c -62,-44 -104,-82 -117,-107 -10,-18 -9,-18 19,-1 36,22 171,145 158,145 -5,0 -32,-17 -60,-37 z"
           id="path2010" /><path
           d="m 3975,6419 c -68,-43 -130,-95 -150,-125 -16,-25 -16,-25 7,-13 13,6 59,43 103,82 44,39 84,74 90,79 20,17 -3,7 -50,-23 z"
           id="path2012" /><path
           d="m 4594,6316 c -112,-76 -486,-507 -461,-532 12,-13 53,24 163,149 65,72 164,182 219,242 101,109 142,161 133,170 -2,2 -26,-11 -54,-29 z"
           id="path2014" /><path
           d="m 4686,6227 c -68,-118 -153,-304 -143,-313 5,-5 150,287 161,324 10,31 4,27 -18,-11 z"
           id="path2016" /><path
           d="m 4500,6049 c -80,-158 -118,-248 -85,-205 20,27 117,218 149,295 49,115 20,74 -64,-90 z"
           id="path2018" /><path
           d="m 4696,6059 c -37,-74 -49,-122 -21,-85 8,10 22,42 31,70 9,28 21,57 27,64 5,7 7,15 4,18 -3,3 -21,-27 -41,-67 z"
           id="path2020" /><path
           d="m 4416,5972 c -62,-123 -92,-197 -74,-186 16,10 140,272 136,286 -3,7 -30,-39 -62,-100 z"
           id="path2022" /><path
           d="m 4272,5805 c -17,-37 -14,-45 4,-12 9,16 14,31 11,33 -2,2 -9,-7 -15,-21 z"
           id="path2024" /><path
           d="m 3990,5773 c -14,-2 -55,-18 -92,-35 -115,-52 -75,-79 53,-36 65,22 129,57 129,71 0,7 -47,7 -90,0 z"
           id="path2026" /><path
           d="m 1704,6400 c 12,-67 219,-402 291,-470 l 36,-35 -6,30 c -4,17 -21,55 -38,85 -53,98 -229,364 -260,395 l -29,30 z"
           id="path2028" /><path
           d="m 1701,6264 c 0,-11 3,-14 6,-6 3,7 2,16 -1,19 -3,4 -6,-2 -5,-13 z"
           id="path2030" /><path
           d="m 2092,5873 c 2,-10 19,-23 38,-30 67,-21 239,-45 278,-38 l 37,7 -29,15 c -34,18 -242,63 -292,63 -28,0 -35,-3 -32,-17 z"
           id="path2032" /><path
           d="m 2694,6315 c -20,-19 -34,-38 -30,-42 4,-4 26,12 49,35 50,51 34,57 -19,7 z"
           id="path2034" /><path
           d="m 2705,6280 c -16,-16 -26,-33 -22,-36 8,-9 23,2 47,36 28,39 12,39 -25,0 z"
           id="path2036" /><path
           d="m 3883,7900 c -35,-21 -82,-81 -114,-143 -36,-70 -14,-61 54,21 36,44 76,83 87,87 44,14 72,-43 105,-215 38,-204 55,-234 55,-98 0,157 -44,319 -96,353 -31,20 -52,19 -91,-5 z"
           id="path2038" /><path
           d="m 3271,7874 c 0,-11 3,-14 6,-6 3,7 2,16 -1,19 -3,4 -6,-2 -5,-13 z"
           id="path2040" /><path
           d="m 4310,7870 c -11,-11 -20,-26 -20,-34 0,-21 20,-30 33,-17 6,6 30,11 53,11 79,0 191,-97 302,-261 88,-128 141,-269 217,-571 19,-75 47,-174 62,-220 l 28,-83 3,69 c 8,195 -92,583 -203,781 -76,137 -215,283 -310,326 -56,26 -139,25 -165,-1 z"
           id="path2042" /><path
           d="m 4117,7833 c -14,-13 -7,-41 11,-39 12,1 29,-22 57,-74 32,-61 40,-71 43,-51 12,80 -72,204 -111,164 z"
           id="path2044" /><path
           d="m 2931,7751 c -73,-86 -135,-169 -178,-240 -81,-134 -2,-40 172,203 41,59 73,106 70,106 -2,0 -31,-31 -64,-69 z"
           id="path2046" /><path
           d="m 3493,7785 c 0,-22 2,-30 4,-17 2,12 2,30 0,40 -3,9 -5,-1 -4,-23 z"
           id="path2048" /><path
           d="m 4372,7766 c -43,-95 -55,-181 -14,-99 27,53 44,110 40,130 -3,12 -11,2 -26,-31 z"
           id="path2050" /><path
           d="m 2606,7737 c -16,-29 -70,-115 -121,-192 -90,-136 -131,-205 -121,-205 10,0 208,304 242,372 41,82 42,99 0,25 z"
           id="path2052" /><path
           d="m 1610,7680 c -12,-50 -21,-93 -18,-96 6,-5 33,88 44,149 12,67 -2,39 -26,-53 z"
           id="path2054" /><path
           d="m 3072,7758 c -59,-75 -178,-266 -170,-274 5,-4 128,181 166,249 21,37 23,48 4,25 z"
           id="path2056" /><path
           d="m 3853,7712 c -38,-59 -96,-173 -90,-178 6,-6 26,26 81,129 53,98 57,122 9,49 z"
           id="path2058" /><path
           d="m 3163,7728 c -28,-31 -89,-128 -98,-157 -13,-42 12,-14 57,62 23,40 48,82 56,95 8,12 12,22 10,22 -3,0 -14,-10 -25,-22 z"
           id="path2060" /><path
           d="m 4131,7704 c -21,-36 -29,-66 -12,-48 10,10 42,84 36,84 -1,0 -12,-16 -24,-36 z"
           id="path2062" /><path
           d="m 2358,7608 c -134,-210 -215,-354 -205,-365 3,-2 24,28 48,69 23,40 72,123 110,184 66,109 123,214 116,214 -2,0 -33,-46 -69,-102 z"
           id="path2064" /><path
           d="m 4472,7673 c -34,-43 -76,-123 -69,-130 3,-2 24,28 48,69 23,40 46,79 52,86 5,6 7,12 4,12 -3,0 -19,-17 -35,-37 z"
           id="path2066" /><path
           d="m 1443,7590 c -53,-190 -103,-413 -89,-400 9,10 127,483 124,499 -2,9 -18,-36 -35,-99 z"
           id="path2068" /><path
           d="m 1536,7634 c -4,-14 -5,-28 -3,-31 3,-2 8,8 11,23 4,14 5,28 3,31 -3,2 -8,-8 -11,-23 z"
           id="path2070" /><path
           d="m 3341,7588 c -16,-29 -33,-66 -37,-83 -6,-26 -5,-28 8,-18 16,14 62,96 73,131 12,40 -13,23 -44,-30 z"
           id="path2072" /><path
           d="m 3892,7588 c -51,-75 -78,-139 -52,-123 11,7 93,165 86,165 -3,0 -18,-19 -34,-42 z"
           id="path2074" /><path
           d="m 4545,7582 c -57,-77 -85,-126 -85,-146 0,-21 20,6 91,127 31,51 27,64 -6,19 z"
           id="path2076" /><path
           d="m 1492,7483 c -40,-137 -64,-241 -60,-261 2,-9 25,69 52,172 53,204 58,260 8,89 z"
           id="path2078" /><path
           d="m 4150,7554 c -12,-19 -20,-38 -17,-40 3,-3 15,12 27,35 25,50 19,54 -10,5 z"
           id="path2080" /><path
           d="m 5447,7560 c -11,-43 -27,-238 -32,-400 -6,-212 10,-145 30,127 16,210 17,326 2,273 z"
           id="path2082" /><path
           d="m 2161,7505 c -44,-74 -152,-343 -151,-375 1,-13 27,43 80,175 33,79 69,163 80,185 27,52 20,63 -9,15 z"
           id="path2084" /><path
           d="m 4577,7443 c -45,-67 -72,-133 -49,-119 13,8 103,178 98,184 -2,2 -24,-28 -49,-65 z"
           id="path2086" /><path
           d="m 3950,7470 c -6,-11 -8,-20 -6,-20 3,0 10,9 16,20 6,11 8,20 6,20 -3,0 -10,-9 -16,-20 z"
           id="path2088" /><path
           d="m 5528,7350 c -5,-47 -7,-110 -7,-140 l 1,-55 9,40 c 5,22 8,85 7,140 l -3,100 z"
           id="path2090" /><path
           d="m 5043,7400 c 2,-8 16,-51 30,-95 14,-44 31,-100 37,-124 6,-23 14,-41 17,-37 10,9 -29,149 -59,211 -16,33 -27,53 -25,45 z"
           id="path2092" /><path
           d="m 4652,7348 c -35,-61 -75,-173 -70,-197 2,-9 20,18 39,59 40,84 74,179 66,186 -3,3 -18,-19 -35,-48 z"
           id="path2094" /><path
           d="m 1321,7389 c -6,-30 -60,-364 -65,-399 -4,-37 -3,-40 5,-20 15,36 71,378 66,403 -2,12 -5,19 -6,16 z"
           id="path2096" /><path
           d="m 4734,7224 c -16,-27 -38,-68 -48,-91 -18,-40 -22,-43 -58,-43 -70,0 -314,-62 -382,-97 -22,-12 -26,-17 -15,-24 11,-7 10,-9 -4,-9 -53,0 -381,-159 -364,-176 3,-3 35,7 73,21 124,48 210,72 416,120 232,53 368,92 368,105 0,5 33,19 73,32 l 72,23 -50,2 c -27,2 -64,5 -82,8 l -32,6 36,74 c 41,88 40,120 -3,49 z"
           id="path2098" /><path
           d="m 1008,7170 c -39,-60 -57,-325 -34,-499 8,-62 17,-116 19,-118 3,-2 7,115 10,259 3,145 10,283 17,307 15,61 10,84 -12,51 z"
           id="path2100" /><path
           d="m 5560,7153 c -28,-61 -40,-93 -35,-93 8,0 58,110 53,116 -3,2 -11,-8 -18,-23 z"
           id="path2102" /><path
           d="m 5578,7071 c -118,-79 -265,-241 -218,-241 5,0 42,28 82,63 40,35 114,94 163,131 106,79 119,96 76,96 -19,0 -56,-18 -103,-49 z"
           id="path2104" /><path
           d="m 3987,7056 c -91,-40 -184,-99 -245,-156 -54,-50 -62,-51 -24,-2 30,37 92,138 92,149 0,6 -80,-57 -116,-92 -12,-11 -42,-46 -67,-77 l -46,-58 5,68 c 6,66 6,67 -12,43 -10,-14 -27,-48 -39,-77 l -21,-53 -13,35 c -7,19 -16,34 -21,34 -20,0 -27,-206 -7,-226 3,-4 18,1 31,10 14,8 31,14 38,11 8,-3 22,12 36,37 12,24 34,57 48,73 l 26,30 -21,-36 c -37,-64 -23,-65 42,-3 82,80 140,126 268,212 100,68 153,112 133,112 -5,0 -44,-16 -87,-34 z m -297,-209 c 0,-2 -10,-12 -22,-23 l -23,-19 19,23 c 18,21 26,27 26,19 z"
           id="path2106" /><path
           d="m 4290,7069 c -175,-39 -323,-100 -467,-191 -56,-36 -139,-116 -129,-125 2,-2 59,25 127,61 68,36 192,94 274,129 204,87 329,151 288,146 -5,0 -46,-9 -93,-20 z"
           id="path2108" /><path
           d="m 5720,7025 c 0,-19 7,-77 15,-128 19,-125 45,-404 45,-496 0,-86 9,-151 20,-151 17,0 32,134 26,228 -20,282 -69,582 -96,582 -6,0 -10,-16 -10,-35 z"
           id="path2110" /><path
           d="m 5352,6968 c -34,-92 -44,-128 -39,-141 2,-6 18,32 36,87 34,105 36,143 3,54 z"
           id="path2112" /><path
           d="m 2550,6994 c 7,-10 34,-41 59,-67 l 46,-48 -75,34 c -68,32 -185,67 -220,67 -21,0 52,-47 113,-75 101,-44 321,-156 337,-170 9,-8 24,-15 32,-15 9,0 18,-6 21,-12 8,-25 35,11 47,63 13,52 10,82 -11,134 l -11,30 -18,-39 -18,-39 -15,29 c -8,16 -25,38 -37,49 l -23,20 5,-47 5,-47 -56,43 c -62,48 -133,90 -171,101 -23,7 -24,7 -10,-11 z"
           id="path2114" /><path
           d="m 5167,6898 c -56,-137 -89,-230 -83,-236 7,-6 103,234 131,326 16,55 -6,13 -48,-90 z"
           id="path2116" /><path
           d="m 4820,6914 c -26,-87 -38,-164 -23,-149 9,10 44,125 58,193 13,63 -12,31 -35,-44 z"
           id="path2118" /><path
           d="m 5208,6837 c -31,-73 -59,-145 -63,-162 l -6,-30 16,30 c 51,102 121,282 113,290 -2,2 -29,-55 -60,-128 z"
           id="path2120" /><path
           d="m 1453,6865 c 0,-38 2,-53 4,-32 2,20 2,52 0,70 -2,17 -4,1 -4,-38 z"
           id="path2122" /><path
           d="m 1621,6824 c 0,-11 3,-14 6,-6 3,7 2,16 -1,19 -3,4 -6,-2 -5,-13 z"
           id="path2124" /><path
           d="m 1742,6745 c -7,-38 -15,-78 -17,-87 -2,-10 1,-20 5,-23 10,-6 33,124 28,157 -2,13 -9,-7 -16,-47 z"
           id="path2126" /><path
           d="m 4855,6747 c -16,-39 -21,-97 -6,-81 11,12 33,105 27,112 -3,3 -13,-11 -21,-31 z"
           id="path2128" /><path
           d="m 5494,6670 c -50,-28 -94,-72 -94,-92 0,-6 21,2 46,17 l 45,27 -31,-61 c -37,-71 -50,-156 -27,-186 15,-19 16,-19 23,10 4,17 10,35 15,40 20,26 99,188 99,203 0,23 -21,-9 -69,-104 -30,-59 -39,-71 -44,-55 -5,22 49,163 66,170 5,2 24,16 41,32 l 31,28 -25,1 c -14,0 -48,-13 -76,-30 z"
           id="path2130" /><path
           d="m 5582,6558 c -64,-94 -191,-338 -176,-338 14,0 163,256 199,343 20,49 13,47 -23,-5 z"
           id="path2132" /><path
           d="m 1295,6540 c -3,-6 -4,-24 0,-40 4,-17 3,-30 -2,-30 -15,0 -73,-167 -72,-210 0,-25 28,35 50,108 21,67 39,100 39,70 0,-8 6,-21 14,-27 11,-9 15,-6 20,14 12,49 -29,147 -49,115 z"
           id="path2134" /><path
           d="m 1254,6515 c -29,-53 -59,-181 -44,-190 12,-7 63,158 58,188 -3,22 -4,22 -14,2 z"
           id="path2136" /><path
           d="m 5550,6416 c 0,-13 -43,-88 -95,-169 -52,-80 -95,-150 -95,-156 0,-19 116,68 181,135 l 61,65 -6,60 c -4,33 -10,67 -13,75 -9,23 -33,16 -33,-10 z m -35,-145 -36,-36 33,57 c 26,45 34,52 36,36 3,-14 -9,-33 -33,-57 z"
           id="path2138" /><path
           d="m 1301,6378 c -5,-13 -18,-47 -30,-76 -12,-29 -21,-65 -20,-80 1,-25 2,-24 20,13 24,52 24,36 -1,-43 -21,-67 -26,-117 -11,-108 5,3 17,37 26,75 18,67 19,69 42,58 16,-7 22,-16 18,-26 -4,-9 -9,-32 -11,-51 -4,-32 -2,-30 15,15 26,66 26,92 1,100 -11,3 -20,10 -20,15 0,5 -7,16 -16,24 -13,13 -14,24 -6,61 10,48 7,59 -7,23 z"
           id="path2140" /><path
           d="m 1105,6249 c 21,-107 139,-271 213,-297 l 32,-11 -22,32 c -13,18 -45,60 -73,94 -27,34 -68,95 -90,134 -45,82 -71,102 -60,48 z"
           id="path2142" /><path
           d="m 5460,5948 c -126,-122 -232,-228 -234,-235 -8,-19 19,-16 62,6 72,37 378,347 418,424 34,65 -26,17 -246,-195 z"
           id="path2144" /><path
           d="m 5116,5837 c -27,-35 -53,-107 -159,-432 -90,-275 -134,-430 -142,-495 -6,-52 -5,-54 10,-35 52,65 144,318 261,718 52,179 74,277 61,277 -3,0 -17,-15 -31,-33 z"
           id="path2146" /><path
           d="m 2940,5668 c -11,-18 -20,-36 -20,-39 0,-4 -15,-22 -32,-42 -37,-40 -77,-104 -59,-92 7,4 26,25 42,47 55,77 29,21 -34,-73 -35,-52 -70,-105 -77,-119 l -13,-25 27,24 c 26,24 26,24 -5,-35 -38,-71 -14,-52 34,28 l 34,57 -5,-50 c -5,-56 7,-63 36,-21 28,39 124,310 120,340 -4,38 -25,38 -48,0 z"
           id="path2148" /><path
           d="m 2885,5642 c -26,-18 -95,-107 -95,-121 0,-18 28,12 81,87 30,42 32,48 14,34 z"
           id="path2150" /><path
           d="m 4847,5420 c -10,-25 -37,-276 -36,-332 l 1,-53 19,57 c 26,83 45,254 32,303 -6,25 -12,34 -16,25 z"
           id="path2152" /><path
           d="m 2771,5260 c -18,-34 -31,-63 -29,-65 7,-7 70,103 66,115 -2,6 -18,-17 -37,-50 z"
           id="path2154" /><path
           d="m 4737,5225 c -3,-11 -13,-69 -21,-130 -9,-60 -28,-148 -44,-195 -16,-47 -32,-103 -36,-125 l -7,-40 26,38 c 15,21 33,52 40,70 14,31 14,31 8,-23 -5,-51 -4,-53 10,-35 30,40 82,235 63,235 -4,0 -16,-19 -27,-42 -11,-24 -18,-32 -15,-18 17,76 28,228 19,255 -9,27 -11,28 -16,10 z"
           id="path2156" /><path
           d="m 2777,5213 c -8,-10 -19,-31 -22,-48 -7,-29 -7,-30 9,-8 15,21 39,73 32,73 -1,0 -10,-8 -19,-17 z"
           id="path2158" /><path
           d="m 2845,5189 c -4,-5 -4,-21 -1,-35 4,-13 2,-34 -5,-45 -6,-11 -8,-24 -4,-27 3,-3 8,4 12,16 6,24 8,25 38,13 23,-10 55,4 55,23 0,14 -62,66 -79,66 -5,0 -13,-5 -16,-11 z"
           id="path2160" /><path
           d="m 3244,5190 c -61,-13 -126,-80 -79,-80 42,0 123,55 114,78 -2,4 -18,5 -35,2 z"
           id="path2162" /><path
           d="m 2800,5140 c -7,-17 -10,-33 -8,-36 3,-3 11,9 17,27 14,42 7,49 -9,9 z"
           id="path2164" /><path
           d="m 4661,5063 c -14,-49 -14,-149 -1,-115 12,27 25,152 17,152 -3,0 -11,-17 -16,-37 z"
           id="path2166" /><path
           d="m 4561,5008 c -26,-129 -40,-262 -29,-273 10,-10 41,155 51,268 6,65 -9,69 -22,5 z"
           id="path2168" /><path
           d="m 3693,4994 c -3,-9 -6,-41 -7,-71 -1,-69 18,-82 34,-23 17,63 -7,147 -27,94 z"
           id="path2170" /><path
           d="m 3226,4965 c -8,-21 -8,-83 0,-112 12,-43 24,-23 24,40 0,66 -12,102 -24,72 z"
           id="path2172" /><path
           d="m 3300,4891 c 0,-91 14,-129 25,-69 10,52 2,151 -12,156 -10,3 -13,-19 -13,-87 z"
           id="path2174" /><path
           d="m 3477,4958 c -4,-12 -7,-43 -7,-68 0,-25 3,-56 7,-68 10,-40 23,-3 23,68 0,71 -13,108 -23,68 z"
           id="path2176" /><path
           d="m 3570,4937 c 0,-24 6,-52 14,-62 13,-18 14,-18 20,3 8,25 -10,102 -24,102 -6,0 -10,-19 -10,-43 z"
           id="path2178" /><path
           d="m 2017,4869 c 3,-57 8,-117 13,-134 l 7,-30 8,30 c 9,33 -8,194 -23,221 -6,11 -8,-18 -5,-87 z"
           id="path2180" /><path
           d="m 3176,4939 c -9,-46 -7,-117 3,-123 14,-9 21,20 21,84 0,65 -14,87 -24,39 z"
           id="path2182" /><path
           d="m 3090,4900 c 0,-70 13,-109 26,-77 9,24 -2,117 -16,131 -7,7 -10,-10 -10,-54 z"
           id="path2184" /><path
           d="m 3750,4898 c 0,-79 13,-103 29,-57 20,57 12,119 -15,119 -11,0 -14,-16 -14,-62 z"
           id="path2186" /><path
           d="m 3847,4947 c -10,-27 -9,-167 2,-167 5,0 12,7 15,16 8,20 6,112 -3,144 -6,22 -8,23 -14,7 z"
           id="path2188" /><path
           d="m 4622,4943 c -23,-46 -63,-174 -60,-190 5,-25 42,56 63,137 16,62 15,88 -3,53 z"
           id="path2190" /><path
           d="m 3396,4897 c -8,-58 1,-98 15,-75 11,17 11,128 0,128 -5,0 -12,-24 -15,-53 z"
           id="path2192" /><path
           d="m 2095,4859 c 3,-47 11,-103 19,-125 l 15,-39 v 75 c -1,50 -7,92 -20,125 l -19,50 z"
           id="path2194" /><path
           d="m 2901,4926 c -8,-9 -17,-43 -19,-74 -4,-51 -3,-56 11,-43 19,15 30,64 25,106 -3,26 -4,27 -17,11 z"
           id="path2196" /><path
           d="m 2970,4901 c -10,-39 -5,-71 11,-71 5,0 9,25 9,55 0,30 -2,55 -5,55 -2,0 -9,-18 -15,-39 z"
           id="path2198" /><path
           d="m 2832,4895 c -15,-32 -16,-92 -2,-100 14,-8 30,38 30,86 0,45 -12,50 -28,14 z"
           id="path2200" /><path
           d="m 2746,4865 c -10,-20 -16,-52 -14,-73 l 3,-37 16,30 c 21,37 35,115 21,115 -5,0 -17,-16 -26,-35 z"
           id="path2202" /><path
           d="m 2651,4867 c -17,-43 -23,-94 -13,-101 16,-9 30,15 37,65 8,52 -9,77 -24,36 z"
           id="path2204" /><path
           d="m 2597,4853 c -14,-27 -21,-70 -18,-123 2,-23 3,-24 15,-7 13,17 31,145 22,154 -2,3 -11,-8 -19,-24 z"
           id="path2206" /><path
           d="m 4480,4803 c -13,-38 -40,-111 -61,-164 -20,-52 -41,-112 -44,-132 -5,-27 -19,-47 -54,-75 -67,-56 -76,-59 -46,-14 47,71 155,336 142,349 -14,14 -140,-246 -168,-347 -11,-42 -53,-100 -70,-100 -4,0 4,26 18,58 14,31 36,99 49,151 22,86 24,115 8,98 -8,-8 -101,-242 -121,-305 -12,-38 -27,-62 -53,-81 -58,-45 -61,-44 -30,6 38,61 100,233 100,276 l -1,32 -19,-36 c -29,-54 -97,-227 -112,-283 -11,-41 -22,-57 -68,-92 -30,-24 -55,-42 -57,-40 -2,1 11,40 28,87 28,75 58,204 59,252 0,26 -16,20 -29,-10 -20,-51 -71,-264 -71,-299 0,-40 -7,-47 -124,-133 -86,-62 -220,-180 -213,-187 2,-2 29,10 60,27 31,17 57,28 57,24 0,-3 -7,-37 -16,-74 -8,-38 -14,-93 -12,-122 l 3,-54 33,50 c 18,28 50,69 71,92 l 39,43 -6,-65 c -2,-36 -2,-65 0,-65 14,0 41,58 64,142 17,59 34,99 48,111 14,11 15,15 5,12 -13,-5 -18,2 -21,30 l -4,36 155,117 c 343,258 701,572 701,614 0,27 -35,10 -102,-51 -35,-31 -92,-81 -128,-111 -36,-29 -73,-61 -83,-69 -13,-11 -8,5 16,54 19,39 44,101 56,139 20,66 39,176 29,176 -2,0 -15,-30 -28,-67 z m -671,-893 c -15,-51 -32,-78 -76,-125 -31,-33 -53,-52 -50,-42 4,10 7,47 7,81 v 63 l 68,45 c 37,25 68,45 69,44 1,-1 -7,-31 -18,-66 z"
           id="path2208" /><path
           d="m 3917,4831 c -4,-19 -5,-36 -2,-39 10,-11 16,7 13,40 l -3,33 z"
           id="path2210" /><path
           d="m 2345,4820 c -11,-17 -11,-212 -1,-284 13,-84 26,-49 25,67 -2,152 -11,237 -24,217 z"
           id="path2212" /><path
           d="m 2519,4795 c -2,-78 2,-131 13,-180 l 12,-50 8,50 c 8,52 -5,175 -22,204 -7,12 -10,6 -11,-24 z"
           id="path2214" /><path
           d="m 2254,4728 c 5,-86 19,-127 30,-90 8,25 -8,125 -24,150 -9,13 -10,-2 -6,-60 z"
           id="path2216" /><path
           d="m 3976,4765 c -4,-19 -2,-43 3,-53 8,-13 10,-5 11,36 0,60 -5,67 -14,17 z"
           id="path2218" /><path
           d="m 3687,4692 c -30,-31 -35,-62 -11,-62 24,0 75,56 68,74 -9,23 -27,20 -57,-12 z"
           id="path2220" /><path
           d="m 2020,4692 c 0,-23 79,-109 326,-352 324,-319 475,-451 645,-564 58,-38 67,-52 110,-169 14,-38 25,-55 31,-49 12,12 -7,85 -34,129 l -19,32 66,-30 c 37,-17 69,-28 71,-26 9,8 -107,106 -246,208 -80,59 -192,148 -250,199 -95,84 -105,97 -102,124 7,81 4,228 -6,238 -18,18 -25,-32 -20,-146 l 3,-104 -199,192 c -206,198 -283,268 -334,305 -33,23 -42,26 -42,13 z"
           id="path2222" /><path
           d="m 2434,4580 c 7,-96 22,-163 37,-155 13,9 11,71 -6,144 -25,104 -37,108 -31,11 z"
           id="path2224" /><path
           d="m 2710,4637 c 0,-9 10,-23 22,-31 24,-17 78,-22 78,-8 0,16 -36,42 -68,48 -25,5 -32,3 -32,-9 z"
           id="path2226" /><path
           d="m 2513,4578 c -17,-38 -27,-166 -18,-234 l 8,-59 14,45 c 18,60 15,290 -4,248 z"
           id="path2228" /><path
           d="m 3025,4572 c -17,-4 -30,-14 -30,-22 0,-11 18,-17 66,-24 l 67,-8 -24,-35 c -30,-44 -33,-80 -4,-43 11,14 24,37 31,52 10,26 15,27 76,27 61,-1 64,-2 49,-18 -9,-10 -16,-24 -16,-32 1,-13 18,3 38,37 4,6 17,15 30,19 23,7 23,7 7,-27 l -16,-33 33,38 c 18,20 41,37 51,37 16,0 16,-2 1,-25 -9,-13 -14,-30 -12,-36 2,-7 15,5 28,27 30,48 36,63 20,48 -9,-9 -20,-8 -43,5 -25,12 -65,16 -177,18 -80,1 -158,-2 -175,-5 z"
           id="path2230" /><path
           d="m 3474,4538 c -11,-13 -26,-32 -34,-43 -14,-19 -14,-19 3,-6 18,14 62,71 54,71 -2,0 -12,-10 -23,-22 z"
           id="path2232" /><path
           d="m 3036,4486 c -18,-38 -21,-60 -7,-51 11,6 41,63 41,77 0,20 -19,5 -34,-26 z"
           id="path2234" /><path
           d="m 3183,4483 c -11,-15 -22,-35 -25,-44 -3,-8 -25,-21 -48,-28 -71,-21 -44,-36 62,-35 94,1 229,31 243,53 13,22 -176,26 -229,5 -18,-7 -18,-5 3,30 27,44 22,60 -6,19 z"
           id="path2236" /><path
           d="m 4542,4418 c -33,-80 -52,-142 -52,-172 0,-16 2,-17 16,-5 15,12 16,10 9,-21 -4,-19 -82,-255 -172,-525 -150,-449 -223,-690 -223,-733 1,-25 65,98 117,223 25,61 106,291 180,513 142,429 180,582 155,623 -11,17 -10,32 3,86 24,96 5,102 -33,11 z"
           id="path2238" /><path
           d="m 4452,4443 c -5,-10 -21,-49 -36,-88 -15,-38 -38,-83 -51,-100 l -25,-30 v 44 c 0,24 -3,41 -7,38 -3,-4 -29,-64 -58,-134 -28,-71 -75,-167 -105,-214 -76,-120 -83,-130 -61,-84 21,45 56,161 66,217 4,24 22,55 52,90 l 47,53 -42,-40 c -23,-21 -42,-36 -42,-33 0,3 12,27 26,52 48,85 18,59 -47,-41 -34,-54 -79,-118 -98,-143 -20,-25 -27,-38 -16,-30 19,15 19,15 2,-13 -23,-36 -40,-80 -28,-72 6,3 31,39 56,80 26,41 48,75 50,75 2,0 -8,-34 -21,-75 -13,-41 -25,-98 -27,-127 -3,-37 -14,-71 -37,-111 -18,-32 -30,-60 -27,-63 5,-5 70,91 119,176 15,25 34,54 43,65 15,19 16,19 10,-12 -4,-18 -4,-33 -1,-33 7,0 55,95 90,178 15,35 41,84 57,110 27,41 30,43 24,17 -4,-16 -13,-61 -21,-98 -13,-61 -29,-91 -153,-275 -76,-114 -151,-227 -166,-251 -46,-74 -125,-224 -121,-228 4,-5 43,54 119,177 31,51 205,316 360,550 9,14 26,39 38,55 l 23,30 -32,-29 c -37,-35 -38,-33 -12,28 39,92 80,228 80,267 0,41 -13,51 -28,22 z"
           id="path2240" /><path
           d="m 3847,4348 c -35,-77 -107,-328 -93,-328 11,0 54,95 79,175 23,75 43,185 33,185 -2,0 -11,-15 -19,-32 z"
           id="path2242" /><path
           d="m 2290,4329 c 0,-6 9,-47 21,-91 11,-44 18,-82 16,-85 -3,-2 -8,8 -11,22 -19,77 -48,135 -67,135 -24,0 -24,-17 1,-111 70,-259 96,-379 150,-673 40,-221 72,-356 104,-436 l 26,-65 -5,95 c -3,52 -10,131 -16,175 l -11,80 79,160 c 44,88 90,186 103,218 13,31 27,57 32,57 4,0 8,10 8,23 0,61 -69,217 -96,217 -9,0 -14,-6 -12,-12 3,-7 15,-42 27,-78 l 22,-65 -54,-97 c -29,-53 -71,-133 -92,-177 -21,-44 -42,-78 -46,-75 -4,2 -10,26 -14,54 -6,47 -4,55 64,189 77,151 96,195 82,186 -5,-3 -17,20 -26,50 -8,31 -29,70 -45,88 -33,36 -37,28 -15,-32 13,-38 13,-44 -4,-72 l -18,-30 -21,83 c -24,98 -57,178 -73,178 -7,0 -9,-8 -5,-22 4,-13 16,-58 27,-102 l 20,-78 -20,-44 c -12,-24 -21,-49 -21,-56 0,-24 -18,7 -24,42 l -6,35 14,-30 14,-30 1,51 c 1,69 -24,210 -50,279 -15,40 -25,55 -40,55 -10,0 -19,-5 -19,-11 z m 158,-456 c -13,-35 -26,-63 -30,-63 -4,0 -10,20 -13,45 -6,35 -2,57 16,100 l 23,56 13,-37 c 12,-34 11,-45 -9,-101 z m 112,98 c 11,-28 7,-39 -53,-160 l -65,-131 -10,47 c -10,43 -8,52 20,107 26,52 32,58 39,41 6,-15 8,-12 8,17 1,37 28,108 42,108 3,0 12,-13 19,-29 z m 128,-121 c 11,-17 3,-38 -56,-157 -38,-76 -84,-173 -103,-215 -25,-57 -36,-73 -41,-60 -19,49 -7,89 68,233 41,79 83,161 92,181 20,44 23,45 40,18 z"
           id="path2244" /><path
           d="m 2757,4324 c -11,-12 -8,-170 4,-201 l 11,-28 10,25 c 19,50 -2,226 -25,204 z"
           id="path2246" /><path
           d="m 2817,4203 c -6,-64 5,-198 16,-210 11,-11 27,76 27,149 0,130 -33,177 -43,61 z"
           id="path2248" /><path
           d="m 3689,4188 c -6,-24 -26,-81 -44,-128 -34,-88 -57,-161 -51,-167 7,-7 54,75 79,137 27,70 49,188 36,196 -4,2 -13,-15 -20,-38 z"
           id="path2250" /><path
           d="m 3185,4153 c -4,-21 -17,-97 -31,-169 -13,-72 -24,-146 -24,-165 l 1,-34 16,30 c 43,78 83,351 55,369 -7,4 -13,-8 -17,-31 z"
           id="path2252" /><path
           d="m 3087,4174 c -10,-17 -27,-175 -27,-254 1,-58 3,-71 11,-57 16,27 38,163 38,227 0,58 -11,100 -22,84 z"
           id="path2254" /><path
           d="m 3276,4148 c -27,-125 -57,-305 -54,-331 3,-30 4,-29 26,26 25,65 52,207 52,273 0,47 -16,69 -24,32 z"
           id="path2256" /><path
           d="m 2917,4153 c -10,-17 -18,-154 -12,-184 7,-30 9,-31 20,-16 17,24 28,118 20,168 -6,36 -18,49 -28,32 z"
           id="path2258" /><path
           d="m 3562,4108 c -22,-60 -48,-179 -56,-253 l -4,-50 23,50 c 27,57 75,233 75,276 0,45 -17,34 -38,-23 z"
           id="path2260" /><path
           d="m 3356,4120 c -16,-66 -46,-238 -51,-293 l -5,-62 22,45 c 43,90 70,259 50,310 l -10,25 z"
           id="path2262" /><path
           d="m 3457,4003 c -14,-60 -28,-126 -32,-148 -6,-38 -5,-39 10,-20 8,11 22,42 31,70 15,51 31,205 21,205 -3,0 -17,-48 -30,-107 z"
           id="path2264" /><path
           d="m 4018,4104 c -4,-6 -25,-61 -47,-123 -38,-106 -61,-211 -47,-211 25,0 109,246 104,306 -2,21 -6,34 -10,28 z"
           id="path2266" /><path
           d="m 2726,3935 c 4,-22 7,-60 7,-84 0,-27 3,-38 8,-30 11,18 11,17 43,-76 16,-44 38,-96 49,-115 20,-31 22,-33 25,-14 2,12 -4,49 -13,83 -14,56 -14,63 1,93 l 17,33 14,-40 c 7,-22 11,-45 9,-52 -3,-7 -2,-13 2,-13 4,0 18,-29 30,-64 13,-36 30,-70 38,-77 37,-30 -1,118 -59,229 l -22,42 -27,-32 -27,-33 -11,30 c -19,52 -49,109 -71,135 l -21,25 z"
           id="path2268" /><path
           d="m 4294,3768 c -81,-86 -307,-425 -384,-579 -50,-98 -18,-60 80,97 119,190 270,419 314,478 20,25 35,46 33,46 -2,0 -21,-19 -43,-42 z"
           id="path2270" /><path
           d="m 3552,3726 c -27,-30 -42,-39 -44,-30 -2,9 -15,-10 -30,-41 l -27,-56 22,-8 c 26,-10 37,2 37,40 0,16 18,45 51,82 28,31 46,57 41,57 -5,0 -28,-20 -50,-44 z"
           id="path2272" /><path
           d="m 3451,3730 c -48,-57 -61,-85 -61,-132 0,-44 13,-68 28,-53 4,4 6,35 5,71 -3,58 -1,66 28,99 18,20 30,37 28,39 -2,2 -15,-9 -28,-24 z"
           id="path2274" /><path
           d="m 2640,3523 c -87,-179 -123,-265 -94,-228 41,53 193,380 181,392 -2,2 -41,-72 -87,-164 z"
           id="path2276" /><path
           d="m 3309,3674 c -25,-31 -3,-162 24,-135 7,7 6,27 -6,68 -11,41 -13,61 -5,70 6,7 8,13 5,13 -2,0 -10,-7 -18,-16 z"
           id="path2278" /><path
           d="m 3943,3675 c -40,-72 -209,-470 -235,-554 -11,-35 -22,-71 -25,-80 -15,-47 79,134 138,265 87,195 141,340 137,368 -3,21 -4,21 -15,1 z"
           id="path2280" /><path
           d="m 3195,3608 c 14,-85 63,-125 51,-43 -7,56 -22,85 -42,85 -13,0 -15,-8 -9,-42 z"
           id="path2282" /><path
           d="m 2760,3602 c 0,-24 116,-365 142,-417 40,-82 52,-91 43,-35 -17,109 -185,519 -185,452 z"
           id="path2284" /><path
           d="m 2694,3508 c -67,-124 -149,-316 -140,-325 6,-6 96,179 140,287 28,69 28,92 0,38 z"
           id="path2286" /><path
           d="m 4161,3447 c -34,-49 -105,-190 -116,-227 -6,-23 -5,-22 12,5 25,40 142,265 137,265 -1,0 -16,-19 -33,-43 z"
           id="path2288" /><path
           d="m 2686,3383 c -33,-67 -70,-172 -63,-180 4,-3 15,14 26,39 29,68 71,188 66,188 -3,0 -15,-21 -29,-47 z"
           id="path2290" /><path
           d="m 2695,3230 c -16,-32 -21,-60 -6,-44 10,11 32,74 26,74 -3,0 -11,-13 -20,-30 z"
           id="path2292" /><path
           d="m 4430,3182 c 0,-5 9,-18 20,-30 11,-12 20,-23 20,-26 0,-2 -23,-21 -50,-41 -53,-39 -107,-101 -97,-112 4,-3 40,26 82,66 41,39 79,71 84,71 5,0 19,-8 31,-18 l 23,-18 -66,-53 c -37,-28 -81,-71 -99,-94 l -33,-42 30,22 c 17,12 63,54 103,93 l 73,70 87,-67 c 48,-36 93,-72 100,-78 11,-10 3,-18 -37,-45 -45,-28 -103,-90 -86,-90 4,0 35,25 70,55 34,30 68,55 74,55 6,0 23,-7 36,-16 l 25,-16 -50,-45 c -28,-25 -55,-55 -61,-66 -11,-20 -11,-20 17,1 16,11 45,36 63,56 40,41 47,43 79,16 l 24,-20 -56,-51 c -31,-28 -54,-54 -51,-57 3,-3 29,18 58,46 29,29 56,52 60,52 4,0 49,-31 99,-68 234,-174 668,-452 668,-429 0,10 -222,181 -410,317 -102,73 -288,208 -415,300 -273,197 -307,221 -362,249 -47,23 -53,25 -53,13 z"
           id="path2294" /><path
           d="m 2117,3025 c -411,-301 -566,-425 -725,-580 -113,-109 -167,-172 -130,-149 36,22 201,145 358,267 96,74 178,133 182,131 5,-3 11,1 14,9 3,9 33,37 67,63 l 62,49 -50,-62 c -211,-259 -306,-379 -343,-434 l -44,-64 51,53 c 48,50 219,263 364,453 61,80 152,164 178,164 6,0 18,10 27,21 9,12 49,48 87,80 l 70,59 -49,-70 c -28,-39 -99,-137 -159,-219 -97,-133 -179,-254 -201,-296 -4,-8 9,3 28,25 57,64 271,364 339,477 34,57 70,114 80,128 20,29 21,40 4,40 -7,0 -102,-65 -210,-145 z"
           id="path2296" /><path
           d="m 4304,3112 c -33,-30 -84,-94 -84,-107 0,-12 44,30 92,88 44,52 40,61 -8,19 z"
           id="path2298" /><path
           d="m 2258,2943 c -103,-154 -163,-253 -207,-342 -40,-77 -4,-33 70,87 40,64 105,170 145,234 74,119 108,178 101,178 -2,0 -51,-71 -109,-157 z"
           id="path2300" /><path
           d="m 2365,3007 c -21,-40 -71,-127 -112,-195 -84,-139 -103,-181 -49,-107 21,28 40,50 45,50 15,0 118,131 170,218 38,62 16,42 -50,-45 -34,-46 -65,-87 -69,-91 -4,-5 20,46 53,112 65,132 75,175 12,58 z m -102,-232 c -3,-9 -8,-14 -10,-11 -3,3 -2,9 2,15 9,16 15,13 8,-4 z"
           id="path2302" /><path
           d="m 2449,3033 c -13,-16 -12,-17 4,-4 9,7 17,15 17,17 0,8 -8,3 -21,-13 z"
           id="path2304" /><path
           d="m 4573,2917 c -22,-23 -46,-53 -53,-67 l -13,-25 28,25 c 36,33 89,100 83,105 -2,3 -23,-14 -45,-38 z"
           id="path2306" /><path
           d="m 2029,2837 c -36,-45 -76,-98 -89,-117 l -24,-35 28,25 c 32,29 160,199 155,205 -3,2 -34,-33 -70,-78 z"
           id="path2308" /><path
           d="m 4943,2692 c -26,-21 -55,-47 -63,-57 -14,-17 -14,-17 5,-7 25,14 122,101 113,102 -3,0 -28,-17 -55,-38 z"
           id="path2310" /><path
           d="m 1734,2618 c -102,-127 -120,-152 -158,-211 -61,-97 -24,-55 104,114 124,165 160,228 54,97 z"
           id="path2312" /><path
           d="m 5000,2626 c -20,-13 -42,-31 -50,-41 -14,-17 -13,-17 5,-7 22,12 93,71 85,71 -3,0 -21,-11 -40,-23 z"
           id="path2314" /><path
           d="m 5100,2477 c -61,-49 -86,-75 -77,-83 3,-3 36,24 74,60 37,36 66,66 63,66 -3,0 -30,-19 -60,-43 z"
           id="path2316" /><path
           d="m 5198,2450 c -49,-33 -87,-70 -71,-70 10,0 123,88 123,96 0,7 -7,4 -52,-26 z"
           id="path2318" /><path
           d="m 5262,2400 c -23,-17 -42,-33 -42,-36 0,-8 59,29 77,49 24,25 11,21 -35,-13 z"
           id="path2320" /><path
           d="m 5369,2343 c -13,-16 -12,-17 4,-4 9,7 17,15 17,17 0,8 -8,3 -21,-13 z"
           id="path2322" /><path
           d="m 5515,2324 c -34,-18 -77,-55 -70,-62 4,-4 105,66 105,74 0,6 -2,5 -35,-12 z"
           id="path2324" /></g></g></g></svg>
