<?xml version="1.0" encoding="UTF-8" standalone="no"?>
<!-- Created with Inkscape (http://www.inkscape.org/) -->

<svg
   width="973.74609mm"
   height="1365.3134mm"
   viewBox="0 0 973.74609 1365.3134"
   version="1.1"
   id="svg5"
   xml:space="preserve"
   inkscape:version="1.2.1 (9c6d41e410, 2022-07-14)"
   sodipodi:docname="post djs.svg"
   xmlns:inkscape="http://www.inkscape.org/namespaces/inkscape"
   xmlns:sodipodi="http://sodipodi.sourceforge.net/DTD/sodipodi-0.dtd"
   xmlns="http://www.w3.org/2000/svg"
   xmlns:svg="http://www.w3.org/2000/svg"><sodipodi:namedview
     id="namedview7"
     pagecolor="#ffffff"
     bordercolor="#000000"
     borderopacity="0.25"
     inkscape:showpageshadow="2"
     inkscape:pageopacity="0.0"
     inkscape:pagecheckerboard="0"
     inkscape:deskcolor="#d1d1d1"
     inkscape:document-units="mm"
     showgrid="false"
     inkscape:zoom="0.16110414"
     inkscape:cx="4363.6372"
     inkscape:cy="-10213.89"
     inkscape:window-width="1920"
     inkscape:window-height="991"
     inkscape:window-x="-9"
     inkscape:window-y="-9"
     inkscape:window-maximized="1"
     inkscape:current-layer="layer5" /><defs
     id="defs2"><style
       id="style2">.cls-1{fill:#273184;}.cls-2{fill:#c7371b;}</style><style
       id="style2-8">.cls-1{fill:#273184;}.cls-2{fill:#c7371b;}</style></defs><g
     inkscape:groupmode="layer"
     id="layer6"
     inkscape:label="DJ NOKAP 1"
     transform="translate(-106.3882,-60.954272)"><g
       id="g8377"
       inkscape:label="DJ NOKAP"
       style="display:inline"
       transform="translate(0,-159.20991)"
       inkscape:export-filename=".\dj_nokap_perso"
       inkscape:export-xdpi="96"
       inkscape:export-ydpi="96"><path
         style="fill:#ffffff;fill-opacity:1;stroke-width:4.99999;stroke-linecap:square;stroke-miterlimit:6.1;paint-order:markers fill stroke"
         d="m 158.10447,1526.3731 821.55225,59.1045 -229.02987,-223.1194 79.79105,-246.7612 59.10448,-156.62685 26.597,28.0746 115.25372,-112.2985 4.4329,-42.85075 44.3283,-97.52238 -2.9552,-59.10447 -59.1045,-59.10448 2.9552,-59.10447 -76.83577,-69.44776 v -99.00001 l -97.5224,-66.49252 -48.7612,-65.01494 -96.04478,-1.47761 -100.47761,-35.46268 -84.22386,28.07462 -113.77612,5.91045 -91.61193,56.14925 -26.59703,91.61194 -82.74627,91.61194 -16.25373,147.7612 -33.98507,59.10448 -45.80597,26.597 2.95522,56.14927 48.76119,38.4179 63.53732,125.59701 54.67163,45.80596 45.80598,131.5074 c 18.22388,18.2239 29.05969,43.8359 47.28357,62.0598 l 22.16419,162.5373 z"
         id="path8189"
         sodipodi:nodetypes="cccccccccccccccccccccccccccccccccc"
         inkscape:label="dj nokap fond" /><g
         transform="matrix(0.17151203,0,0,-0.17151203,2.6268853,1933.6861)"
         fill="#000000"
         stroke="none"
         id="g548"
         inkscape:label="DJ NOKAP"
         style="display:inline"><path
           d="m 3307,9839 c -45,-10 -86,-31 -146,-72 -97,-66 -117,-70 -446,-77 l -300,-7 -82,-31 c -141,-52 -288,-168 -391,-307 -73,-100 -104,-175 -141,-344 -28,-125 -69,-200 -151,-270 -36,-31 -110,-101 -165,-156 -79,-79 -109,-117 -138,-176 -65,-131 -78,-203 -87,-474 -11,-329 -28,-405 -127,-578 -83,-146 -101,-197 -113,-326 -12,-133 -27,-173 -72,-201 -67,-40 -129,-20 -225,73 -48,46 -52,44 -24,-12 27,-51 92,-108 140,-121 90,-24 187,37 210,132 6,24 15,54 19,68 5,14 7,45 6,70 -6,93 6,124 161,405 15,27 16,28 11,5 -13,-65 -27,-201 -23,-217 3,-10 5,-2 6,17 1,19 8,69 16,110 l 14,75 -6,-80 c -2,-44 -7,-89 -9,-100 -4,-16 -3,-17 4,-5 12,18 36,265 29,284 -3,8 1,52 9,98 8,45 19,189 23,318 10,253 19,306 72,419 37,79 124,188 204,254 104,85 186,170 211,219 13,26 35,94 48,151 50,210 90,294 196,410 76,82 154,144 237,186 108,54 154,61 433,66 140,3 273,8 295,11 58,9 111,32 189,82 87,57 159,76 251,68 80,-6 278,-55 350,-86 70,-30 90,-21 38,17 -42,30 -194,79 -322,103 -64,12 -151,12 -204,-1 z M 1267,7458 c -2,-13 -4,-5 -4,17 -1,22 1,32 4,23 2,-10 2,-28 0,-40 z"
           id="path182" /><path
           d="m 4075,9659 c -106,-18 -85,-29 56,-28 242,0 359,-29 431,-109 18,-20 55,-77 82,-125 81,-144 152,-198 378,-288 138,-55 235,-129 281,-214 24,-45 28,-147 13,-311 -16,-172 32,-267 231,-452 62,-57 129,-128 150,-159 l 38,-55 6,-142 c 6,-164 11,-177 96,-256 116,-110 150,-147 181,-201 47,-83 65,-165 60,-279 -3,-81 -8,-105 -32,-151 -15,-30 -39,-76 -53,-104 -31,-61 -40,-124 -23,-166 16,-38 30,-22 30,38 0,31 15,72 61,161 57,112 61,125 66,204 7,104 -14,209 -59,300 -24,48 -58,89 -144,173 -62,61 -118,123 -123,138 -6,16 -11,77 -11,137 0,175 -9,191 -205,386 -206,204 -220,230 -219,384 1,58 3,150 5,205 5,131 -15,178 -112,270 -75,70 -116,94 -255,148 -50,19 -109,44 -131,56 -68,34 -145,113 -193,197 -24,44 -55,93 -68,111 -33,45 -105,90 -177,112 -73,23 -275,34 -360,20 z"
           id="path184" /><path
           d="m 2192,9433 c -39,-74 -143,-305 -139,-310 2,-1 16,24 32,57 15,32 32,57 36,55 4,-3 5,5 2,17 -3,15 -2,19 4,10 6,-8 24,26 55,105 26,65 45,119 44,121 -2,1 -17,-24 -34,-55 z m -41,-120 c -12,-20 -14,-14 -5,12 4,9 9,14 11,11 3,-2 0,-13 -6,-23 z"
           id="path186" /><path
           d="m 4290,9351 c 0,-6 4,-13 10,-16 6,-3 7,1 4,9 -7,18 -14,21 -14,7 z"
           id="path188" /><path
           d="m 4310,9311 c 0,-6 4,-13 10,-16 6,-3 7,1 4,9 -7,18 -14,21 -14,7 z"
           id="path190" /><path
           d="m 2026,9235 c -9,-26 -7,-32 5,-12 6,10 9,21 6,23 -2,3 -7,-2 -11,-11 z"
           id="path192" /><path
           d="m 2006,9185 c -9,-26 -7,-32 5,-12 6,10 9,21 6,23 -2,3 -7,-2 -11,-11 z"
           id="path194" /><path
           d="m 4480,9131 c 0,-6 4,-13 10,-16 6,-3 7,1 4,9 -7,18 -14,21 -14,7 z"
           id="path196" /><path
           d="m 4120,8331 c 0,-6 4,-13 10,-16 6,-3 7,1 4,9 -7,18 -14,21 -14,7 z"
           id="path198" /><path
           d="m 2650,8311 c 0,-6 4,-13 10,-16 6,-3 7,1 4,9 -7,18 -14,21 -14,7 z"
           id="path200" /><path
           d="m 2550,8271 c 0,-6 4,-13 10,-16 6,-3 7,1 4,9 -7,18 -14,21 -14,7 z"
           id="path202" /><path
           d="m 2515,8210 c 9,-16 18,-30 21,-30 2,0 -2,14 -11,30 -9,17 -18,30 -21,30 -2,0 2,-13 11,-30 z"
           id="path204" /><path
           d="m 2570,8235 c 0,-5 5,-17 10,-25 5,-8 10,-10 10,-5 0,6 -5,17 -10,25 -5,8 -10,11 -10,5 z"
           id="path206" /><path
           d="m 5393,8055 c 0,-44 2,-61 4,-37 2,23 2,59 0,80 -2,20 -4,1 -4,-43 z"
           id="path208" /><path
           d="m 5457,8070 c -14,-94 -32,-338 -23,-329 8,8 37,306 34,340 -4,33 -4,33 -11,-11 z"
           id="path210" /><path
           d="m 5527,7928 c -13,-136 -19,-243 -14,-237 8,6 31,289 24,295 -2,2 -7,-24 -10,-58 z"
           id="path212" /><path
           d="m 5601,7792 c -8,-100 -12,-185 -9,-187 8,-8 30,255 26,315 -2,35 -8,-10 -17,-128 z"
           id="path214" /><path
           d="m 5700,7680 c 0,-90 2,-161 5,-158 8,8 9,307 1,315 -3,3 -6,-67 -6,-157 z"
           id="path216" /><path
           d="m 3063,7643 c -18,-10 -46,-36 -64,-58 -62,-78 -89,-163 -104,-330 -14,-156 -41,-242 -92,-293 -7,-8 -25,-29 -39,-48 -15,-19 -33,-34 -40,-34 -8,0 -14,-8 -14,-19 0,-10 -7,-24 -15,-31 -9,-8 -15,-9 -15,-2 0,6 -24,37 -54,70 -54,57 -55,61 -95,208 -35,132 -80,270 -66,204 15,-73 107,-415 116,-431 14,-27 6,-24 -47,17 -51,39 -123,78 -130,71 -3,-3 28,-35 68,-72 40,-37 69,-66 63,-63 -5,2 -45,21 -87,43 l -78,39 -50,151 c -27,82 -64,177 -80,210 -17,33 -28,51 -24,40 16,-54 117,-342 126,-358 15,-29 5,-30 -55,-3 l -55,24 -47,143 c -25,79 -55,159 -66,178 -11,20 -17,27 -14,16 72,-214 105,-319 101,-322 -2,-2 -26,6 -52,19 -48,23 -49,24 -80,118 -40,120 -53,154 -59,148 -4,-4 51,-187 70,-232 7,-16 6,-17 -14,-6 -37,19 -34,5 4,-24 37,-29 79,-93 54,-84 -8,3 -38,13 -67,23 -29,9 -56,24 -59,32 -4,10 -8,11 -13,4 -5,-8 -28,-7 -81,6 -41,9 -75,18 -77,19 -2,1 15,30 37,64 22,34 44,79 48,99 15,71 7,242 -16,333 -13,52 -19,98 -15,115 l 6,28 -17,-24 c -19,-25 -18,-68 6,-221 14,-92 5,-198 -21,-258 -11,-24 -54,-87 -96,-138 l -77,-94 -51,2 -51,3 -24,87 c -30,109 -39,109 -12,0 25,-97 25,-92 4,-93 -14,0 -13,-3 5,-11 13,-7 27,-27 34,-50 10,-36 9,-44 -12,-84 -16,-28 -27,-39 -31,-31 -4,7 -23,66 -43,132 -19,66 -35,114 -36,106 0,-20 28,-127 52,-198 l 21,-62 -30,-68 c -17,-37 -34,-77 -38,-88 -5,-14 -19,21 -51,125 -25,80 -56,170 -68,201 l -22,56 57,67 c 110,130 177,306 151,400 -14,50 -29,41 -29,-16 -1,-142 -63,-265 -216,-426 -181,-189 -238,-290 -239,-421 0,-72 11,-109 44,-150 l 21,-26 -7,25 c -17,65 -18,187 -2,242 19,65 78,158 152,237 l 52,56 7,-30 c 4,-16 33,-125 66,-242 65,-233 71,-293 47,-460 l -12,-83 -22,21 -22,20 19,72 c 28,108 41,196 31,214 -7,11 -10,4 -14,-28 -9,-77 -50,-239 -59,-233 -38,23 39,-96 82,-128 33,-25 69,-42 69,-33 0,2 -14,20 -31,39 -30,34 -30,37 -23,106 4,39 9,69 11,67 2,-3 12,-33 23,-68 10,-35 19,-57 21,-49 6,46 5,60 -2,60 -5,0 -9,19 -9,43 0,35 10,15 59,-128 32,-93 97,-271 143,-395 47,-124 121,-324 166,-445 97,-265 114,-306 136,-324 42,-35 18,43 -157,519 -58,157 -131,350 -162,430 -64,163 -157,441 -175,522 -15,66 -3,136 40,226 32,67 110,194 141,228 l 19,20 162,-28 c 199,-33 317,-45 303,-30 -17,18 -294,82 -407,94 l -27,3 35,42 35,42 45,-21 c 25,-11 83,-33 127,-48 45,-16 127,-47 181,-70 113,-46 245,-83 279,-77 21,3 21,4 -5,15 -26,11 -47,32 -30,32 4,0 33,-12 63,-26 30,-15 78,-37 108,-50 43,-19 52,-27 46,-41 -38,-96 -48,-135 -49,-205 -1,-65 -3,-77 -16,-73 -39,11 -138,25 -174,24 -38,0 -39,-1 -16,-10 22,-9 23,-11 8,-20 -10,-5 -23,-19 -29,-31 -10,-18 -7,-18 23,6 19,14 40,26 47,26 14,0 264,-61 269,-66 2,-1 -11,-16 -30,-33 -18,-17 -28,-31 -22,-31 5,0 23,13 38,29 25,26 32,28 52,19 13,-6 27,-8 31,-5 13,14 -29,44 -85,62 -31,11 -60,22 -65,25 -19,16 32,242 63,273 4,5 22,10 39,11 23,2 31,-2 31,-15 0,-9 6,-22 14,-28 11,-9 15,-6 20,14 7,28 -2,101 -16,128 -7,14 4,34 56,98 82,101 102,153 116,310 16,186 34,258 83,332 24,35 56,69 74,78 18,9 30,19 26,23 -9,9 -15,8 -50,-11 z m -873,-694 c 65,-39 82,-78 23,-54 -37,15 -73,48 -73,66 0,14 12,11 50,-12 z m 198,-118 c 3,-9 -6,-8 -33,3 -73,31 -90,42 -93,60 -4,16 5,14 59,-16 34,-19 65,-40 67,-47 z m -738,54 c 0,-3 -7,-17 -17,-31 -12,-19 -18,-22 -24,-12 -17,26 -10,48 16,48 14,0 25,-2 25,-5 z"
           id="path218" /><path
           d="m 1331,7423 c -13,-78 -21,-150 -19,-160 2,-10 14,48 27,129 13,80 21,152 19,160 -3,7 -15,-51 -27,-129 z"
           id="path220" /><path
           d="m 3232,7537 c 43,-35 66,-101 82,-237 8,-69 22,-145 32,-169 10,-25 49,-81 87,-125 108,-125 141,-207 152,-373 8,-121 24,-233 35,-233 4,0 10,30 14,68 10,101 17,133 30,131 24,-4 73,25 150,90 45,37 113,92 151,121 97,75 155,123 151,127 -5,6 -146,-76 -213,-124 -35,-24 -91,-70 -125,-101 -70,-64 -70,-65 25,76 39,56 68,105 65,108 -10,9 -132,-133 -166,-193 -19,-32 -31,-49 -29,-38 3,11 13,45 21,75 9,30 16,69 16,85 v 30 l -20,-25 c -11,-14 -27,-49 -37,-77 -9,-29 -19,-53 -23,-53 -3,0 -11,27 -17,60 -17,91 -62,176 -142,267 -40,46 -78,98 -86,117 -8,19 -21,86 -30,149 -23,178 -64,267 -123,267 h -27 z"
           id="path222" /><path
           d="m 4027,7493 c -20,-20 11,-112 49,-144 9,-8 64,-39 123,-69 120,-62 146,-91 156,-173 9,-73 -6,-171 -26,-175 -11,-2 -19,6 -23,24 -9,34 -68,175 -72,171 -2,-1 12,-43 31,-92 19,-50 34,-95 35,-102 0,-6 -20,-18 -45,-26 l -45,-16 -10,37 c -24,92 -81,254 -100,289 -12,21 -18,29 -14,18 43,-118 113,-339 109,-345 -3,-5 -22,-14 -43,-21 -117,-37 -322,-169 -322,-207 0,-7 30,8 66,33 73,50 183,104 321,159 106,41 103,41 103,22 0,-8 -21,-22 -47,-32 -55,-20 -143,-74 -143,-87 0,-5 8,-6 18,-2 35,14 173,65 176,65 2,0 3,-39 3,-87 0,-95 17,-146 65,-189 23,-22 88,-58 88,-50 0,2 -20,28 -45,57 -56,66 -67,102 -63,204 l 3,79 93,27 c 55,16 92,22 92,16 0,-6 6,-4 13,5 14,19 77,35 77,19 0,-5 -10,-17 -21,-25 -21,-14 -21,-14 7,-18 20,-2 30,-10 36,-28 7,-24 8,-24 4,3 -5,43 20,33 37,-15 9,-24 16,-35 16,-26 1,9 -3,28 -9,43 -11,28 -9,29 46,39 l 32,5 11,-77 c 7,-46 31,-125 60,-197 26,-66 60,-163 75,-215 28,-99 64,-165 116,-215 16,-16 30,-38 30,-49 -1,-63 -127,-529 -206,-761 -52,-152 -80,-275 -63,-275 15,0 35,51 108,265 101,301 192,676 206,851 7,85 -5,88 -26,6 l -11,-42 -31,47 c -41,64 -70,134 -92,218 -10,39 -40,126 -68,195 -36,90 -51,142 -55,190 l -4,66 68,21 69,21 -69,1 -69,1 7,38 c 26,154 29,230 13,298 -18,73 -71,163 -109,188 -33,21 -75,30 -83,17 -3,-6 2,-14 12,-17 62,-20 111,-81 137,-173 19,-64 19,-118 3,-221 l -13,-75 -22,75 c -23,74 -92,233 -99,227 -2,-2 10,-35 25,-73 31,-74 75,-211 75,-231 0,-7 4,-13 9,-13 10,0 11,-37 1,-43 -5,-3 -29,-8 -55,-12 -40,-6 -48,-5 -48,9 0,9 6,16 13,16 6,1 26,7 42,15 l 30,15 -48,-3 -49,-2 -38,133 c -21,74 -42,137 -46,140 -4,4 -4,-4 0,-18 44,-160 68,-261 63,-267 -12,-11 -17,1 -43,98 -29,112 -75,252 -80,247 -2,-2 15,-67 37,-143 22,-77 41,-155 42,-174 2,-30 -2,-35 -28,-42 -16,-5 -32,-5 -36,-1 -3,4 -25,76 -49,161 -24,85 -45,150 -47,144 -2,-6 15,-77 37,-158 23,-81 38,-151 33,-155 -17,-16 -153,-49 -153,-37 0,21 14,34 60,56 43,20 40,20 -22,6 l -27,-7 6,70 c 13,157 -31,227 -193,302 -105,50 -135,77 -159,146 -6,19 -15,31 -18,27 z m 658,-583 c 3,-5 -1,-10 -9,-10 -9,0 -16,5 -16,10 0,6 4,10 9,10 6,0 13,-4 16,-10 z"
           id="path224" /><path
           d="m 5751,7420 c -1,-41 -4,-82 -6,-91 -1,-9 -5,-88 -8,-175 l -6,-159 15,150 c 7,83 12,195 11,250 -3,92 -3,94 -6,25 z"
           id="path226" /><path
           d="m 1403,7425 c 0,-22 2,-30 4,-17 2,12 2,30 0,40 -3,9 -5,-1 -4,-23 z"
           id="path228" /><path
           d="m 3032,7410 c 0,-14 2,-19 5,-12 2,6 2,18 0,25 -3,6 -5,1 -5,-13 z"
           id="path230" /><path
           d="m 5818,7418 c -4,-9 -7,-144 -6,-300 0,-229 2,-266 9,-193 10,102 8,519 -3,493 z"
           id="path232" /><path
           d="m 2441,7380 c 0,-8 4,-22 9,-30 12,-18 12,-2 0,25 -6,13 -9,15 -9,5 z"
           id="path234" /><path
           d="m 3713,7375 c 10,-49 51,-185 54,-181 5,5 -31,139 -47,176 -7,17 -9,18 -7,5 z"
           id="path236" /><path
           d="m 5874,7100 c 0,-162 2,-229 3,-147 2,81 2,213 0,295 -1,81 -3,14 -3,-148 z"
           id="path238" /><path
           d="m 1386,7324 c -4,-31 -5,-59 -2,-61 2,-3 8,21 11,52 4,31 5,58 3,61 -3,2 -8,-21 -12,-52 z"
           id="path240" /><path
           d="m 3042,7360 c 0,-14 2,-19 5,-12 2,6 2,18 0,25 -3,6 -5,1 -5,-13 z"
           id="path242" /><path
           d="m 2544,7355 c 36,-133 119,-412 126,-424 8,-12 8,-8 4,14 -14,61 -115,398 -125,414 -8,13 -9,13 -5,-4 z"
           id="path244" /><path
           d="m 3523,7360 c 2,-8 17,-59 32,-113 15,-53 30,-95 32,-93 6,6 -46,186 -59,206 -8,13 -9,13 -5,0 z"
           id="path246" /><path
           d="m 3825,7354 c 3,-12 12,-41 20,-65 12,-38 14,-39 8,-9 -3,19 -12,49 -19,65 -8,17 -11,21 -9,9 z"
           id="path248" /><path
           d="m 3236,7337 c 3,-10 9,-15 12,-12 3,3 0,11 -7,18 -10,9 -11,8 -5,-6 z"
           id="path250" /><path
           d="m 2340,7334 c 0,-15 98,-300 99,-288 1,11 -88,286 -95,293 -2,2 -4,0 -4,-5 z"
           id="path252" /><path
           d="m 3601,7324 c 0,-11 3,-14 6,-6 3,7 2,16 -1,19 -3,4 -6,-2 -5,-13 z"
           id="path254" /><path
           d="m 3411,7314 c 0,-11 3,-14 6,-6 3,7 2,16 -1,19 -3,4 -6,-2 -5,-13 z"
           id="path256" /><path
           d="m 3456,7301 c 7,-38 42,-142 43,-126 1,6 -10,44 -24,85 -13,41 -22,60 -19,41 z"
           id="path258" /><path
           d="m 3250,7303 c 0,-4 5,-15 10,-23 8,-13 10,-13 10,2 0,9 -4,20 -10,23 -5,3 -10,3 -10,-2 z"
           id="path260" /><path
           d="m 3934,7295 c 3,-9 20,-63 37,-120 18,-58 34,-103 37,-101 6,6 -67,236 -74,236 -4,0 -4,-7 0,-15 z"
           id="path262" /><path
           d="m 3610,7290 c 0,-22 62,-254 72,-270 11,-18 10,-11 -33,155 -30,117 -39,142 -39,115 z"
           id="path264" /><path
           d="m 2681,7275 c 0,-5 6,-21 14,-35 8,-14 14,-20 14,-15 0,6 -6,21 -14,35 -8,14 -14,21 -14,15 z"
           id="path266" /><path
           d="m 5978,7130 c 2,-69 6,-127 8,-129 7,-8 3,175 -5,214 -5,24 -6,-9 -3,-85 z"
           id="path268" /><path
           d="m 1131,7224 c 0,-11 3,-14 6,-6 3,7 2,16 -1,19 -3,4 -6,-2 -5,-13 z"
           id="path270" /><path
           d="m 1241,7204 c 0,-11 3,-14 6,-6 3,7 2,16 -1,19 -3,4 -6,-2 -5,-13 z"
           id="path272" /><path
           d="m 1152,7180 c 0,-19 2,-27 5,-17 2,9 2,25 0,35 -3,9 -5,1 -5,-18 z"
           id="path274" /><path
           d="m 2710,7204 c 0,-18 33,-109 37,-99 2,6 -6,33 -17,60 -10,28 -19,45 -20,39 z"
           id="path276" /><path
           d="m 3012,7175 c 0,-16 2,-22 5,-12 2,9 2,23 0,30 -3,6 -5,-1 -5,-18 z"
           id="path278" /><path
           d="m 1111,7101 c -6,-51 -10,-95 -8,-98 7,-6 30,164 25,179 -3,7 -10,-29 -17,-81 z"
           id="path280" /><path
           d="m 1750,7175 c 0,-5 5,-17 10,-25 5,-8 10,-10 10,-5 0,6 -5,17 -10,25 -5,8 -10,11 -10,5 z"
           id="path282" /><path
           d="m 1600,7144 c -1,-26 78,-228 80,-203 0,4 -18,53 -40,110 -21,57 -39,99 -40,93 z"
           id="path284" /><path
           d="m 1143,7105 c 0,-22 2,-30 4,-17 2,12 2,30 0,40 -3,9 -5,-1 -4,-23 z"
           id="path286" /><path
           d="m 1675,7110 c 20,-66 44,-123 44,-110 1,8 -8,40 -20,70 -22,57 -37,83 -24,40 z"
           id="path288" /><path
           d="m 2942,7070 c 0,-14 2,-19 5,-12 2,6 2,18 0,25 -3,6 -5,1 -5,-13 z"
           id="path290" /><path
           d="m 1132,7035 c 0,-16 2,-22 5,-12 2,9 2,23 0,30 -3,6 -5,-1 -5,-18 z"
           id="path292" /><path
           d="m 2952,7020 c 0,-14 2,-19 5,-12 2,6 2,18 0,25 -3,6 -5,1 -5,-13 z"
           id="path294" /><path
           d="m 5650,6993 c -66,-23 -241,-147 -261,-186 -10,-17 -8,-18 13,-12 34,11 184,113 237,162 43,40 46,48 11,36 z"
           id="path296" /><path
           d="m 3395,6956 c 10,-14 19,-26 22,-26 7,0 -17,39 -28,46 -6,3 -3,-5 6,-20 z"
           id="path298" /><path
           d="m 5700,6959 c 0,-12 11,-87 25,-168 13,-80 33,-213 44,-296 11,-82 24,-161 29,-175 9,-23 10,-21 17,24 17,106 -18,344 -86,599 -11,40 -29,50 -29,16 z"
           id="path300" /><path
           d="m 2872,6940 c 0,-8 4,-26 8,-40 6,-20 8,-21 8,-5 0,11 -3,29 -8,40 -5,12 -8,14 -8,5 z"
           id="path302" /><path
           d="m 3450,6897 c 0,-9 71,-117 77,-117 6,0 -34,70 -57,100 -11,14 -20,22 -20,17 z"
           id="path304" /><path
           d="m 2831,6864 c 0,-11 3,-14 6,-6 3,7 2,16 -1,19 -3,4 -6,-2 -5,-13 z"
           id="path306" /><path
           d="m 1411,6824 c -1,-15 30,-106 35,-101 2,2 -5,28 -15,58 -11,30 -20,49 -20,43 z"
           id="path308" /><path
           d="m 2781,6769 c 0,-13 4,-33 9,-44 7,-14 8,-8 3,20 -7,46 -13,59 -12,24 z"
           id="path310" /><path
           d="m 3500,6750 c 6,-11 13,-20 16,-20 2,0 0,9 -6,20 -6,11 -13,20 -16,20 -2,0 0,-9 6,-20 z"
           id="path312" /><path
           d="m 1232,6723 c -10,-20 -27,-111 -42,-227 -11,-86 -3,-186 12,-147 12,33 58,313 58,355 0,38 -13,47 -28,19 z"
           id="path314" /><path
           d="m 5505,6708 c -72,-38 -244,-228 -206,-228 5,0 26,19 47,43 22,23 68,69 104,101 57,52 108,107 98,106 -2,-1 -21,-10 -43,-22 z"
           id="path316" /><path
           d="m 3520,6715 c 0,-5 9,-23 20,-40 11,-16 20,-25 20,-20 0,6 -9,24 -20,40 -11,17 -20,26 -20,20 z"
           id="path318" /><path
           d="m 3500,6635 c 0,-5 5,-17 10,-25 5,-8 10,-10 10,-5 0,6 -5,17 -10,25 -5,8 -10,11 -10,5 z"
           id="path320" /><path
           d="m 5379,6455 c -93,-184 -116,-256 -43,-130 l 39,66 8,-41 c 5,-24 5,-46 -1,-53 -10,-13 -90,-165 -109,-209 -25,-57 -2,-25 53,73 31,56 65,110 75,120 11,11 19,23 19,28 0,5 18,47 40,92 51,105 52,139 1,40 -38,-75 -43,-78 -55,-28 -5,22 2,45 32,101 41,77 58,126 43,126 -4,0 -50,-83 -102,-185 z"
           id="path322" /><path
           d="m 3520,6586 c 0,-11 30,-66 36,-66 2,0 -3,15 -12,33 -19,36 -24,44 -24,33 z"
           id="path324" /><path
           d="m 1685,6560 c -12,-19 18,-42 115,-88 299,-139 580,-224 639,-193 11,7 21,17 21,23 0,6 15,24 33,40 19,17 24,25 11,19 -11,-5 -26,-16 -33,-24 -11,-14 -51,-12 -51,1 0,3 12,19 28,36 27,30 9,21 -35,-17 -20,-18 -26,-18 -75,-7 -29,7 -64,17 -78,23 -14,6 -31,11 -38,13 -51,10 -180,55 -312,109 -172,69 -215,82 -225,65 z"
           id="path326" /><path
           d="m 4631,6504 c -40,-7 -132,-29 -204,-49 -71,-19 -132,-33 -135,-30 -3,2 1,13 9,22 7,10 -2,4 -21,-13 -19,-17 -50,-36 -68,-42 -30,-10 -31,-10 -22,8 6,10 15,22 20,25 6,3 10,12 10,18 -1,7 -19,-8 -41,-33 -24,-26 -59,-52 -85,-61 l -43,-17 20,42 20,41 -30,-33 c -17,-18 -31,-39 -31,-46 0,-11 -65,-46 -86,-46 -3,0 8,17 23,37 l 28,38 -29,-23 c -47,-36 -59,-58 -46,-83 6,-11 17,-18 23,-16 96,37 425,135 572,172 183,45 345,92 345,101 0,9 -159,1 -229,-12 z"
           id="path328" /><path
           d="m 1352,6469 -9,-44 -13,30 -14,30 -4,-29 c -2,-16 1,-49 8,-74 6,-25 9,-70 6,-101 -5,-49 -5,-52 5,-26 16,41 17,41 34,19 14,-19 14,-19 15,1 0,11 -5,36 -10,56 -6,23 -7,59 -1,100 10,74 -3,103 -17,38 z"
           id="path330" /><path
           d="m 5521,6441 c -1,-60 -6,-75 -81,-219 -45,-85 -79,-156 -77,-159 9,-8 98,146 131,226 30,73 34,79 44,58 9,-19 11,-15 11,28 0,28 -6,68 -14,90 l -13,40 z"
           id="path332" /><path
           d="m 3531,6475 c 0,-5 6,-21 14,-35 8,-14 14,-20 14,-15 0,6 -6,21 -14,35 -8,14 -14,21 -14,15 z"
           id="path334" /><path
           d="m 2262,6427 c -24,-25 -28,-37 -13,-37 5,0 19,14 31,30 25,35 13,40 -18,7 z"
           id="path336" /><path
           d="m 4015,6423 c -113,-25 -345,-119 -395,-161 -30,-25 -20,-40 16,-23 l 26,11 -20,-27 c -27,-39 -74,-134 -69,-140 6,-6 75,105 89,144 9,25 24,37 67,56 31,14 58,23 60,21 2,-2 -19,-33 -48,-70 -28,-37 -51,-71 -51,-77 0,-22 72,60 96,109 l 25,52 117,46 c 129,51 160,66 127,65 -11,-1 -29,-3 -40,-6 z"
           id="path338" /><path
           d="m 4752,6418 c -6,-7 -37,-53 -70,-103 -33,-49 -92,-133 -131,-185 -100,-135 -127,-196 -67,-157 76,50 321,414 301,447 -8,14 -20,13 -33,-2 z"
           id="path340" /><path
           d="m 1640,6390 c 0,-5 60,-75 133,-155 121,-133 134,-150 150,-208 17,-61 17,-61 12,-14 l -5,47 41,-20 40,-21 -20,39 c -24,47 -207,249 -274,303 -48,38 -77,49 -77,29 z"
           id="path342" /><path
           d="m 2588,6352 c -31,-18 -39,-38 -10,-23 17,9 49,41 41,41 -2,0 -16,-8 -31,-18 z"
           id="path344" /><path
           d="m 3840,6278 c -16,-22 -30,-45 -30,-49 0,-4 -39,-35 -87,-68 -117,-80 -223,-169 -223,-187 0,-36 37,-19 176,78 199,139 270,210 193,193 l -30,-7 21,41 c 26,53 18,52 -20,-1 z"
           id="path346" /><path
           d="m 2700,6285 c -7,-9 -8,-15 -2,-15 5,0 12,7 16,15 3,8 4,15 2,15 -2,0 -9,-7 -16,-15 z"
           id="path348" /><path
           d="m 2580,6271 c 0,-27 177,-181 208,-181 37,0 28,40 -20,86 -105,100 -188,142 -188,95 z"
           id="path350" /><path
           d="m 5755,6242 c -16,-26 -66,-90 -109,-142 -209,-248 -247,-296 -265,-334 -48,-96 9,-47 173,149 172,206 221,270 241,318 31,74 5,80 -40,9 z"
           id="path352" /><path
           d="m 1150,6273 c 0,-50 143,-282 235,-381 55,-59 142,-129 150,-120 2,2 -36,51 -86,108 -49,58 -121,150 -158,205 -111,161 -141,201 -141,188 z"
           id="path354" /><path
           d="m 1661,6278 c -1,-8 33,-159 50,-222 6,-21 12,-36 15,-34 5,6 -40,201 -55,238 -5,14 -10,22 -10,18 z"
           id="path356" /><path
           d="m 5479,6180 c -75,-82 -105,-127 -95,-138 10,-9 120,109 151,161 15,27 25,50 22,53 -2,3 -38,-31 -78,-76 z"
           id="path358" /><path
           d="m 4782,6220 c 0,-14 2,-19 5,-12 2,6 2,18 0,25 -3,6 -5,1 -5,-13 z"
           id="path360" /><path
           d="m 4765,6150 c -4,-23 -5,-44 -2,-46 3,-3 8,13 12,36 4,23 5,44 2,46 -3,3 -8,-13 -12,-36 z"
           id="path362" /><path
           d="m 1794,6115 c 16,-85 28,-136 33,-131 6,5 -25,157 -33,165 -4,3 -3,-12 0,-34 z"
           id="path364" /><path
           d="m 4711,6094 c 0,-11 3,-14 6,-6 3,7 2,16 -1,19 -3,4 -6,-2 -5,-13 z"
           id="path366" /><path
           d="m 4651,6064 c 0,-11 3,-14 6,-6 3,7 2,16 -1,19 -3,4 -6,-2 -5,-13 z"
           id="path368" /><path
           d="m 4702,6050 c 0,-14 2,-19 5,-12 2,6 2,18 0,25 -3,6 -5,1 -5,-13 z"
           id="path370" /><path
           d="m 4631,5971 c -6,-41 -10,-76 -8,-78 7,-6 30,124 25,139 -2,6 -10,-21 -17,-61 z"
           id="path372" /><path
           d="m 4570,5983 c -6,-21 -13,-65 -15,-98 -4,-55 -3,-52 15,34 21,96 21,134 0,64 z"
           id="path374" /><path
           d="m 2020,5915 c 0,-5 5,-17 10,-25 5,-8 10,-10 10,-5 0,6 -5,17 -10,25 -5,8 -10,11 -10,5 z"
           id="path376" /><path
           d="m 2129,5878 c 10,-29 46,-41 200,-67 134,-23 178,-25 200,-12 35,22 -31,44 -249,81 -153,26 -162,26 -151,-2 z"
           id="path378" /><path
           d="m 4155,5856 c -128,-38 -244,-81 -271,-101 -14,-10 -16,-16 -7,-25 8,-9 60,2 218,49 196,59 255,82 255,102 0,18 -88,7 -195,-25 z"
           id="path380" /><path
           d="m 4501,5854 c 0,-11 3,-14 6,-6 3,7 2,16 -1,19 -3,4 -6,-2 -5,-13 z"
           id="path382" /><path
           d="m 4492,5790 c 0,-19 2,-27 5,-17 2,9 2,25 0,35 -3,9 -5,1 -5,-18 z"
           id="path384" /><path
           d="m 5268,5803 c -6,-30 10,-87 28,-100 26,-19 28,-10 10,51 -17,59 -32,78 -38,49 z"
           id="path386" /><path
           d="m 3000,5608 c -34,-133 -64,-224 -76,-231 -42,-24 -75,-90 -56,-109 6,-6 17,4 30,24 12,18 37,56 57,83 38,54 72,153 77,224 4,60 -17,66 -32,9 z"
           id="path388" /><path
           d="m 2996,5409 c -10,-17 -16,-33 -13,-36 3,-3 13,9 22,27 21,41 14,48 -9,9 z"
           id="path390" /><path
           d="m 3031,5411 c -24,-33 -29,-60 -8,-43 19,17 49,72 38,72 -5,0 -19,-13 -30,-29 z"
           id="path392" /><path
           d="m 3086,5416 c -9,-15 -16,-32 -14,-38 2,-6 12,1 22,16 9,15 16,32 14,38 -2,6 -12,-1 -22,-16 z"
           id="path394" /><path
           d="m 3142,5410 c -14,-23 -15,-30 -4,-30 5,0 14,11 20,25 14,30 2,34 -16,5 z"
           id="path396" /><path
           d="m 2860,5187 c 0,-15 27,-57 48,-74 22,-18 62,-16 62,2 0,8 -4,15 -8,15 -5,0 -27,16 -49,35 -45,38 -53,42 -53,22 z"
           id="path398" /><path
           d="m 3158,5134 c -32,-17 -37,-44 -9,-44 20,0 71,36 71,51 0,13 -31,10 -62,-7 z"
           id="path400" /><path
           d="m 2972,4930 c 0,-14 2,-19 5,-12 2,6 2,18 0,25 -3,6 -5,1 -5,-13 z"
           id="path402" /><path
           d="m 4700,4936 c -8,-8 -114,-83 -235,-166 -246,-171 -339,-241 -501,-380 -61,-52 -122,-104 -135,-115 -13,-10 -98,-80 -189,-154 -216,-176 -287,-238 -311,-273 l -21,-28 29,12 c 53,23 182,122 455,350 64,54 119,98 121,98 2,0 -33,-73 -79,-162 -46,-90 -83,-167 -84,-173 0,-22 59,79 131,223 72,143 80,156 150,218 85,75 274,222 268,208 -2,-5 -34,-71 -72,-146 -67,-138 -157,-335 -157,-347 0,-21 143,253 222,425 l 46,101 148,108 c 186,135 244,183 244,201 0,18 -12,18 -30,0 z"
           id="path404" /><path
           d="m 3352,4910 c 0,-19 2,-27 5,-17 2,9 2,25 0,35 -3,9 -5,1 -5,-18 z"
           id="path406" /><path
           d="m 3091,4914 c 0,-11 3,-14 6,-6 3,7 2,16 -1,19 -3,4 -6,-2 -5,-13 z"
           id="path408" /><path
           d="m 2811,4874 c 0,-11 3,-14 6,-6 3,7 2,16 -1,19 -3,4 -6,-2 -5,-13 z"
           id="path410" /><path
           d="m 2090,4754 c 0,-9 17,-37 38,-63 22,-25 81,-102 132,-171 185,-247 382,-455 550,-579 79,-59 187,-121 210,-121 28,0 -2,28 -127,122 -163,121 -313,261 -313,292 0,14 -3,17 -8,8 -6,-9 -21,1 -53,35 -62,67 -137,157 -194,233 -81,107 -184,227 -210,244 -23,15 -25,15 -25,0 z"
           id="path412" /><path
           d="m 3703,4715 c 0,-27 2,-38 4,-22 2,15 2,37 0,50 -2,12 -4,0 -4,-28 z"
           id="path414" /><path
           d="m 2511,4714 c 0,-11 3,-14 6,-6 3,7 2,16 -1,19 -3,4 -6,-2 -5,-13 z"
           id="path416" /><path
           d="m 4596,4708 c -20,-32 -45,-97 -138,-363 -251,-720 -332,-993 -362,-1225 l -6,-45 20,50 c 11,28 38,111 61,185 93,310 118,387 274,855 154,463 185,565 171,565 -3,0 -12,-10 -20,-22 z"
           id="path418" /><path
           d="m 4431,4579 c -138,-257 -288,-576 -221,-470 57,90 252,460 280,530 39,101 14,75 -59,-60 z"
           id="path420" /><path
           d="m 3440,4624 c -78,-44 -129,-84 -106,-84 56,0 206,77 206,105 0,24 -30,17 -100,-21 z"
           id="path422" /><path
           d="m 2553,4605 c 0,-27 2,-38 4,-22 2,15 2,37 0,50 -2,12 -4,0 -4,-28 z"
           id="path424" /><path
           d="m 2660,4630 c 0,-27 183,-83 257,-78 l 48,3 -31,17 c -34,19 -216,68 -251,68 -13,0 -23,-4 -23,-10 z"
           id="path426" /><path
           d="m 3993,4560 c 0,-30 2,-43 4,-27 2,15 2,39 0,55 -2,15 -4,2 -4,-28 z"
           id="path428" /><path
           d="m 3874,4490 c 0,-52 1,-74 3,-47 2,26 2,68 0,95 -2,26 -3,4 -3,-48 z"
           id="path430" /><path
           d="m 3061,4551 c -25,-16 0,-31 54,-31 60,0 109,15 100,30 -8,12 -135,13 -154,1 z"
           id="path432" /><path
           d="m 3913,4515 c 0,-27 2,-38 4,-22 2,15 2,37 0,50 -2,12 -4,0 -4,-28 z"
           id="path434" /><path
           d="m 2905,4520 c -10,-11 -16,-22 -14,-25 7,-6 49,24 49,36 0,15 -16,10 -35,-11 z"
           id="path436" /><path
           d="m 3405,4500 c -16,-16 -26,-32 -23,-35 3,-3 17,10 32,30 33,43 29,45 -9,5 z"
           id="path438" /><path
           d="m 2984,4471 c -15,-23 -24,-44 -21,-47 3,-3 18,13 33,35 15,23 24,44 21,47 -3,3 -18,-13 -33,-35 z"
           id="path440" /><path
           d="m 3276,4463 c -25,-26 -46,-54 -46,-62 0,-9 3,-11 8,-5 5,5 28,30 52,57 57,63 45,72 -14,10 z"
           id="path442" /><path
           d="m 3056,4461 c -21,-22 -36,-45 -34,-52 2,-7 20,8 42,35 48,58 43,69 -8,17 z"
           id="path444" /><path
           d="m 3143,4477 c -28,-31 -53,-70 -53,-82 0,-10 36,29 67,73 21,31 11,38 -14,9 z"
           id="path446" /><path
           d="m 3199,4436 c -41,-53 -46,-56 -89,-57 -25,-1 -56,-4 -70,-9 l -25,-7 28,-8 c 32,-9 224,-2 234,8 12,13 -5,19 -51,19 -25,0 -46,2 -46,5 0,3 16,26 36,50 20,24 34,46 31,49 -3,3 -24,-20 -48,-50 z"
           id="path448" /><path
           d="m 3807,4365 c 3,-27 7,-52 9,-54 7,-8 2,54 -6,79 -6,17 -7,9 -3,-25 z"
           id="path450" /><path
           d="m 4055,4338 c -105,-165 -126,-201 -155,-254 -16,-31 -28,-59 -26,-61 4,-4 114,164 178,272 32,54 55,105 46,105 -2,0 -21,-28 -43,-62 z"
           id="path452" /><path
           d="m 3707,4345 c 3,-27 10,-59 14,-70 5,-12 6,0 2,30 -3,28 -9,59 -14,70 -4,12 -5,-1 -2,-30 z"
           id="path454" /><path
           d="m 3627,4290 c 3,-41 10,-82 14,-90 10,-16 2,72 -11,130 -5,22 -6,8 -3,-40 z"
           id="path456" /><path
           d="m 2316,4292 c -3,-6 8,-102 25,-214 16,-111 43,-304 60,-428 33,-259 51,-355 81,-445 39,-117 41,-77 8,155 -11,74 -29,205 -40,290 -27,201 -77,499 -96,575 -16,63 -28,83 -38,67 z"
           id="path458" /><path
           d="m 2412,4208 c -21,-97 -25,-134 -15,-123 9,9 23,56 37,125 3,14 2,31 -3,38 -5,8 -12,-7 -19,-40 z"
           id="path460" /><path
           d="m 2681,4240 c 0,-8 4,-22 9,-30 12,-18 12,-2 0,25 -6,13 -9,15 -9,5 z"
           id="path462" /><path
           d="m 3531,4234 c 0,-11 3,-14 6,-6 3,7 2,16 -1,19 -3,4 -6,-2 -5,-13 z"
           id="path464" /><path
           d="m 2792,4220 c 0,-14 2,-19 5,-12 2,6 2,18 0,25 -3,6 -5,1 -5,-13 z"
           id="path466" /><path
           d="m 2457,4118 c -30,-109 -40,-158 -34,-158 8,0 56,148 66,203 14,80 -5,52 -32,-45 z"
           id="path468" /><path
           d="m 3542,4170 c 0,-19 2,-27 5,-17 2,9 2,25 0,35 -3,9 -5,1 -5,-18 z"
           id="path470" /><path
           d="m 2801,4178 c -1,-23 20,-120 25,-115 2,2 -2,33 -10,68 -8,35 -14,56 -15,47 z"
           id="path472" /><path
           d="m 3463,4110 c 0,-36 2,-50 4,-32 2,17 2,47 0,65 -2,17 -4,3 -4,-33 z"
           id="path474" /><path
           d="m 2503,3953 c -34,-102 -40,-129 -23,-103 17,26 62,169 58,186 -2,9 -18,-28 -35,-83 z"
           id="path476" /><path
           d="m 3302,4025 c 0,-16 2,-22 5,-12 2,9 2,23 0,30 -3,6 -5,-1 -5,-18 z"
           id="path478" /><path
           d="m 3382,4030 c 0,-14 2,-19 5,-12 2,6 2,18 0,25 -3,6 -5,1 -5,-13 z"
           id="path480" /><path
           d="m 2618,3923 c -53,-121 -83,-202 -76,-209 5,-4 67,131 108,235 40,102 15,82 -32,-26 z"
           id="path482" /><path
           d="m 3592,3928 c -58,-86 -142,-235 -142,-252 0,-13 65,85 147,222 31,51 53,95 50,98 -3,3 -28,-28 -55,-68 z"
           id="path484" /><path
           d="m 2683,3811 c -23,-55 -45,-113 -48,-128 -7,-36 71,120 85,170 22,76 4,56 -37,-42 z"
           id="path486" /><path
           d="m 3800,3840 c -32,-45 -137,-271 -180,-385 -38,-103 -76,-242 -68,-251 6,-5 57,98 118,241 26,61 77,174 114,252 36,78 66,149 66,157 0,26 -27,18 -50,-14 z"
           id="path488" /><path
           d="m 3406,3798 c -40,-64 -61,-105 -71,-138 -7,-24 -6,-24 7,-5 21,29 108,195 102,195 -2,0 -19,-24 -38,-52 z"
           id="path490" /><path
           d="m 3250,3791 c -31,-50 -65,-140 -55,-149 3,-3 6,-3 8,-1 11,17 86,193 83,196 -2,2 -18,-19 -36,-46 z"
           id="path492" /><path
           d="m 2786,3735 c -21,-48 -36,-91 -34,-96 2,-6 21,31 42,81 22,49 37,93 34,95 -3,3 -22,-33 -42,-80 z"
           id="path494" /><path
           d="m 2890,3753 c -40,-89 -61,-146 -57,-156 2,-6 22,36 46,92 43,103 52,155 11,64 z"
           id="path496" /><path
           d="m 3066,3729 c -31,-70 -41,-103 -28,-95 13,8 65,137 58,144 -3,3 -17,-19 -30,-49 z"
           id="path498" /><path
           d="m 2920,3443 c 0,-5 12,-44 26,-88 27,-84 53,-140 60,-133 6,7 -33,153 -50,187 -16,30 -36,49 -36,34 z"
           id="path500" /><path
           d="m 4233,3250 c 24,-185 32,-233 35,-218 4,20 -27,250 -35,258 -3,3 -3,-15 0,-40 z"
           id="path502" /><path
           d="m 2197,3122 c -528,-344 -812,-540 -868,-598 l -34,-36 41,20 c 22,11 119,73 215,138 469,316 542,364 557,364 6,0 12,4 14,8 4,11 81,63 85,58 2,-2 -1,-16 -7,-31 -6,-15 -8,-30 -6,-32 3,-3 10,14 17,37 9,30 24,49 53,70 23,15 52,39 65,53 53,57 8,40 -132,-51 z"
           id="path504" /><path
           d="m 4260,3208 c 0,-26 68,-103 221,-254 294,-288 657,-614 813,-729 106,-78 -48,81 -299,309 -280,254 -471,431 -608,565 -65,64 -120,118 -123,120 -2,2 -4,-3 -4,-11 z"
           id="path506" /><path
           d="m 2335,3116 c -15,-48 -25,-92 -23,-97 2,-6 16,31 30,82 15,52 25,95 23,97 -2,2 -16,-35 -30,-82 z"
           id="path508" /><path
           d="m 4173,3065 c 0,-22 2,-30 4,-17 2,12 2,30 0,40 -3,9 -5,-1 -4,-23 z"
           id="path510" /><path
           d="m 4181,3004 c 0,-11 3,-14 6,-6 3,7 2,16 -1,19 -3,4 -6,-2 -5,-13 z"
           id="path512" /><path
           d="m 4342,2995 c 0,-11 4,-33 8,-50 7,-27 8,-27 8,-5 0,14 -4,36 -8,50 -6,20 -8,21 -8,5 z"
           id="path514" /><path
           d="m 2100,2998 c 0,-3 -14,-42 -30,-88 -17,-46 -28,-85 -26,-87 2,-2 18,35 35,83 17,48 29,89 26,92 -3,3 -5,3 -5,0 z"
           id="path516" /><path
           d="m 2226,2949 c -9,-29 -16,-57 -15,-63 0,-6 9,16 20,49 10,32 16,61 14,63 -2,2 -11,-20 -19,-49 z"
           id="path518" /><path
           d="m 2166,2944 c -4,-14 -5,-28 -3,-31 3,-2 8,8 11,23 4,14 5,28 3,31 -3,2 -8,-8 -11,-23 z"
           id="path520" /><path
           d="m 4361,2894 c 0,-11 3,-14 6,-6 3,7 2,16 -1,19 -3,4 -6,-2 -5,-13 z"
           id="path522" /><path
           d="m 4431,2905 c 0,-5 6,-32 13,-60 8,-27 14,-41 14,-30 0,21 -25,107 -27,90 z"
           id="path524" /><path
           d="m 2151,2884 c 0,-11 3,-14 6,-6 3,7 2,16 -1,19 -3,4 -6,-2 -5,-13 z"
           id="path526" /><path
           d="m 1986,2804 c -10,-31 -16,-58 -14,-60 3,-2 12,21 22,52 10,31 16,58 14,60 -3,2 -12,-21 -22,-52 z"
           id="path528" /><path
           d="m 4371,2844 c 0,-11 3,-14 6,-6 3,7 2,16 -1,19 -3,4 -6,-2 -5,-13 z"
           id="path530" /><path
           d="m 1871,2794 c 0,-11 3,-14 6,-6 3,7 2,16 -1,19 -3,4 -6,-2 -5,-13 z"
           id="path532" /><path
           d="m 1861,2754 c 0,-11 3,-14 6,-6 3,7 2,16 -1,19 -3,4 -6,-2 -5,-13 z"
           id="path534" /><path
           d="m 1891,2754 c 0,-11 3,-14 6,-6 3,7 2,16 -1,19 -3,4 -6,-2 -5,-13 z"
           id="path536" /><path
           d="m 4661,2674 c 0,-11 3,-14 6,-6 3,7 2,16 -1,19 -3,4 -6,-2 -5,-13 z"
           id="path538" /><path
           d="m 4672,2630 c 0,-14 2,-19 5,-12 2,6 2,18 0,25 -3,6 -5,1 -5,-13 z"
           id="path540" /><path
           d="m 4752,2590 c 0,-14 2,-19 5,-12 2,6 2,18 0,25 -3,6 -5,1 -5,-13 z"
           id="path542" /><path
           d="m 4681,2584 c 0,-11 3,-14 6,-6 3,7 2,16 -1,19 -3,4 -6,-2 -5,-13 z"
           id="path544" /><path
           d="m 4762,2545 c 0,-11 3,-29 8,-40 11,-25 11,1 0,35 -6,20 -8,21 -8,5 z"
           id="path546" /></g></g></g></svg>
